G04 --- HEADER BEGIN --- *
G04 #@! TF.GenerationSoftware,LibrePCB,LibrePCB,2.1.1*
G04 #@! TF.CreationDate,2026-10-04T20:14:45*
G04 #@! TF.ProjectId,CO2-Sensor,06764a5f-d6f5-4d99-a3b7-4686052c3b4a,v1*
G04 #@! TF.Part,Single*
G04 #@! TF.SameCoordinates*
G04 #@! TF.FileFunction,Soldermask,Top*
G04 #@! TF.FilePolarity,Negative*
%FSLAX66Y66*%
%MOMM*%
G01*
G75*
G04 --- HEADER END --- *
G04 --- APERTURE LIST BEGIN --- *
%AMROUNDEDRECT10*20,1,0.6,-0.25,0.0,0.25,0.0,90.0*20,1,0.4,-0.35,0.0,0.35,0.0,90.0*1,1,0.2,-0.2,-0.25*1,1,0.2,-0.2,0.25*1,1,0.2,0.2,0.25*1,1,0.2,0.2,-0.25*%
%ADD10ROUNDEDRECT10*%
%ADD11O,1.787X2.39*%
%AMROUNDEDRECT12*20,1,1.787,-1.095,0.0,1.095,0.0,90.0*20,1,1.587,-1.195,0.0,1.195,0.0,90.0*1,1,0.2,-0.7935,-1.095*1,1,0.2,-0.7935,1.095*1,1,0.2,0.7935,1.095*1,1,0.2,0.7935,-1.095*%
%ADD12ROUNDEDRECT12*%
%AMROUNDEDRECT13*20,1,1.2,-0.5,0.0,0.5,0.0,0.0*20,1,1.0,-0.6,0.0,0.6,0.0,0.0*1,1,0.2,-0.5,0.5*1,1,0.2,0.5,0.5*1,1,0.2,0.5,-0.5*1,1,0.2,-0.5,-0.5*%
%ADD13ROUNDEDRECT13*%
%AMROUNDEDRECT14*20,1,1.1,-0.75,0.0,0.75,0.0,90.0*20,1,0.9,-0.85,0.0,0.85,0.0,90.0*1,1,0.2,-0.45,-0.75*1,1,0.2,-0.45,0.75*1,1,0.2,0.45,0.75*1,1,0.2,0.45,-0.75*%
%ADD14ROUNDEDRECT14*%
%AMROUNDEDRECT15*20,1,1.1,-0.75,0.0,0.75,0.0,0.0*20,1,0.9,-0.85,0.0,0.85,0.0,0.0*1,1,0.2,-0.75,0.45*1,1,0.2,0.75,0.45*1,1,0.2,0.75,-0.45*1,1,0.2,-0.75,-0.45*%
%ADD15ROUNDEDRECT15*%
%AMROUNDEDRECT16*20,1,0.6,-0.25,0.0,0.25,0.0,0.0*20,1,0.4,-0.35,0.0,0.35,0.0,0.0*1,1,0.2,-0.25,0.2*1,1,0.2,0.25,0.2*1,1,0.2,0.25,-0.2*1,1,0.2,-0.25,-0.2*%
%ADD16ROUNDEDRECT16*%
%AMROUNDEDRECT17*20,1,0.55,-0.25,0.0,0.25,0.0,90.0*20,1,0.35,-0.35,0.0,0.35,0.0,90.0*1,1,0.2,-0.175,-0.25*1,1,0.2,-0.175,0.25*1,1,0.2,0.175,0.25*1,1,0.2,0.175,-0.25*%
%ADD17ROUNDEDRECT17*%
%AMROUNDEDRECT18*20,1,1.0,-0.55,0.0,0.55,0.0,0.0*20,1,0.4,-0.85,0.0,0.85,0.0,0.0*1,1,0.6,-0.55,0.2*1,1,0.6,0.55,0.2*1,1,0.6,0.55,-0.2*1,1,0.6,-0.55,-0.2*%
%ADD18ROUNDEDRECT18*%
%AMROUNDEDRECT19*20,1,1.0,-0.55,0.0,0.55,0.0,90.0*20,1,0.4,-0.85,0.0,0.85,0.0,90.0*1,1,0.6,-0.2,-0.55*1,1,0.6,-0.2,0.55*1,1,0.6,0.2,0.55*1,1,0.6,0.2,-0.55*%
%ADD19ROUNDEDRECT19*%
%AMROUNDEDRECT20*20,1,2.2,-0.75,0.0,0.75,0.0,0.0*20,1,1.5,-1.1,0.0,1.1,0.0,0.0*1,1,0.7,-0.75,0.75*1,1,0.7,0.75,0.75*1,1,0.7,0.75,-0.75*1,1,0.7,-0.75,-0.75*%
%ADD20ROUNDEDRECT20*%
%AMROUNDEDRECT21*20,1,0.55,-0.25,0.0,0.25,0.0,0.0*20,1,0.35,-0.35,0.0,0.35,0.0,0.0*1,1,0.2,-0.25,0.175*1,1,0.2,0.25,0.175*1,1,0.2,0.25,-0.175*1,1,0.2,-0.25,-0.175*%
%ADD21ROUNDEDRECT21*%
%AMROUNDEDRECT22*20,1,1.05,-0.625,0.0,0.625,0.0,0.0*20,1,0.85,-0.725,0.0,0.725,0.0,0.0*1,1,0.2,-0.625,0.425*1,1,0.2,0.625,0.425*1,1,0.2,0.625,-0.425*1,1,0.2,-0.625,-0.425*%
%ADD22ROUNDEDRECT22*%
%AMROUNDEDRECT23*20,1,1.0,-0.425,0.0,0.425,0.0,0.0*20,1,0.8,-0.525,0.0,0.525,0.0,0.0*1,1,0.2,-0.425,0.4*1,1,0.2,0.425,0.4*1,1,0.2,0.425,-0.4*1,1,0.2,-0.425,-0.4*%
%ADD23ROUNDEDRECT23*%
%ADD24O,1.2X2.0*%
%ADD25O,1.2X2.3*%
%ADD26C,0.85*%
%AMROUNDEDRECT27*20,1,0.5,-0.26,0.0,0.26,0.0,0.0*20,1,0.15,-0.435,0.0,0.435,0.0,0.0*1,1,0.35,-0.26,0.075*1,1,0.35,0.26,0.075*1,1,0.35,0.26,-0.075*1,1,0.35,-0.26,-0.075*%
%ADD27ROUNDEDRECT27*%
%AMROUNDEDRECT28*20,1,1.6,-0.58,0.0,0.58,0.0,90.0*20,1,0.91,-0.925,0.0,0.925,0.0,90.0*1,1,0.69,-0.455,-0.58*1,1,0.69,-0.455,0.58*1,1,0.69,0.455,0.58*1,1,0.69,0.455,-0.58*%
%ADD28ROUNDEDRECT28*%
%AMROUNDEDRECT29*20,1,1.4,-0.754,0.0,0.754,0.0,90.0*20,1,0.708,-1.1,0.0,1.1,0.0,90.0*1,1,0.692,-0.354,-0.754*1,1,0.692,-0.354,0.754*1,1,0.692,0.354,0.754*1,1,0.692,0.354,-0.754*%
%ADD29ROUNDEDRECT29*%
%ADD30O,1.8X4.2*%
%ADD31C,1.7*%
%ADD32C,3.4*%
G04 --- APERTURE LIST END --- *
G04 --- BOARD BEGIN --- *
D10*
G04 #@! TO.C,C3*
X10500000Y56100000D03*
X9700000Y56100000D03*
D11*
G04 #@! TO.C,J2*
X8170000Y18000000D03*
D12*
X10710000Y18000000D03*
D11*
X3090000Y18000000D03*
X5630000Y18000000D03*
D13*
G04 #@! TO.C,U4*
X9140000Y38410000D03*
D14*
X15175000Y24500000D03*
D15*
X3250000Y40990000D03*
X3250000Y32100000D03*
D13*
X12140000Y36910000D03*
X9140000Y35410000D03*
D15*
X20750000Y38490000D03*
X3250000Y29560000D03*
X3250000Y28290000D03*
X20750000Y33410000D03*
D14*
X12635000Y24500000D03*
D15*
X20750000Y41030000D03*
X20750000Y42300000D03*
D14*
X6285000Y24500000D03*
D15*
X3250000Y34640000D03*
X20750000Y30870000D03*
D14*
X13905000Y24500000D03*
X16445000Y24500000D03*
D15*
X20750000Y39760000D03*
X20750000Y25790000D03*
D13*
X10640000Y35410000D03*
D15*
X3250000Y25750000D03*
D14*
X17715000Y24500000D03*
D13*
X9140000Y36910000D03*
D15*
X20750000Y27060000D03*
X20750000Y34680000D03*
D14*
X10095000Y24500000D03*
D15*
X3250000Y39720000D03*
X20750000Y28330000D03*
D13*
X12140000Y35410000D03*
X10640000Y38410000D03*
D15*
X3250000Y30830000D03*
D13*
X12140000Y38410000D03*
D14*
X7555000Y24500000D03*
X5015000Y24500000D03*
D15*
X20750000Y35950000D03*
X20750000Y37220000D03*
D14*
X18985000Y24500000D03*
D13*
X10640000Y36910000D03*
D15*
X3250000Y37180000D03*
X20750000Y32140000D03*
X3250000Y42260000D03*
X3250000Y33370000D03*
X3250000Y35910000D03*
X3250000Y27020000D03*
D14*
X8825000Y24500000D03*
D15*
X3250000Y38450000D03*
X20750000Y29600000D03*
D14*
X11365000Y24500000D03*
D10*
G04 #@! TO.C,C2*
X20700000Y17700000D03*
X19900000Y17700000D03*
D16*
G04 #@! TO.C,C5*
X900000Y41200000D03*
X900000Y42000000D03*
D17*
G04 #@! TO.C,R9*
X12375000Y56100000D03*
X13225000Y56100000D03*
D18*
G04 #@! TO.C,U3*
X16000000Y60750000D03*
D19*
X12000000Y66000000D03*
X9500000Y58000000D03*
D18*
X16000000Y59500000D03*
X16000000Y63250000D03*
X8000000Y60750000D03*
X8000000Y63250000D03*
X8000000Y62000000D03*
X16000000Y64500000D03*
D19*
X10750000Y66000000D03*
D18*
X16000000Y62000000D03*
D19*
X13250000Y66000000D03*
D20*
X13250000Y63250000D03*
D18*
X8000000Y64500000D03*
D19*
X12000000Y58000000D03*
X10750000Y58000000D03*
D18*
X8000000Y59500000D03*
D20*
X10750000Y60750000D03*
X13250000Y60750000D03*
X10750000Y63250000D03*
D19*
X14500000Y66000000D03*
X9500000Y66000000D03*
X14500000Y58000000D03*
X13250000Y58000000D03*
D17*
G04 #@! TO.C,R8*
X15425000Y56100000D03*
X14575000Y56100000D03*
D21*
G04 #@! TO.C,R6*
X12500000Y11025000D03*
X12500000Y10175000D03*
G04 #@! TO.C,R5*
X19000000Y23025000D03*
X19000000Y22175000D03*
D16*
G04 #@! TO.C,C4*
X17100000Y11100000D03*
X17100000Y10300000D03*
D21*
G04 #@! TO.C,R4*
X23100000Y20625000D03*
X23100000Y19775000D03*
D22*
G04 #@! TO.C,L2*
X15600000Y9275000D03*
X15600000Y11125000D03*
D17*
G04 #@! TO.C,R1*
X1825000Y39700000D03*
X975000Y39700000D03*
D23*
G04 #@! TO.C,C1*
X18825000Y17700000D03*
X17375000Y17700000D03*
D21*
G04 #@! TO.C,R3*
X23100000Y19025000D03*
X23100000Y18175000D03*
D24*
G04 #@! TO.C,J1*
X16320000Y3225000D03*
D25*
X7680000Y7405000D03*
D24*
X7680000Y3225000D03*
D25*
X16320000Y7405000D03*
D26*
G04 #@! TD*
X9110000Y6905000D03*
X14890000Y6905000D03*
D17*
G04 #@! TO.C,R10*
X23225000Y25800000D03*
X22375000Y25800000D03*
D27*
G04 #@! TO.C,U2*
X20560000Y19400000D03*
X22040000Y19900000D03*
X20560000Y19900000D03*
X20560000Y18900000D03*
X22040000Y19400000D03*
X22040000Y18900000D03*
D21*
G04 #@! TO.C,R7*
X11500000Y11025000D03*
X11500000Y10175000D03*
D28*
G04 #@! TO.C,L1*
X19105000Y19425000D03*
X17105000Y19425000D03*
D29*
G04 #@! TO.C,X1*
X8500000Y5300000D03*
X15500000Y5300000D03*
X13000000Y5300000D03*
X11000000Y5300000D03*
D30*
X6300000Y2700000D03*
X17700000Y2700000D03*
D31*
G04 #@! TD*
X14250000Y2700000D03*
X9750000Y2700000D03*
D11*
G04 #@! TO.C,J3*
X8190000Y14400000D03*
X13270000Y14400000D03*
X15810000Y14400000D03*
X3110000Y14400000D03*
D12*
X20890000Y14400000D03*
D11*
X18350000Y14400000D03*
X10730000Y14400000D03*
X5650000Y14400000D03*
D21*
G04 #@! TO.C,R2*
X6200000Y22825000D03*
X6200000Y21975000D03*
D32*
G04 #@! TD*
X3000000Y8000000D03*
X21000000Y67000000D03*
X3000000Y67000000D03*
X21000000Y8000000D03*
G04 --- BOARD END --- *
G04 #@! TF.MD5,8d700b371a5947d8f427e0b20a945607*
M02*
