G04 --- HEADER BEGIN --- *
G04 #@! TF.GenerationSoftware,LibrePCB,LibrePCB,2.1.1*
G04 #@! TF.CreationDate,2026-10-04T17:57:12*
G04 #@! TF.ProjectId,CO2-Sensor,06764a5f-d6f5-4d99-a3b7-4686052c3b4a,v1*
G04 #@! TF.Part,Single*
G04 #@! TF.SameCoordinates*
G04 #@! TF.FileFunction,Copper,L1,Top*
G04 #@! TF.FilePolarity,Positive*
%FSLAX66Y66*%
%MOMM*%
G01*
G75*
G04 --- HEADER END --- *
G04 --- APERTURE LIST BEGIN --- *
G04 #@! TA.AperFunction,SMDPad,CuDef*
%ADD10R,0.4X0.5*%
G04 #@! TA.AperFunction,ComponentPad*
%ADD11O,1.587X2.19*%
%ADD12R,1.587X2.19*%
G04 #@! TA.AperFunction,SMDPad,CuDef*
%ADD13R,1.0X1.0*%
%ADD14R,0.9X1.5*%
%ADD15R,1.5X0.9*%
%ADD16R,0.5X0.4*%
%ADD17R,0.35X0.5*%
%AMROUNDEDRECT18*20,1,0.8,-0.55,0.0,0.55,0.0,0.0*20,1,0.4,-0.75,0.0,0.75,0.0,0.0*1,1,0.4,-0.55,0.2*1,1,0.4,0.55,0.2*1,1,0.4,0.55,-0.2*1,1,0.4,-0.55,-0.2*%
%ADD18ROUNDEDRECT18*%
%AMROUNDEDRECT19*20,1,0.8,-0.55,0.0,0.55,0.0,90.0*20,1,0.4,-0.75,0.0,0.75,0.0,90.0*1,1,0.4,-0.2,-0.55*1,1,0.4,-0.2,0.55*1,1,0.4,0.2,0.55*1,1,0.4,0.2,-0.55*%
%ADD19ROUNDEDRECT19*%
%AMROUNDEDRECT20*20,1,2.0,-0.75,0.0,0.75,0.0,0.0*20,1,1.5,-1.0,0.0,1.0,0.0,0.0*1,1,0.5,-0.75,0.75*1,1,0.5,0.75,0.75*1,1,0.5,0.75,-0.75*1,1,0.5,-0.75,-0.75*%
%ADD20ROUNDEDRECT20*%
%ADD21R,0.5X0.35*%
%ADD22R,1.25X0.85*%
%ADD23R,0.85X0.8*%
G04 #@! TA.AperFunction,ComponentPad*
%ADD24O,1.0X1.8*%
%ADD25O,1.0X2.1*%
G04 #@! TA.AperFunction,SMDPad,CuDef*
%AMROUNDEDRECT26*20,1,0.3,-0.26,0.0,0.26,0.0,0.0*20,1,0.15,-0.335,0.0,0.335,0.0,0.0*1,1,0.15,-0.26,0.075*1,1,0.15,0.26,0.075*1,1,0.15,0.26,-0.075*1,1,0.15,-0.26,-0.075*%
%ADD26ROUNDEDRECT26*%
%AMROUNDEDRECT27*20,1,1.4,-0.58,0.0,0.58,0.0,90.0*20,1,0.91,-0.825,0.0,0.825,0.0,90.0*1,1,0.49,-0.455,-0.58*1,1,0.49,-0.455,0.58*1,1,0.49,0.455,0.58*1,1,0.49,0.455,-0.58*%
%ADD27ROUNDEDRECT27*%
%AMROUNDEDRECT28*20,1,1.2,-0.754,0.0,0.754,0.0,90.0*20,1,0.708,-1.0,0.0,1.0,0.0,90.0*1,1,0.492,-0.354,-0.754*1,1,0.492,-0.354,0.754*1,1,0.492,0.354,0.754*1,1,0.492,0.354,-0.754*%
%ADD28ROUNDEDRECT28*%
G04 #@! TA.AperFunction,ComponentPad*
%ADD29O,1.6X4.0*%
G04 #@! TA.AperFunction,Conductor*
%ADD30C,0.2*%
G04 #@! TA.AperFunction,ViaPad*
%ADD31C,0.7*%
G04 #@! TA.AperFunction,Conductor*
%ADD32C,0.4*%
%ADD33C,0.6*%
%ADD34C,0.3*%
%ADD35C,0.5*%
G04 #@! TD*
G04 --- APERTURE LIST END --- *
G04 --- BOARD BEGIN --- *
D10*
G04 #@! TO.N,+3V3*
G04 #@! TO.C,C3*
G04 #@! TO.P,C3,1,1*
X10500000Y56100000D03*
G04 #@! TO.N,GND*
G04 #@! TO.P,C3,2,2*
X9700000Y56100000D03*
D11*
G04 #@! TO.N,RXD*
G04 #@! TO.C,J2*
G04 #@! TO.P,J2,2,2*
X8170000Y18000000D03*
D12*
G04 #@! TO.N,+3V3*
G04 #@! TO.P,J2,1,1*
X10710000Y18000000D03*
D11*
G04 #@! TO.N,GND*
G04 #@! TO.P,J2,4,4*
X3090000Y18000000D03*
G04 #@! TO.N,TXD*
G04 #@! TO.P,J2,3,3*
X5630000Y18000000D03*
D13*
G04 #@! TO.N,GND*
G04 #@! TO.C,U4*
G04 #@! TO.P,U4,41_EPAD_1,GND_EPAD*
X9140000Y38410000D03*
D14*
G04 #@! TO.N,N/C*
G04 #@! TO.P,U4,23,IO21*
X15175000Y24500000D03*
D15*
G04 #@! TO.N,+3V3*
G04 #@! TO.P,U4,2,3V3*
X3250000Y40990000D03*
G04 #@! TO.N,N/C*
G04 #@! TO.P,U4,9,IO16/XTAL_32K_N*
X3250000Y32100000D03*
D13*
G04 #@! TO.N,GND*
G04 #@! TO.P,U4,41_EPAD_6,GND_EPAD*
X12140000Y36910000D03*
G04 #@! TO.P,U4,41_EPAD_7,GND_EPAD*
X9140000Y35410000D03*
D15*
G04 #@! TO.N,TXD*
G04 #@! TO.P,U4,37,IO43/TXD0*
X20750000Y38490000D03*
G04 #@! TO.N,N/C*
G04 #@! TO.P,U4,11,IO18*
X3250000Y29560000D03*
G04 #@! TO.N,N11*
G04 #@! TO.P,U4,12,IO8*
X3250000Y28290000D03*
G04 #@! TO.N,N/C*
G04 #@! TO.P,U4,33,IO40/MTDO*
X20750000Y33410000D03*
D14*
G04 #@! TO.P,U4,21,IO13*
X12635000Y24500000D03*
D15*
G04 #@! TO.P,U4,39,IO1*
X20750000Y41030000D03*
G04 #@! TO.N,GND*
G04 #@! TO.P,U4,40,GND*
X20750000Y42300000D03*
D14*
G04 #@! TO.N,N15*
G04 #@! TO.P,U4,16,IO46*
X6285000Y24500000D03*
D15*
G04 #@! TO.N,N10*
G04 #@! TO.P,U4,7,IO7*
X3250000Y34640000D03*
G04 #@! TO.N,N/C*
G04 #@! TO.P,U4,31,IO38*
X20750000Y30870000D03*
D14*
G04 #@! TO.P,U4,22,IO14*
X13905000Y24500000D03*
G04 #@! TO.P,U4,24,IO47*
X16445000Y24500000D03*
D15*
G04 #@! TO.P,U4,38,IO2*
X20750000Y39760000D03*
G04 #@! TO.N,N17*
G04 #@! TO.P,U4,27,IO0*
X20750000Y25790000D03*
D13*
G04 #@! TO.N,GND*
G04 #@! TO.P,U4,41_EPAD_8,GND_EPAD*
X10640000Y35410000D03*
D15*
G04 #@! TO.N,USB_DP*
G04 #@! TO.P,U4,14,IO20/USB_D+*
X3250000Y25750000D03*
D14*
G04 #@! TO.N,N/C*
G04 #@! TO.P,U4,25,IO48*
X17715000Y24500000D03*
D13*
G04 #@! TO.N,GND*
G04 #@! TO.P,U4,41_EPAD_4,GND_EPAD*
X9140000Y36910000D03*
D15*
G04 #@! TO.N,N/C*
G04 #@! TO.P,U4,28*
X20750000Y27060000D03*
G04 #@! TO.P,U4,34,IO41/MTDI*
X20750000Y34680000D03*
D14*
G04 #@! TO.N,SCL*
G04 #@! TO.P,U4,19,IO11*
X10095000Y24500000D03*
D15*
G04 #@! TO.N,N7*
G04 #@! TO.P,U4,3,EN*
X3250000Y39720000D03*
G04 #@! TO.N,N/C*
G04 #@! TO.P,U4,29*
X20750000Y28330000D03*
D13*
G04 #@! TO.N,GND*
G04 #@! TO.P,U4,41_EPAD_9,GND_EPAD*
X12140000Y35410000D03*
G04 #@! TO.P,U4,41_EPAD_2,GND_EPAD*
X10640000Y38410000D03*
D15*
G04 #@! TO.N,N/C*
G04 #@! TO.P,U4,10,IO17*
X3250000Y30830000D03*
D13*
G04 #@! TO.N,GND*
G04 #@! TO.P,U4,41_EPAD_3,GND_EPAD*
X12140000Y38410000D03*
D14*
G04 #@! TO.N,N12*
G04 #@! TO.P,U4,17,IO9*
X7555000Y24500000D03*
G04 #@! TO.N,N/C*
G04 #@! TO.P,U4,15,IO3*
X5015000Y24500000D03*
D15*
G04 #@! TO.P,U4,35,IO42/MTMS*
X20750000Y35950000D03*
G04 #@! TO.N,RXD*
G04 #@! TO.P,U4,36,IO44/RXD0*
X20750000Y37220000D03*
D14*
G04 #@! TO.N,N16*
G04 #@! TO.P,U4,26,IO45*
X18985000Y24500000D03*
D13*
G04 #@! TO.N,GND*
G04 #@! TO.P,U4,41_EPAD_5,GND_EPAD*
X10640000Y36910000D03*
D15*
G04 #@! TO.N,N8*
G04 #@! TO.P,U4,5,IO5*
X3250000Y37180000D03*
G04 #@! TO.N,N/C*
G04 #@! TO.P,U4,32,IO39/MTCK*
X20750000Y32140000D03*
G04 #@! TO.N,GND*
G04 #@! TO.P,U4,1,GND*
X3250000Y42260000D03*
G04 #@! TO.N,N/C*
G04 #@! TO.P,U4,8,IO15/XTAL_32K_P*
X3250000Y33370000D03*
G04 #@! TO.N,N9*
G04 #@! TO.P,U4,6,IO6*
X3250000Y35910000D03*
G04 #@! TO.N,USB_DN*
G04 #@! TO.P,U4,13,IO19/USB_D-*
X3250000Y27020000D03*
D14*
G04 #@! TO.N,N/C*
G04 #@! TO.P,U4,18,IO10*
X8825000Y24500000D03*
D15*
G04 #@! TO.N,N4*
G04 #@! TO.P,U4,4,IO4*
X3250000Y38450000D03*
G04 #@! TO.N,N/C*
G04 #@! TO.P,U4,30*
X20750000Y29600000D03*
D14*
G04 #@! TO.N,SDA*
G04 #@! TO.P,U4,20,IO12*
X11365000Y24500000D03*
D10*
G04 #@! TO.N,+5V*
G04 #@! TO.C,C2*
G04 #@! TO.P,C2,1,1*
X20700000Y17700000D03*
G04 #@! TO.N,GND*
G04 #@! TO.P,C2,2,2*
X19900000Y17700000D03*
D16*
G04 #@! TO.N,+3V3*
G04 #@! TO.C,C5*
G04 #@! TO.P,C5,1,1*
X900000Y41200000D03*
G04 #@! TO.N,GND*
G04 #@! TO.P,C5,2,2*
X900000Y42000000D03*
D17*
G04 #@! TO.N,+3V3*
G04 #@! TO.C,R9*
G04 #@! TO.P,R9,2,2*
X12375000Y56100000D03*
G04 #@! TO.N,SCL*
G04 #@! TO.P,R9,1,1*
X13225000Y56100000D03*
D18*
G04 #@! TD.P*
G04 #@! TO.N,N/C*
G04 #@! TO.C,U3*
X16000000Y60750000D03*
D19*
X12000000Y66000000D03*
G04 #@! TO.N,GND*
G04 #@! TO.P,U3,GND,GND*
X9500000Y58000000D03*
D18*
G04 #@! TD.P*
G04 #@! TO.N,N/C*
X16000000Y59500000D03*
X16000000Y63250000D03*
X8000000Y60750000D03*
X8000000Y63250000D03*
X8000000Y62000000D03*
X16000000Y64500000D03*
D19*
G04 #@! TO.N,+3V3*
G04 #@! TO.P,U3,VDDH,VDDH*
X10750000Y66000000D03*
D18*
G04 #@! TD.P*
G04 #@! TO.N,N/C*
X16000000Y62000000D03*
D19*
X13250000Y66000000D03*
D20*
G04 #@! TO.N,GND*
G04 #@! TO.P,U3,GND,GND*
X13250000Y63250000D03*
D18*
G04 #@! TD.P*
G04 #@! TO.N,N/C*
X8000000Y64500000D03*
D19*
X12000000Y58000000D03*
G04 #@! TO.N,+3V3*
G04 #@! TO.P,U3,VDD,VDD*
X10750000Y58000000D03*
D18*
G04 #@! TD.P*
G04 #@! TO.N,N/C*
X8000000Y59500000D03*
D20*
G04 #@! TO.N,GND*
G04 #@! TO.P,U3,GND,GND*
X10750000Y60750000D03*
X13250000Y60750000D03*
X10750000Y63250000D03*
D19*
G04 #@! TD.P*
G04 #@! TO.N,N/C*
X14500000Y66000000D03*
G04 #@! TO.N,GND*
G04 #@! TO.P,U3,GND,GND*
X9500000Y66000000D03*
G04 #@! TO.N,SDA*
G04 #@! TO.P,U3,SDA,SDA*
X14500000Y58000000D03*
G04 #@! TO.N,SCL*
G04 #@! TO.P,U3,SCL,SCL*
X13250000Y58000000D03*
D17*
G04 #@! TO.N,+3V3*
G04 #@! TO.C,R8*
G04 #@! TO.P,R8,2,2*
X15425000Y56100000D03*
G04 #@! TO.N,SDA*
G04 #@! TO.P,R8,1,1*
X14575000Y56100000D03*
D21*
G04 #@! TO.N,USB_DP*
G04 #@! TO.C,R6*
G04 #@! TO.P,R6,2,2*
X12500000Y11025000D03*
G04 #@! TO.N,USB_P*
G04 #@! TO.P,R6,1,1*
X12500000Y10175000D03*
G04 #@! TO.N,N16*
G04 #@! TO.C,R5*
G04 #@! TO.P,R5,2,2*
X19000000Y23025000D03*
G04 #@! TO.N,GND*
G04 #@! TO.P,R5,1,1*
X19000000Y22175000D03*
D16*
G04 #@! TO.N,+5V*
G04 #@! TO.C,C4*
G04 #@! TO.P,C4,1,1*
X17100000Y11100000D03*
G04 #@! TO.N,GND*
G04 #@! TO.P,C4,2,2*
X17100000Y10300000D03*
D21*
G04 #@! TO.C,R4*
G04 #@! TO.P,R4,2,2*
X23100000Y20625000D03*
G04 #@! TO.N,N5*
G04 #@! TO.P,R4,1,1*
X23100000Y19775000D03*
D22*
G04 #@! TO.N,N6*
G04 #@! TO.C,L2*
G04 #@! TO.P,L2,1,1*
X15600000Y9275000D03*
G04 #@! TO.N,+5V*
G04 #@! TO.P,L2,2,2*
X15600000Y11125000D03*
D17*
G04 #@! TO.N,N7*
G04 #@! TO.C,R1*
G04 #@! TO.P,R1,2,2*
X1825000Y39700000D03*
G04 #@! TO.N,+3V3*
G04 #@! TO.P,R1,1,1*
X975000Y39700000D03*
D23*
G04 #@! TO.N,GND*
G04 #@! TO.C,C1*
G04 #@! TO.P,C1,2,2*
X18825000Y17700000D03*
G04 #@! TO.N,+3V3*
G04 #@! TO.P,C1,1,1*
X17375000Y17700000D03*
D21*
G04 #@! TO.N,N5*
G04 #@! TO.C,R3*
G04 #@! TO.P,R3,2,2*
X23100000Y19025000D03*
G04 #@! TO.N,+3V3*
G04 #@! TO.P,R3,1,1*
X23100000Y18175000D03*
D24*
G04 #@! TO.N,GND*
G04 #@! TO.C,J1*
G04 #@! TO.P,J1,SHIELD,Shield*
X16320000Y3225000D03*
D25*
X7680000Y7405000D03*
D24*
X7680000Y3225000D03*
D25*
X16320000Y7405000D03*
D17*
G04 #@! TO.N,+3V3*
G04 #@! TO.C,R10*
G04 #@! TO.P,R10,2,2*
X23225000Y25800000D03*
G04 #@! TO.N,N17*
G04 #@! TO.P,R10,1,1*
X22375000Y25800000D03*
D26*
G04 #@! TO.N,N3*
G04 #@! TO.C,U2*
G04 #@! TO.P,U2,2,SW*
X20560000Y19400000D03*
G04 #@! TO.N,N/C*
G04 #@! TO.P,U2,6,PG*
X22040000Y19900000D03*
G04 #@! TO.N,GND*
G04 #@! TO.P,U2,1,GND*
X20560000Y19900000D03*
G04 #@! TO.N,+5V*
G04 #@! TO.P,U2,3,VIN*
X20560000Y18900000D03*
G04 #@! TO.N,N5*
G04 #@! TO.P,U2,5,FB*
X22040000Y19400000D03*
G04 #@! TO.N,+5V*
G04 #@! TO.P,U2,4,EN*
X22040000Y18900000D03*
D21*
G04 #@! TO.N,USB_DN*
G04 #@! TO.C,R7*
G04 #@! TO.P,R7,2,2*
X11500000Y11025000D03*
G04 #@! TO.N,USB_N*
G04 #@! TO.P,R7,1,1*
X11500000Y10175000D03*
D27*
G04 #@! TO.N,N3*
G04 #@! TO.C,L1*
G04 #@! TO.P,L1,1,1*
X19105000Y19425000D03*
G04 #@! TO.N,+3V3*
G04 #@! TO.P,L1,2,2*
X17105000Y19425000D03*
D28*
G04 #@! TO.N,GND*
G04 #@! TO.C,X1*
G04 #@! TO.P,X1,GND,GND*
X8500000Y5300000D03*
G04 #@! TO.N,N6*
G04 #@! TO.P,X1,VUSB,VBUS*
X15500000Y5300000D03*
G04 #@! TO.N,USB_P*
G04 #@! TO.P,X1,D_P,D+*
X13000000Y5300000D03*
G04 #@! TO.N,USB_N*
G04 #@! TO.P,X1,D_N,D-*
X11000000Y5300000D03*
D29*
G04 #@! TO.N,GND*
G04 #@! TO.P,X1,Shield,Shield*
X6300000Y2700000D03*
X17700000Y2700000D03*
D11*
G04 #@! TO.N,N11*
G04 #@! TO.C,J3*
G04 #@! TO.P,J3,6,6*
X8190000Y14400000D03*
G04 #@! TO.N,N9*
G04 #@! TO.P,J3,4,4*
X13270000Y14400000D03*
G04 #@! TO.N,N8*
G04 #@! TO.P,J3,3,3*
X15810000Y14400000D03*
G04 #@! TO.N,GND*
G04 #@! TO.P,J3,8,8*
X3110000Y14400000D03*
D12*
G04 #@! TO.N,+5V*
G04 #@! TO.P,J3,1,1*
X20890000Y14400000D03*
D11*
G04 #@! TO.N,N4*
G04 #@! TO.P,J3,2,2*
X18350000Y14400000D03*
G04 #@! TO.N,N10*
G04 #@! TO.P,J3,5,5*
X10730000Y14400000D03*
G04 #@! TO.N,N12*
G04 #@! TO.P,J3,7,7*
X5650000Y14400000D03*
D21*
G04 #@! TO.N,N15*
G04 #@! TO.C,R2*
G04 #@! TO.P,R2,2,2*
X6200000Y22825000D03*
G04 #@! TO.N,GND*
G04 #@! TO.P,R2,1,1*
X6200000Y21975000D03*
D30*
G04 #@! TD.C*
G04 #@! TD.P*
G04 #@! TO.N,N17*
X20750000Y25790000D02*
X20760000Y25800000D01*
X22375000Y25800000D02*
X20760000Y25800000D01*
D31*
G04 #@! TO.N,N10*
X13000000Y28500000D03*
D30*
X7800000Y31200000D02*
X11200000Y31200000D01*
X13000000Y28500000D02*
X13000000Y29400000D01*
X3250000Y34640000D02*
X4360000Y34640000D01*
X4360000Y34640000D02*
X7800000Y31200000D01*
X11200000Y31200000D02*
X13000000Y29400000D01*
D31*
G04 #@! TO.N,+3V3*
X15300000Y17700000D03*
D32*
X17375000Y17700000D02*
X17375000Y19425000D01*
X17105000Y19425000D02*
X17375000Y19425000D01*
D33*
X17375000Y17700000D02*
X15300000Y17700000D01*
D30*
G04 #@! TO.N,N5*
X23100000Y19025000D02*
X22710000Y19400000D01*
X22040000Y19400000D02*
X22710000Y19400000D01*
X23100000Y19775000D02*
X22710000Y19400000D01*
D31*
G04 #@! TO.N,N4*
X16000000Y28500000D03*
D30*
X9600000Y32700000D02*
X11800000Y32700000D01*
X5900000Y36900000D02*
X5900000Y36400000D01*
X5900000Y36900000D02*
X4350000Y38450000D01*
X9600000Y32700000D02*
X5900000Y36400000D01*
X3250000Y38450000D02*
X4350000Y38450000D01*
X16000000Y28500000D02*
X11800000Y32700000D01*
D31*
G04 #@! TO.N,N8*
X15000000Y28500000D03*
D30*
X15000000Y28500000D02*
X15000000Y28800000D01*
X9300000Y32200000D02*
X11600000Y32200000D01*
X11600000Y32200000D02*
X15000000Y28800000D01*
X3250000Y37180000D02*
X4320000Y37180000D01*
X9300000Y32200000D02*
X4320000Y37180000D01*
G04 #@! TO.N,N7*
X3250000Y39720000D02*
X3230000Y39700000D01*
X1825000Y39700000D02*
X3230000Y39700000D01*
G04 #@! TO.N,USB_DP*
X11625000Y11900000D02*
X1100000Y11900000D01*
X1350000Y25750000D02*
X800000Y25200000D01*
X3250000Y25750000D02*
X1350000Y25750000D01*
X12500000Y11025000D02*
X11625000Y11900000D01*
X800000Y12200000D02*
X1100000Y11900000D01*
X800000Y12200000D02*
X800000Y25200000D01*
D31*
G04 #@! TO.N,+3V3*
X23100000Y17400000D03*
D30*
X23100000Y18175000D02*
X23100000Y17400000D01*
D31*
G04 #@! TO.N,GND*
X20500000Y20600000D03*
D32*
X20500000Y20600000D02*
X20500000Y19960000D01*
D34*
X20560000Y19900000D02*
X20500000Y19960000D01*
D31*
G04 #@! TO.N,+3V3*
X1800000Y41000000D03*
D30*
X3250000Y40990000D02*
X3240000Y41000000D01*
X900000Y41200000D02*
X1600000Y41200000D01*
X1800000Y41000000D02*
X975000Y40175000D01*
X975000Y39700000D02*
X975000Y40175000D01*
X1800000Y41000000D02*
X3240000Y41000000D01*
X1800000Y41000000D02*
X1600000Y41200000D01*
D31*
G04 #@! TO.N,GND*
X13300000Y35400000D03*
X13300000Y38400000D03*
X8000000Y38400000D03*
X8000000Y35400000D03*
D35*
X12140000Y36910000D02*
X12140000Y35410000D01*
X9140000Y38410000D02*
X9140000Y36910000D01*
X10640000Y35410000D02*
X10640000Y36910000D01*
X8000000Y38400000D02*
X8000000Y38410000D01*
X9140000Y36910000D02*
X10640000Y36910000D01*
X8000000Y35400000D02*
X8000000Y35410000D01*
X13300000Y35400000D02*
X13300000Y35410000D01*
X10640000Y38410000D02*
X10640000Y36910000D01*
X10640000Y38410000D02*
X12140000Y38410000D01*
X12140000Y35410000D02*
X13300000Y35410000D01*
X9140000Y35410000D02*
X8000000Y35410000D01*
X12140000Y36910000D02*
X10640000Y36910000D01*
X9140000Y38410000D02*
X10640000Y38410000D01*
X13300000Y38400000D02*
X13300000Y38410000D01*
X12140000Y36910000D02*
X12140000Y38410000D01*
X9140000Y38410000D02*
X8000000Y38410000D01*
X9140000Y35410000D02*
X9140000Y36910000D01*
X9140000Y35410000D02*
X10640000Y35410000D01*
X12140000Y38410000D02*
X13300000Y38410000D01*
X10640000Y35410000D02*
X12140000Y35410000D01*
D31*
G04 #@! TO.N,+3V3*
X16200000Y17700000D03*
G04 #@! TO.N,GND*
X23100000Y21400000D03*
D30*
X23100000Y20625000D02*
X23100000Y21400000D01*
G04 #@! TO.N,N16*
X19000000Y23025000D02*
X18985000Y23040000D01*
X18985000Y24500000D02*
X18985000Y23040000D01*
D31*
G04 #@! TO.N,+3V3*
X23200000Y24900000D03*
D30*
X23200000Y24900000D02*
X23200000Y25775000D01*
X23225000Y25800000D02*
X23200000Y25775000D01*
G04 #@! TO.N,N12*
X5650000Y14400000D02*
X6900000Y15650000D01*
X7555000Y24500000D02*
X7555000Y20455000D01*
X6900000Y15650000D02*
X6900000Y19800000D01*
X7555000Y20455000D02*
X6900000Y19800000D01*
D31*
G04 #@! TO.N,RXD*
X22200000Y37200000D03*
D30*
X20750000Y37220000D02*
X22180000Y37220000D01*
X22200000Y37200000D02*
X22180000Y37220000D01*
D31*
G04 #@! TO.N,+3V3*
X16200000Y56100000D03*
X11500000Y56100000D03*
X22200000Y41100000D03*
D34*
X23300000Y42100000D02*
X23300000Y53300000D01*
X22300000Y54300000D02*
X11200000Y54300000D01*
D30*
X14300000Y59300000D02*
X11000000Y59300000D01*
X12375000Y56100000D02*
X11500000Y56100000D01*
D34*
X10500000Y56100000D02*
X10500000Y55000000D01*
D30*
X11000000Y59300000D02*
X10750000Y59050000D01*
X11000000Y64700000D02*
X10750000Y64950000D01*
X14300000Y64700000D02*
X11000000Y64700000D01*
D34*
X22200000Y41100000D02*
X23300000Y42100000D01*
D30*
X10750000Y58000000D02*
X10750000Y56850000D01*
X14300000Y59300000D02*
X14700000Y59700000D01*
D34*
X22300000Y54300000D02*
X23300000Y53300000D01*
D30*
X14700000Y59700000D02*
X14700000Y64300000D01*
X10750000Y58000000D02*
X10750000Y59050000D01*
D34*
X11200000Y54300000D02*
X10500000Y55000000D01*
D30*
X15425000Y56100000D02*
X16200000Y56100000D01*
X10750000Y56850000D02*
X10500000Y56600000D01*
X14300000Y64700000D02*
X14700000Y64300000D01*
X10500000Y56100000D02*
X11500000Y56100000D01*
X10750000Y66000000D02*
X10750000Y64950000D01*
X10500000Y56100000D02*
X10500000Y56600000D01*
D31*
G04 #@! TO.N,GND*
X17100000Y9400000D03*
D32*
X17100000Y10300000D02*
X17100000Y9400000D01*
D31*
G04 #@! TO.N,N11*
X4700000Y28300000D03*
D30*
X3250000Y28290000D02*
X4690000Y28290000D01*
X4700000Y28300000D02*
X4690000Y28290000D01*
D31*
G04 #@! TO.N,GND*
X18800000Y16700000D03*
X19900000Y16800000D03*
D32*
X18800000Y16700000D02*
X18800000Y17600000D01*
X18800000Y17600000D02*
X18900000Y17700000D01*
X19900000Y17700000D02*
X18900000Y17700000D01*
X19900000Y17700000D02*
X19900000Y16800000D01*
X18825000Y17700000D02*
X18900000Y17700000D01*
D34*
G04 #@! TO.N,+5V*
X20700000Y17700000D02*
X20700000Y14990000D01*
X20560000Y18900000D02*
X20560000Y18340000D01*
X20700000Y18200000D02*
X20560000Y18340000D01*
D32*
X20890000Y12790000D02*
X19200000Y11100000D01*
X17100000Y11100000D02*
X15600000Y11125000D01*
X20890000Y14400000D02*
X20890000Y12790000D01*
X17100000Y11100000D02*
X19200000Y11100000D01*
D34*
X20890000Y14400000D02*
X20700000Y14990000D01*
X20700000Y17700000D02*
X20700000Y18200000D01*
D30*
X20560000Y18900000D02*
X22040000Y18900000D01*
D31*
G04 #@! TO.N,GND*
X1800000Y42300000D03*
D30*
X3250000Y42260000D02*
X3210000Y42300000D01*
X1800000Y42300000D02*
X1500000Y42000000D01*
X900000Y42000000D02*
X1500000Y42000000D01*
X1800000Y42300000D02*
X3210000Y42300000D01*
D31*
G04 #@! TO.N,USB_P*
X12300000Y6700000D03*
D30*
X12300000Y6700000D02*
X12300000Y9200000D01*
X12300000Y9200000D02*
X12500000Y9400000D01*
X12500000Y10175000D02*
X12500000Y9400000D01*
X13000000Y5300000D02*
X12300000Y6000000D01*
X12300000Y6700000D02*
X12300000Y6000000D01*
D31*
G04 #@! TO.N,SDA*
X11400000Y29400000D03*
X14600000Y55100000D03*
D30*
X14500000Y58000000D02*
X14500000Y56175000D01*
X11365000Y24500000D02*
X11365000Y29365000D01*
X14575000Y56100000D02*
X14575000Y55125000D01*
X14600000Y55100000D02*
X14575000Y55125000D01*
X11400000Y29400000D02*
X11365000Y29365000D01*
X14575000Y56100000D02*
X14500000Y56175000D01*
D34*
G04 #@! TO.N,N3*
X19105000Y19425000D02*
X19130000Y19400000D01*
X20560000Y19400000D02*
X19130000Y19400000D01*
D31*
G04 #@! TO.N,TXD*
X22200000Y38500000D03*
D30*
X22200000Y38500000D02*
X20760000Y38500000D01*
X20750000Y38490000D02*
X20760000Y38500000D01*
D31*
G04 #@! TO.N,N6*
X14400000Y9300000D03*
D32*
X15500000Y5300000D02*
X14100000Y6600000D01*
X14100000Y7600000D02*
X14100000Y6600000D01*
X14100000Y7600000D02*
X14400000Y7900000D01*
X14400000Y9300000D02*
X14400000Y7900000D01*
X15600000Y9275000D02*
X14400000Y9300000D01*
G04 #@! TO.N,GND*
X7680000Y3225000D02*
X8500000Y5300000D01*
D31*
G04 #@! TO.N,USB_N*
X11500000Y9400000D03*
D30*
X11500000Y10175000D02*
X11500000Y9400000D01*
X11500000Y9400000D02*
X11500000Y6100000D01*
X11000000Y5300000D02*
X11500000Y6100000D01*
D31*
G04 #@! TO.N,GND*
X22200000Y42300000D03*
D30*
X10750000Y60750000D02*
X9500000Y59500000D01*
X20750000Y42300000D02*
X22200000Y42300000D01*
X9500000Y56800000D02*
X9700000Y56600000D01*
D34*
X22200000Y42300000D02*
X22700000Y42800000D01*
D30*
X9500000Y64450000D02*
X10700000Y63250000D01*
X9700000Y56100000D02*
X9700000Y56600000D01*
X10750000Y60750000D02*
X10750000Y63200000D01*
X10750000Y63250000D02*
X10700000Y63250000D01*
D34*
X9700000Y56100000D02*
X9700000Y55000000D01*
D30*
X13250000Y63250000D02*
X10750000Y63250000D01*
D34*
X22700000Y52900000D02*
X21800000Y53800000D01*
X22700000Y42800000D02*
X22700000Y52900000D01*
D30*
X9500000Y58000000D02*
X9500000Y56800000D01*
D34*
X10900000Y53800000D02*
X21800000Y53800000D01*
D30*
X10700000Y63250000D02*
X10750000Y63200000D01*
X10750000Y60750000D02*
X13250000Y60750000D01*
D34*
X10900000Y53800000D02*
X9700000Y55000000D01*
D30*
X9500000Y66000000D02*
X9500000Y64450000D01*
X9500000Y58000000D02*
X9500000Y59500000D01*
X10750000Y63250000D02*
X10750000Y63200000D01*
G04 #@! TO.N,N15*
X6285000Y24500000D02*
X6200000Y24415000D01*
X6200000Y22825000D02*
X6200000Y24415000D01*
D31*
G04 #@! TO.N,GND*
X9300000Y10300000D03*
G04 #@! TO.N,SCL*
X13200000Y55100000D03*
X10100000Y29800000D03*
D30*
X13250000Y58000000D02*
X13250000Y56125000D01*
X13200000Y55100000D02*
X13225000Y55125000D01*
X13225000Y56100000D02*
X13225000Y55125000D01*
X10100000Y29800000D02*
X10095000Y29795000D01*
X13225000Y56100000D02*
X13250000Y56125000D01*
X10095000Y24500000D02*
X10095000Y29795000D01*
D31*
G04 #@! TO.N,GND*
X6400000Y21100000D03*
D30*
X6400000Y21100000D02*
X6200000Y21300000D01*
X6200000Y21975000D02*
X6200000Y21300000D01*
D31*
G04 #@! TO.N,N9*
X14000000Y28500000D03*
D30*
X11400000Y31700000D02*
X14000000Y29100000D01*
X14000000Y28500000D02*
X14000000Y29100000D01*
X3250000Y35910000D02*
X4390000Y35910000D01*
X4390000Y35910000D02*
X8600000Y31700000D01*
X11400000Y31700000D02*
X8600000Y31700000D01*
G04 #@! TO.N,USB_DN*
X400000Y12000000D02*
X400000Y25500000D01*
X11500000Y11025000D02*
X11025000Y11500000D01*
X900000Y11500000D02*
X11025000Y11500000D01*
X400000Y25500000D02*
X1920000Y27020000D01*
X3250000Y27020000D02*
X1920000Y27020000D01*
X900000Y11500000D02*
X400000Y12000000D01*
D31*
G04 #@! TO.N,GND*
X14200000Y10300000D03*
X19900000Y22200000D03*
D30*
X19900000Y22200000D02*
X19875000Y22175000D01*
X19000000Y22175000D02*
X19875000Y22175000D01*
G04 --- BOARD END --- *
G04 #@! TF.MD5,e2481105ac441d45d65b0567f24f9ec7*
M02*
