M48
; #@! TF.GenerationSoftware,LibrePCB,LibrePCB,2.1.1
; #@! TF.CreationDate,2026-10-04T20:14:45
; #@! TF.ProjectId,CO2-Sensor,06764a5f-d6f5-4d99-a3b7-4686052c3b4a,v1
; #@! TF.Part,Single
; #@! TF.SameCoordinates
; #@! TF.FileFunction,Plated,1,4,PTH
FMAT,2
METRIC,TZ
; #@! TA.AperFunction,ViaDrill
T1C0.3
; #@! TA.AperFunction,ComponentDrill
T2C0.6
; #@! TA.AperFunction,ComponentDrill
T3C1.0
%
G90
G05
M71
T1
X19.9Y22.2
X14.2Y10.3
X14.0Y28.5
X6.4Y21.1
X10.1Y29.8
X13.2Y55.1
X9.3Y10.3
X22.2Y42.3
X11.5Y9.4
X14.4Y9.3
X22.2Y38.5
X14.6Y55.1
X11.4Y29.4
X12.3Y6.7
X1.8Y42.3
X19.9Y16.8
X18.8Y16.7
X4.7Y28.3
X17.1Y9.4
X22.2Y41.1
X11.5Y56.1
X16.2Y56.1
X22.2Y37.2
X23.2Y24.9
X23.1Y21.4
X16.2Y17.7
X8.0Y35.4
X8.0Y38.4
X13.3Y38.4
X13.3Y35.4
X1.8Y41.0
X20.5Y20.6
X23.1Y17.4
X15.0Y28.5
X16.0Y28.5
X15.3Y17.7
X13.0Y28.5
T2
G00X16.32Y7.955
M15
G01X16.32Y6.855
M16
G05
G00X7.68Y3.625
M15
G01X7.68Y2.825
M16
G05
G00X7.68Y7.955
M15
G01X7.68Y6.855
M16
G05
G00X16.32Y3.625
M15
G01X16.32Y2.825
M16
G05
T3
X5.65Y14.4
X10.73Y14.4
X18.35Y14.4
X20.89Y14.4
X3.11Y14.4
X15.81Y14.4
X13.27Y14.4
X8.19Y14.4
G00X17.7Y1.95
M15
G01X17.7Y3.45
M16
G05
G00X6.3Y1.95
M15
G01X6.3Y3.45
M16
G05
X5.63Y18.0
X3.09Y18.0
X10.71Y18.0
X8.17Y18.0
T0
M30
