G04 --- HEADER BEGIN --- *
G04 #@! TF.GenerationSoftware,LibrePCB,LibrePCB,2.1.1*
G04 #@! TF.CreationDate,2026-10-04T20:14:45*
G04 #@! TF.ProjectId,CO2-Sensor,06764a5f-d6f5-4d99-a3b7-4686052c3b4a,v1*
G04 #@! TF.Part,Single*
G04 #@! TF.SameCoordinates*
G04 #@! TF.FileFunction,Copper,L3,Inr*
G04 #@! TF.FilePolarity,Positive*
%FSLAX66Y66*%
%MOMM*%
G01*
G75*
G04 --- HEADER END --- *
G04 --- APERTURE LIST BEGIN --- *
G04 #@! TA.AperFunction,ComponentPad*
%ADD10C,1.5*%
%ADD11O,1.1X1.9*%
%ADD12O,1.1X2.2*%
%ADD13O,1.5X3.0*%
G04 #@! TA.AperFunction,ViaPad*
%ADD14C,0.7*%
G04 #@! TA.AperFunction,Conductor*
%ADD15C,0.01*%
G04 #@! TD*
G04 --- APERTURE LIST END --- *
G04 --- BOARD BEGIN --- *
D10*
G04 #@! TO.N,RXD*
G04 #@! TO.C,J2*
G04 #@! TO.P,J2,2,2*
X8170000Y18000000D03*
G04 #@! TO.N,+3V3*
G04 #@! TO.P,J2,1,1*
X10710000Y18000000D03*
G04 #@! TO.N,GND*
G04 #@! TO.P,J2,4,4*
X3090000Y18000000D03*
G04 #@! TO.N,TXD*
G04 #@! TO.P,J2,3,3*
X5630000Y18000000D03*
D11*
G04 #@! TO.N,GND*
G04 #@! TO.C,J1*
G04 #@! TO.P,J1,SHIELD,Shield*
X16320000Y3225000D03*
D12*
X7680000Y7405000D03*
D11*
X7680000Y3225000D03*
D12*
X16320000Y7405000D03*
D13*
G04 #@! TO.C,X1*
G04 #@! TO.P,X1,Shield,Shield*
X6300000Y2700000D03*
X17700000Y2700000D03*
D10*
G04 #@! TO.N,N11*
G04 #@! TO.C,J3*
G04 #@! TO.P,J3,6,6*
X8190000Y14400000D03*
G04 #@! TO.N,N9*
G04 #@! TO.P,J3,4,4*
X13270000Y14400000D03*
G04 #@! TO.N,N8*
G04 #@! TO.P,J3,3,3*
X15810000Y14400000D03*
G04 #@! TO.N,GND*
G04 #@! TO.P,J3,8,8*
X3110000Y14400000D03*
G04 #@! TO.N,+5V*
G04 #@! TO.P,J3,1,1*
X20890000Y14400000D03*
G04 #@! TO.N,N4*
G04 #@! TO.P,J3,2,2*
X18350000Y14400000D03*
G04 #@! TO.N,N10*
G04 #@! TO.P,J3,5,5*
X10730000Y14400000D03*
G04 #@! TO.N,N12*
G04 #@! TO.P,J3,7,7*
X5650000Y14400000D03*
D14*
G04 #@! TD.C*
G04 #@! TD.P*
G04 #@! TO.N,N10*
X13000000Y28500000D03*
G04 #@! TO.N,+3V3*
X15300000Y17700000D03*
G04 #@! TO.N,N4*
X16000000Y28500000D03*
G04 #@! TO.N,N8*
X15000000Y28500000D03*
G04 #@! TO.N,+3V3*
X23100000Y17400000D03*
G04 #@! TO.N,GND*
X20500000Y20600000D03*
G04 #@! TO.N,+3V3*
X1800000Y41000000D03*
G04 #@! TO.N,GND*
X13300000Y35400000D03*
X13300000Y38400000D03*
X8000000Y38400000D03*
X8000000Y35400000D03*
G04 #@! TO.N,+3V3*
X16200000Y17700000D03*
G04 #@! TO.N,GND*
X23100000Y21400000D03*
G04 #@! TO.N,+3V3*
X23200000Y24900000D03*
G04 #@! TO.N,RXD*
X22200000Y37200000D03*
G04 #@! TO.N,+3V3*
X16200000Y56100000D03*
X11500000Y56100000D03*
X22200000Y41100000D03*
G04 #@! TO.N,GND*
X17100000Y9400000D03*
G04 #@! TO.N,N11*
X4700000Y28300000D03*
G04 #@! TO.N,GND*
X18800000Y16700000D03*
X19900000Y16800000D03*
X1800000Y42300000D03*
G04 #@! TO.N,USB_P*
X12300000Y6700000D03*
G04 #@! TO.N,SDA*
X11400000Y29400000D03*
X14600000Y55100000D03*
G04 #@! TO.N,TXD*
X22200000Y38500000D03*
G04 #@! TO.N,N6*
X14400000Y9300000D03*
G04 #@! TO.N,USB_N*
X11500000Y9400000D03*
G04 #@! TO.N,GND*
X22200000Y42300000D03*
X9300000Y10300000D03*
G04 #@! TO.N,SCL*
X13200000Y55100000D03*
X10100000Y29800000D03*
G04 #@! TO.N,GND*
X6400000Y21100000D03*
G04 #@! TO.N,N9*
X14000000Y28500000D03*
G04 #@! TO.N,GND*
X14200000Y10300000D03*
X19900000Y22200000D03*
D15*
G04 #@! TA.AperFunction,Conductor*
G04 #@! TO.N,+3V3*
G36*
X300000Y4165685D02*
X329289Y4094975D01*
X2996435Y1427829D01*
X2996435Y6150255D01*
X2740287Y6168575D01*
X2733225Y6169590D01*
X2482287Y6224178D01*
X2475446Y6226187D01*
X2234831Y6315932D01*
X2228344Y6318894D01*
X2002951Y6441969D01*
X1996954Y6445823D01*
X1791367Y6599722D01*
X1785984Y6604387D01*
X1604387Y6785984D01*
X1599722Y6791367D01*
X1445823Y6996953D01*
X1441969Y7002950D01*
X1318895Y7228344D01*
X1315932Y7234831D01*
X1226187Y7475446D01*
X1224178Y7482287D01*
X1169590Y7733225D01*
X1168575Y7740287D01*
X1150255Y7996435D01*
X1150255Y8003565D01*
X1168575Y8259713D01*
X1169590Y8266775D01*
X1224178Y8517713D01*
X1226187Y8524554D01*
X1315932Y8765169D01*
X1318894Y8771656D01*
X1441969Y8997049D01*
X1445823Y9003046D01*
X1599722Y9208633D01*
X1604387Y9214016D01*
X1785984Y9395613D01*
X1791367Y9400278D01*
X1996953Y9554177D01*
X2002950Y9558031D01*
X2228344Y9681105D01*
X2234831Y9684068D01*
X2475446Y9773813D01*
X2482287Y9775822D01*
X2733225Y9830410D01*
X2740287Y9831425D01*
X2996435Y9849745D01*
X3003565Y9849745D01*
X3105106Y9842482D01*
X3105106Y13450482D01*
X2929557Y13467772D01*
X2919960Y13469681D01*
X2751157Y13520886D01*
X2742113Y13524633D01*
X2586542Y13607787D01*
X2578410Y13613221D01*
X2442047Y13725132D01*
X2435132Y13732047D01*
X2323221Y13868410D01*
X2317787Y13876542D01*
X2234633Y14032113D01*
X2230886Y14041157D01*
X2179681Y14209960D01*
X2177772Y14219557D01*
X2160482Y14395106D01*
X2160482Y14404894D01*
X2177772Y14580443D01*
X2179681Y14590040D01*
X2230886Y14758843D01*
X2234633Y14767887D01*
X2317787Y14923458D01*
X2323221Y14931590D01*
X2435132Y15067953D01*
X2442047Y15074868D01*
X2578410Y15186779D01*
X2586542Y15192213D01*
X2742113Y15275367D01*
X2751157Y15279114D01*
X2919960Y15330319D01*
X2929557Y15332228D01*
X3085106Y15347548D01*
X3085106Y17050482D01*
X2909557Y17067772D01*
X2899960Y17069681D01*
X2731157Y17120886D01*
X2722113Y17124633D01*
X2566542Y17207787D01*
X2558410Y17213221D01*
X2422047Y17325132D01*
X2415132Y17332047D01*
X2303221Y17468410D01*
X2297787Y17476542D01*
X2214633Y17632113D01*
X2210886Y17641157D01*
X2159681Y17809960D01*
X2157772Y17819557D01*
X2140482Y17995106D01*
X2140482Y18004894D01*
X2157772Y18180443D01*
X2159681Y18190040D01*
X2210886Y18358843D01*
X2214633Y18367887D01*
X2297787Y18523458D01*
X2303221Y18531590D01*
X2415132Y18667953D01*
X2422047Y18674868D01*
X2558410Y18786779D01*
X2566542Y18792213D01*
X2722113Y18875367D01*
X2731157Y18879114D01*
X2899960Y18930319D01*
X2909557Y18932228D01*
X3085106Y18949518D01*
X3094894Y18949518D01*
X3270443Y18932228D01*
X3280040Y18930319D01*
X3448843Y18879114D01*
X3457887Y18875367D01*
X3613458Y18792213D01*
X3621590Y18786779D01*
X3757953Y18674868D01*
X3764868Y18667953D01*
X3876779Y18531590D01*
X3882213Y18523458D01*
X3965367Y18367887D01*
X3969114Y18358843D01*
X4020319Y18190040D01*
X4022228Y18180443D01*
X4039518Y18004894D01*
X4039518Y17995106D01*
X4022228Y17819557D01*
X4020319Y17809960D01*
X3969114Y17641157D01*
X3965367Y17632113D01*
X3882213Y17476542D01*
X3876779Y17468410D01*
X3764868Y17332047D01*
X3757953Y17325132D01*
X3621590Y17213221D01*
X3613458Y17207787D01*
X3457887Y17124633D01*
X3448843Y17120886D01*
X3280040Y17069681D01*
X3270443Y17067772D01*
X3094894Y17050482D01*
X3085106Y17050482D01*
X3085106Y15347548D01*
X3105106Y15349518D01*
X3114894Y15349518D01*
X3290443Y15332228D01*
X3300040Y15330319D01*
X3468843Y15279114D01*
X3477887Y15275367D01*
X3633458Y15192213D01*
X3641590Y15186779D01*
X3777953Y15074868D01*
X3784868Y15067953D01*
X3896779Y14931590D01*
X3902213Y14923458D01*
X3985367Y14767887D01*
X3989114Y14758843D01*
X4040319Y14590040D01*
X4042228Y14580443D01*
X4059518Y14404894D01*
X4059518Y14395106D01*
X4042228Y14219557D01*
X4040319Y14209960D01*
X3989114Y14041157D01*
X3985367Y14032113D01*
X3902213Y13876542D01*
X3896779Y13868410D01*
X3784868Y13732047D01*
X3777953Y13725132D01*
X3641590Y13613221D01*
X3633458Y13607787D01*
X3477887Y13524633D01*
X3468843Y13520886D01*
X3300040Y13469681D01*
X3290443Y13467772D01*
X3114894Y13450482D01*
X3105106Y13450482D01*
X3105106Y9842482D01*
X3259713Y9831425D01*
X3266775Y9830410D01*
X3517713Y9775822D01*
X3524554Y9773813D01*
X3765169Y9684068D01*
X3771656Y9681106D01*
X3997049Y9558031D01*
X4003046Y9554177D01*
X4208633Y9400278D01*
X4214016Y9395613D01*
X4395613Y9214016D01*
X4400278Y9208633D01*
X4554177Y9003047D01*
X4558031Y8997050D01*
X4681105Y8771656D01*
X4684068Y8765169D01*
X4773813Y8524554D01*
X4775822Y8517713D01*
X4830410Y8266775D01*
X4831425Y8259713D01*
X4849745Y8003565D01*
X4849745Y7996435D01*
X4831425Y7740287D01*
X4830410Y7733225D01*
X4775822Y7482287D01*
X4773813Y7475446D01*
X4684068Y7234831D01*
X4681106Y7228344D01*
X4558031Y7002951D01*
X4554177Y6996954D01*
X4400278Y6791367D01*
X4395613Y6785984D01*
X4214016Y6604387D01*
X4208633Y6599722D01*
X4003047Y6445823D01*
X3997050Y6441969D01*
X3771656Y6318895D01*
X3765169Y6315932D01*
X3524554Y6226187D01*
X3517713Y6224178D01*
X3266775Y6169590D01*
X3259713Y6168575D01*
X3003565Y6150255D01*
X2996435Y6150255D01*
X2996435Y1427829D01*
X4094975Y329289D01*
X4165685Y300000D01*
X6295106Y300000D01*
X6295106Y1000482D01*
X6119557Y1017772D01*
X6109960Y1019681D01*
X5941157Y1070886D01*
X5932113Y1074633D01*
X5776542Y1157787D01*
X5768410Y1163221D01*
X5632047Y1275132D01*
X5625132Y1282047D01*
X5513221Y1418410D01*
X5507787Y1426542D01*
X5424633Y1582113D01*
X5420886Y1591157D01*
X5369681Y1759960D01*
X5367772Y1769557D01*
X5350241Y1947557D01*
X5350000Y1952450D01*
X5350000Y3447550D01*
X5350241Y3452443D01*
X5367772Y3630443D01*
X5369681Y3640040D01*
X5420886Y3808843D01*
X5424633Y3817887D01*
X5507787Y3973458D01*
X5513221Y3981590D01*
X5625132Y4117953D01*
X5632047Y4124868D01*
X5645106Y4135585D01*
X5645106Y13450482D01*
X5469557Y13467772D01*
X5459960Y13469681D01*
X5291157Y13520886D01*
X5282113Y13524633D01*
X5126542Y13607787D01*
X5118410Y13613221D01*
X4982047Y13725132D01*
X4975132Y13732047D01*
X4863221Y13868410D01*
X4857787Y13876542D01*
X4774633Y14032113D01*
X4770886Y14041157D01*
X4719681Y14209960D01*
X4717772Y14219557D01*
X4700482Y14395106D01*
X4700482Y14404894D01*
X4717772Y14580443D01*
X4719681Y14590040D01*
X4770886Y14758843D01*
X4774633Y14767887D01*
X4857787Y14923458D01*
X4863221Y14931590D01*
X4975132Y15067953D01*
X4982047Y15074868D01*
X5118410Y15186779D01*
X5126542Y15192213D01*
X5282113Y15275367D01*
X5291157Y15279114D01*
X5459960Y15330319D01*
X5469557Y15332228D01*
X5625106Y15347548D01*
X5625106Y17050482D01*
X5449557Y17067772D01*
X5439960Y17069681D01*
X5271157Y17120886D01*
X5262113Y17124633D01*
X5106542Y17207787D01*
X5098410Y17213221D01*
X4962047Y17325132D01*
X4955132Y17332047D01*
X4843221Y17468410D01*
X4837787Y17476542D01*
X4754633Y17632113D01*
X4750886Y17641157D01*
X4699681Y17809960D01*
X4697772Y17819557D01*
X4680482Y17995106D01*
X4680482Y18004894D01*
X4693498Y18137048D01*
X4693498Y27750856D01*
X4564150Y27767885D01*
X4551594Y27771249D01*
X4431055Y27821178D01*
X4419800Y27827676D01*
X4316291Y27907101D01*
X4307101Y27916291D01*
X4227676Y28019800D01*
X4221178Y28031055D01*
X4171249Y28151594D01*
X4167885Y28164150D01*
X4150856Y28293498D01*
X4150856Y28306502D01*
X4167885Y28435850D01*
X4171249Y28448406D01*
X4221178Y28568945D01*
X4227676Y28580200D01*
X4307101Y28683709D01*
X4316291Y28692899D01*
X4419800Y28772324D01*
X4431055Y28778822D01*
X4551594Y28828751D01*
X4564150Y28832115D01*
X4693498Y28849144D01*
X4706502Y28849144D01*
X4835850Y28832115D01*
X4848406Y28828751D01*
X4968945Y28778822D01*
X4980200Y28772324D01*
X5083709Y28692899D01*
X5092899Y28683709D01*
X5172324Y28580200D01*
X5178822Y28568945D01*
X5228751Y28448406D01*
X5232115Y28435850D01*
X5249144Y28306502D01*
X5249144Y28293498D01*
X5232115Y28164150D01*
X5228751Y28151594D01*
X5178822Y28031055D01*
X5172324Y28019800D01*
X5092899Y27916291D01*
X5083709Y27907101D01*
X4980200Y27827676D01*
X4968945Y27821178D01*
X4848406Y27771249D01*
X4835850Y27767885D01*
X4706502Y27750856D01*
X4693498Y27750856D01*
X4693498Y18137048D01*
X4697772Y18180443D01*
X4699681Y18190040D01*
X4750886Y18358843D01*
X4754633Y18367887D01*
X4837787Y18523458D01*
X4843221Y18531590D01*
X4955132Y18667953D01*
X4962047Y18674868D01*
X5098410Y18786779D01*
X5106542Y18792213D01*
X5262113Y18875367D01*
X5271157Y18879114D01*
X5439960Y18930319D01*
X5449557Y18932228D01*
X5625106Y18949518D01*
X5634894Y18949518D01*
X5810443Y18932228D01*
X5820040Y18930319D01*
X5988843Y18879114D01*
X5997887Y18875367D01*
X6153458Y18792213D01*
X6161590Y18786779D01*
X6297953Y18674868D01*
X6304868Y18667953D01*
X6393498Y18559957D01*
X6393498Y20550856D01*
X6264150Y20567885D01*
X6251594Y20571249D01*
X6131055Y20621178D01*
X6119800Y20627676D01*
X6016291Y20707101D01*
X6007101Y20716291D01*
X5927676Y20819800D01*
X5921178Y20831055D01*
X5871249Y20951594D01*
X5867885Y20964150D01*
X5850856Y21093498D01*
X5850856Y21106502D01*
X5867885Y21235850D01*
X5871249Y21248406D01*
X5921178Y21368945D01*
X5927676Y21380200D01*
X6007101Y21483709D01*
X6016291Y21492899D01*
X6119800Y21572324D01*
X6131055Y21578822D01*
X6251594Y21628751D01*
X6264150Y21632115D01*
X6393498Y21649144D01*
X6406502Y21649144D01*
X6535850Y21632115D01*
X6548406Y21628751D01*
X6668945Y21578822D01*
X6680200Y21572324D01*
X6783709Y21492899D01*
X6792899Y21483709D01*
X6872324Y21380200D01*
X6878822Y21368945D01*
X6928751Y21248406D01*
X6932115Y21235850D01*
X6949144Y21106502D01*
X6949144Y21093498D01*
X6932115Y20964150D01*
X6928751Y20951594D01*
X6878822Y20831055D01*
X6872324Y20819800D01*
X6792899Y20716291D01*
X6783709Y20707101D01*
X6680200Y20627676D01*
X6668945Y20621178D01*
X6548406Y20571249D01*
X6535850Y20567885D01*
X6406502Y20550856D01*
X6393498Y20550856D01*
X6393498Y18559957D01*
X6416779Y18531590D01*
X6422213Y18523458D01*
X6505367Y18367887D01*
X6509114Y18358843D01*
X6560319Y18190040D01*
X6562228Y18180443D01*
X6579518Y18004894D01*
X6579518Y17995106D01*
X6562228Y17819557D01*
X6560319Y17809960D01*
X6509114Y17641157D01*
X6505367Y17632113D01*
X6422213Y17476542D01*
X6416779Y17468410D01*
X6304868Y17332047D01*
X6297953Y17325132D01*
X6161590Y17213221D01*
X6153458Y17207787D01*
X5997887Y17124633D01*
X5988843Y17120886D01*
X5820040Y17069681D01*
X5810443Y17067772D01*
X5634894Y17050482D01*
X5625106Y17050482D01*
X5625106Y15347548D01*
X5645106Y15349518D01*
X5654894Y15349518D01*
X5830443Y15332228D01*
X5840040Y15330319D01*
X6008843Y15279114D01*
X6017887Y15275367D01*
X6173458Y15192213D01*
X6181590Y15186779D01*
X6317953Y15074868D01*
X6324868Y15067953D01*
X6436779Y14931590D01*
X6442213Y14923458D01*
X6525367Y14767887D01*
X6529114Y14758843D01*
X6580319Y14590040D01*
X6582228Y14580443D01*
X6599518Y14404894D01*
X6599518Y14395106D01*
X6582228Y14219557D01*
X6580319Y14209960D01*
X6529114Y14041157D01*
X6525367Y14032113D01*
X6442213Y13876542D01*
X6436779Y13868410D01*
X6324868Y13732047D01*
X6317953Y13725132D01*
X6181590Y13613221D01*
X6173458Y13607787D01*
X6017887Y13524633D01*
X6008843Y13520886D01*
X5840040Y13469681D01*
X5830443Y13467772D01*
X5654894Y13450482D01*
X5645106Y13450482D01*
X5645106Y4135585D01*
X5768410Y4236779D01*
X5776542Y4242213D01*
X5932113Y4325367D01*
X5941157Y4329114D01*
X6109960Y4380319D01*
X6119557Y4382228D01*
X6295106Y4399518D01*
X6304894Y4399518D01*
X6480443Y4382228D01*
X6490040Y4380319D01*
X6658843Y4329114D01*
X6667887Y4325367D01*
X6823458Y4242213D01*
X6831590Y4236779D01*
X6967953Y4124868D01*
X6976205Y4116616D01*
X7031944Y4088454D01*
X7117625Y4116616D01*
X7208414Y4207405D01*
X7217137Y4214361D01*
X7349832Y4297739D01*
X7359889Y4302582D01*
X7507801Y4354339D01*
X7518696Y4356826D01*
X7674417Y4374371D01*
X7674417Y6105629D01*
X7518696Y6123174D01*
X7507801Y6125661D01*
X7359889Y6177418D01*
X7349832Y6182261D01*
X7217137Y6265639D01*
X7208414Y6272595D01*
X7097595Y6383414D01*
X7090639Y6392137D01*
X7007261Y6524832D01*
X7002418Y6534889D01*
X6950661Y6682801D01*
X6948174Y6693696D01*
X6930315Y6852201D01*
X6930000Y6857814D01*
X6930000Y7952186D01*
X6930315Y7957799D01*
X6948174Y8116304D01*
X6950661Y8127199D01*
X7002418Y8275111D01*
X7007261Y8285168D01*
X7090639Y8417863D01*
X7097595Y8426586D01*
X7208414Y8537405D01*
X7217137Y8544361D01*
X7349832Y8627739D01*
X7359889Y8632582D01*
X7507801Y8684339D01*
X7518696Y8686826D01*
X7674417Y8704371D01*
X7685583Y8704371D01*
X7841304Y8686826D01*
X7852199Y8684339D01*
X8000111Y8632582D01*
X8010168Y8627739D01*
X8142863Y8544361D01*
X8151586Y8537405D01*
X8185106Y8503885D01*
X8185106Y13450482D01*
X8009557Y13467772D01*
X7999960Y13469681D01*
X7831157Y13520886D01*
X7822113Y13524633D01*
X7666542Y13607787D01*
X7658410Y13613221D01*
X7522047Y13725132D01*
X7515132Y13732047D01*
X7403221Y13868410D01*
X7397787Y13876542D01*
X7314633Y14032113D01*
X7310886Y14041157D01*
X7259681Y14209960D01*
X7257772Y14219557D01*
X7240482Y14395106D01*
X7240482Y14404894D01*
X7257772Y14580443D01*
X7259681Y14590040D01*
X7310886Y14758843D01*
X7314633Y14767887D01*
X7397787Y14923458D01*
X7403221Y14931590D01*
X7515132Y15067953D01*
X7522047Y15074868D01*
X7658410Y15186779D01*
X7666542Y15192213D01*
X7822113Y15275367D01*
X7831157Y15279114D01*
X7999960Y15330319D01*
X8009557Y15332228D01*
X8165106Y15347548D01*
X8165106Y17050482D01*
X7989557Y17067772D01*
X7979960Y17069681D01*
X7811157Y17120886D01*
X7802113Y17124633D01*
X7646542Y17207787D01*
X7638410Y17213221D01*
X7502047Y17325132D01*
X7495132Y17332047D01*
X7383221Y17468410D01*
X7377787Y17476542D01*
X7294633Y17632113D01*
X7290886Y17641157D01*
X7239681Y17809960D01*
X7237772Y17819557D01*
X7220482Y17995106D01*
X7220482Y18004894D01*
X7237772Y18180443D01*
X7239681Y18190040D01*
X7290886Y18358843D01*
X7294633Y18367887D01*
X7377787Y18523458D01*
X7383221Y18531590D01*
X7495132Y18667953D01*
X7502047Y18674868D01*
X7638410Y18786779D01*
X7646542Y18792213D01*
X7802113Y18875367D01*
X7811157Y18879114D01*
X7979960Y18930319D01*
X7989557Y18932228D01*
X7993498Y18932616D01*
X7993498Y34850856D01*
X7864150Y34867885D01*
X7851594Y34871249D01*
X7731055Y34921178D01*
X7719800Y34927676D01*
X7616291Y35007101D01*
X7607101Y35016291D01*
X7527676Y35119800D01*
X7521178Y35131055D01*
X7471249Y35251594D01*
X7467885Y35264150D01*
X7450856Y35393498D01*
X7450856Y35406502D01*
X7467885Y35535850D01*
X7471249Y35548406D01*
X7521178Y35668945D01*
X7527676Y35680200D01*
X7607101Y35783709D01*
X7616291Y35792899D01*
X7719800Y35872324D01*
X7731055Y35878822D01*
X7851594Y35928751D01*
X7864150Y35932115D01*
X7993498Y35949144D01*
X7993498Y37850856D01*
X7864150Y37867885D01*
X7851594Y37871249D01*
X7731055Y37921178D01*
X7719800Y37927676D01*
X7616291Y38007101D01*
X7607101Y38016291D01*
X7527676Y38119800D01*
X7521178Y38131055D01*
X7471249Y38251594D01*
X7467885Y38264150D01*
X7450856Y38393498D01*
X7450856Y38406502D01*
X7467885Y38535850D01*
X7471249Y38548406D01*
X7521178Y38668945D01*
X7527676Y38680200D01*
X7607101Y38783709D01*
X7616291Y38792899D01*
X7719800Y38872324D01*
X7731055Y38878822D01*
X7851594Y38928751D01*
X7864150Y38932115D01*
X7993498Y38949144D01*
X8006502Y38949144D01*
X8135850Y38932115D01*
X8148406Y38928751D01*
X8268945Y38878822D01*
X8280200Y38872324D01*
X8383709Y38792899D01*
X8392899Y38783709D01*
X8472324Y38680200D01*
X8478822Y38668945D01*
X8528751Y38548406D01*
X8532115Y38535850D01*
X8549144Y38406502D01*
X8549144Y38393498D01*
X8532115Y38264150D01*
X8528751Y38251594D01*
X8478822Y38131055D01*
X8472324Y38119800D01*
X8392899Y38016291D01*
X8383709Y38007101D01*
X8280200Y37927676D01*
X8268945Y37921178D01*
X8148406Y37871249D01*
X8135850Y37867885D01*
X8006502Y37850856D01*
X7993498Y37850856D01*
X7993498Y35949144D01*
X8006502Y35949144D01*
X8135850Y35932115D01*
X8148406Y35928751D01*
X8268945Y35878822D01*
X8280200Y35872324D01*
X8383709Y35792899D01*
X8392899Y35783709D01*
X8472324Y35680200D01*
X8478822Y35668945D01*
X8528751Y35548406D01*
X8532115Y35535850D01*
X8549144Y35406502D01*
X8549144Y35393498D01*
X8532115Y35264150D01*
X8528751Y35251594D01*
X8478822Y35131055D01*
X8472324Y35119800D01*
X8392899Y35016291D01*
X8383709Y35007101D01*
X8280200Y34927676D01*
X8268945Y34921178D01*
X8148406Y34871249D01*
X8135850Y34867885D01*
X8006502Y34850856D01*
X7993498Y34850856D01*
X7993498Y18932616D01*
X8165106Y18949518D01*
X8174894Y18949518D01*
X8350443Y18932228D01*
X8360040Y18930319D01*
X8528843Y18879114D01*
X8537887Y18875367D01*
X8693458Y18792213D01*
X8701590Y18786779D01*
X8837953Y18674868D01*
X8844868Y18667953D01*
X8956779Y18531590D01*
X8962213Y18523458D01*
X9045367Y18367887D01*
X9049114Y18358843D01*
X9100319Y18190040D01*
X9102228Y18180443D01*
X9119518Y18004894D01*
X9119518Y17995106D01*
X9102228Y17819557D01*
X9100319Y17809960D01*
X9049114Y17641157D01*
X9045367Y17632113D01*
X8962213Y17476542D01*
X8956779Y17468410D01*
X8844868Y17332047D01*
X8837953Y17325132D01*
X8701590Y17213221D01*
X8693458Y17207787D01*
X8537887Y17124633D01*
X8528843Y17120886D01*
X8360040Y17069681D01*
X8350443Y17067772D01*
X8174894Y17050482D01*
X8165106Y17050482D01*
X8165106Y15347548D01*
X8185106Y15349518D01*
X8194894Y15349518D01*
X8370443Y15332228D01*
X8380040Y15330319D01*
X8548843Y15279114D01*
X8557887Y15275367D01*
X8713458Y15192213D01*
X8721590Y15186779D01*
X8857953Y15074868D01*
X8864868Y15067953D01*
X8976779Y14931590D01*
X8982213Y14923458D01*
X9065367Y14767887D01*
X9069114Y14758843D01*
X9120319Y14590040D01*
X9122228Y14580443D01*
X9139518Y14404894D01*
X9139518Y14395106D01*
X9122228Y14219557D01*
X9120319Y14209960D01*
X9069114Y14041157D01*
X9065367Y14032113D01*
X8982213Y13876542D01*
X8976779Y13868410D01*
X8864868Y13732047D01*
X8857953Y13725132D01*
X8721590Y13613221D01*
X8713458Y13607787D01*
X8557887Y13524633D01*
X8548843Y13520886D01*
X8380040Y13469681D01*
X8370443Y13467772D01*
X8194894Y13450482D01*
X8185106Y13450482D01*
X8185106Y8503885D01*
X8262405Y8426586D01*
X8269361Y8417863D01*
X8352739Y8285168D01*
X8357582Y8275111D01*
X8409339Y8127199D01*
X8411826Y8116304D01*
X8429685Y7957799D01*
X8430000Y7952186D01*
X8430000Y7248696D01*
X8449500Y7189369D01*
X8500395Y7153180D01*
X8562836Y7154242D01*
X8610516Y7193665D01*
X8612035Y7192500D01*
X8699423Y7306385D01*
X8708615Y7315577D01*
X8817301Y7398976D01*
X8828553Y7405472D01*
X8955123Y7457899D01*
X8967679Y7461263D01*
X9103498Y7479144D01*
X9116502Y7479144D01*
X9252321Y7461263D01*
X9264877Y7457899D01*
X9293498Y7446043D01*
X9293498Y9750856D01*
X9164150Y9767885D01*
X9151594Y9771249D01*
X9031055Y9821178D01*
X9019800Y9827676D01*
X8916291Y9907101D01*
X8907101Y9916291D01*
X8827676Y10019800D01*
X8821178Y10031055D01*
X8771249Y10151594D01*
X8767885Y10164150D01*
X8750856Y10293498D01*
X8750856Y10306502D01*
X8767885Y10435850D01*
X8771249Y10448406D01*
X8821178Y10568945D01*
X8827676Y10580200D01*
X8907101Y10683709D01*
X8916291Y10692899D01*
X9019800Y10772324D01*
X9031055Y10778822D01*
X9151594Y10828751D01*
X9164150Y10832115D01*
X9293498Y10849144D01*
X9306502Y10849144D01*
X9435850Y10832115D01*
X9448406Y10828751D01*
X9568945Y10778822D01*
X9580200Y10772324D01*
X9683709Y10692899D01*
X9692899Y10683709D01*
X9772324Y10580200D01*
X9778822Y10568945D01*
X9828751Y10448406D01*
X9832115Y10435850D01*
X9849144Y10306502D01*
X9849144Y10293498D01*
X9832115Y10164150D01*
X9828751Y10151594D01*
X9778822Y10031055D01*
X9772324Y10019800D01*
X9692899Y9916291D01*
X9683709Y9907101D01*
X9580200Y9827676D01*
X9568945Y9821178D01*
X9448406Y9771249D01*
X9435850Y9767885D01*
X9306502Y9750856D01*
X9293498Y9750856D01*
X9293498Y7446043D01*
X9391447Y7405472D01*
X9402699Y7398976D01*
X9511385Y7315577D01*
X9520577Y7306385D01*
X9603976Y7197699D01*
X9610472Y7186447D01*
X9662899Y7059877D01*
X9666263Y7047321D01*
X9684144Y6911502D01*
X9684144Y6898498D01*
X9666263Y6762679D01*
X9662899Y6750123D01*
X9610472Y6623553D01*
X9603976Y6612301D01*
X9520577Y6503615D01*
X9511385Y6494423D01*
X9402699Y6411024D01*
X9391447Y6404528D01*
X9264877Y6352101D01*
X9252321Y6348737D01*
X9116502Y6330856D01*
X9103498Y6330856D01*
X8967679Y6348737D01*
X8955123Y6352101D01*
X8828553Y6404528D01*
X8817301Y6411024D01*
X8708615Y6494423D01*
X8699423Y6503615D01*
X8616024Y6612301D01*
X8609526Y6623555D01*
X8590024Y6670640D01*
X8549306Y6717989D01*
X8488436Y6731948D01*
X8431155Y6707072D01*
X8403250Y6665401D01*
X8357581Y6534886D01*
X8352739Y6524832D01*
X8269361Y6392137D01*
X8262405Y6383414D01*
X8151586Y6272595D01*
X8142863Y6265639D01*
X8010168Y6182261D01*
X8000111Y6177418D01*
X7852199Y6125661D01*
X7841304Y6123174D01*
X7685583Y6105629D01*
X7674417Y6105629D01*
X7674417Y4374371D01*
X7685583Y4374371D01*
X7841304Y4356826D01*
X7852199Y4354339D01*
X8000111Y4302582D01*
X8010168Y4297739D01*
X8142863Y4214361D01*
X8151586Y4207405D01*
X8262405Y4096586D01*
X8269361Y4087863D01*
X8352739Y3955168D01*
X8357582Y3945111D01*
X8409339Y3797199D01*
X8411826Y3786304D01*
X8429685Y3627799D01*
X8430000Y3622186D01*
X8430000Y2827814D01*
X8429685Y2822201D01*
X8411826Y2663696D01*
X8409339Y2652801D01*
X8357582Y2504889D01*
X8352739Y2494832D01*
X8269361Y2362137D01*
X8262405Y2353414D01*
X8151586Y2242595D01*
X8142863Y2235639D01*
X8010168Y2152261D01*
X8000111Y2147418D01*
X7852199Y2095661D01*
X7841304Y2093174D01*
X7685583Y2075629D01*
X7674417Y2075629D01*
X7518696Y2093174D01*
X7507804Y2095661D01*
X7383027Y2139322D01*
X7320588Y2140511D01*
X7269620Y2104425D01*
X7250000Y2044935D01*
X7250000Y1952450D01*
X7249759Y1947557D01*
X7232228Y1769557D01*
X7230319Y1759960D01*
X7179114Y1591157D01*
X7175367Y1582113D01*
X7092213Y1426542D01*
X7086779Y1418410D01*
X6974868Y1282047D01*
X6967953Y1275132D01*
X6831590Y1163221D01*
X6823458Y1157787D01*
X6667887Y1074633D01*
X6658843Y1070886D01*
X6490040Y1019681D01*
X6480443Y1017772D01*
X6304894Y1000482D01*
X6295106Y1000482D01*
X6295106Y300000D01*
X9745106Y300000D01*
X9745106Y1700482D01*
X9559803Y1718733D01*
X9550206Y1720642D01*
X9372023Y1774692D01*
X9362979Y1778439D01*
X9198764Y1866213D01*
X9190632Y1871647D01*
X9046691Y1989776D01*
X9039776Y1996691D01*
X8921647Y2140632D01*
X8916213Y2148764D01*
X8828439Y2312979D01*
X8824692Y2322023D01*
X8770642Y2500206D01*
X8768733Y2509803D01*
X8750482Y2695106D01*
X8750482Y2704894D01*
X8768733Y2890197D01*
X8770642Y2899794D01*
X8824692Y3077977D01*
X8828439Y3087021D01*
X8916213Y3251236D01*
X8921647Y3259368D01*
X9039776Y3403309D01*
X9046691Y3410224D01*
X9190632Y3528353D01*
X9198764Y3533787D01*
X9362979Y3621561D01*
X9372023Y3625308D01*
X9550206Y3679358D01*
X9559803Y3681267D01*
X9745106Y3699518D01*
X9754894Y3699518D01*
X9940197Y3681267D01*
X9949794Y3679358D01*
X10127977Y3625308D01*
X10137021Y3621561D01*
X10301236Y3533787D01*
X10309368Y3528353D01*
X10453309Y3410224D01*
X10460224Y3403309D01*
X10578353Y3259368D01*
X10583787Y3251236D01*
X10671561Y3087021D01*
X10675308Y3077977D01*
X10725106Y2913811D01*
X10725106Y13450482D01*
X10549557Y13467772D01*
X10539960Y13469681D01*
X10371157Y13520886D01*
X10362113Y13524633D01*
X10206542Y13607787D01*
X10198410Y13613221D01*
X10062047Y13725132D01*
X10055132Y13732047D01*
X9943221Y13868410D01*
X9937787Y13876542D01*
X9854633Y14032113D01*
X9850886Y14041157D01*
X9799681Y14209960D01*
X9797772Y14219557D01*
X9780482Y14395106D01*
X9780482Y14404894D01*
X9797772Y14580443D01*
X9799681Y14590040D01*
X9850886Y14758843D01*
X9854633Y14767887D01*
X9901681Y14855908D01*
X9901681Y17339103D01*
X9897216Y17339857D01*
X9896616Y17340321D01*
X9875195Y17363819D01*
X9869650Y17371162D01*
X9772509Y17528051D01*
X9768411Y17536281D01*
X9701755Y17708337D01*
X9699232Y17717205D01*
X9665328Y17898574D01*
X9664479Y17907739D01*
X9664479Y18092261D01*
X9665328Y18101426D01*
X9699232Y18282795D01*
X9701755Y18291663D01*
X9768411Y18463719D01*
X9772509Y18471949D01*
X9869650Y18628838D01*
X9875195Y18636181D01*
X9891683Y18654268D01*
X9903497Y18660939D01*
X9907993Y18660392D01*
X9908617Y18659954D01*
X10114877Y18453694D01*
X10034273Y18325413D01*
X9978804Y18166891D01*
X9960000Y18000000D01*
X9978804Y17833109D01*
X10034273Y17674587D01*
X10114877Y17546306D01*
X9913793Y17345222D01*
X9901681Y17339103D01*
X9901681Y14855908D01*
X9937787Y14923458D01*
X9943221Y14931590D01*
X10055132Y15067953D01*
X10062047Y15074868D01*
X10198410Y15186779D01*
X10206542Y15192213D01*
X10362113Y15275367D01*
X10371157Y15279114D01*
X10539960Y15330319D01*
X10549557Y15332228D01*
X10705392Y15347576D01*
X10705392Y16950427D01*
X10521668Y16967451D01*
X10512619Y16969143D01*
X10335145Y17019638D01*
X10326551Y17022968D01*
X10161387Y17105210D01*
X10153557Y17110057D01*
X10056903Y17183048D01*
X10049171Y17194195D01*
X10049230Y17196256D01*
X10051920Y17200491D01*
X10256306Y17404877D01*
X10256306Y18595123D01*
X10055449Y18795980D01*
X10049330Y18808092D01*
X10049672Y18810121D01*
X10052923Y18813946D01*
X10093498Y18844587D01*
X10093498Y29250856D01*
X9964150Y29267885D01*
X9951594Y29271249D01*
X9831055Y29321178D01*
X9819800Y29327676D01*
X9716291Y29407101D01*
X9707101Y29416291D01*
X9627676Y29519800D01*
X9621178Y29531055D01*
X9571249Y29651594D01*
X9567885Y29664150D01*
X9550856Y29793498D01*
X9550856Y29806502D01*
X9567885Y29935850D01*
X9571249Y29948406D01*
X9621178Y30068945D01*
X9627676Y30080200D01*
X9707101Y30183709D01*
X9716291Y30192899D01*
X9819800Y30272324D01*
X9831055Y30278822D01*
X9951594Y30328751D01*
X9964150Y30332115D01*
X10093498Y30349144D01*
X10106502Y30349144D01*
X10235850Y30332115D01*
X10248406Y30328751D01*
X10368945Y30278822D01*
X10380200Y30272324D01*
X10483709Y30192899D01*
X10492899Y30183709D01*
X10572324Y30080200D01*
X10578822Y30068945D01*
X10628751Y29948406D01*
X10632115Y29935850D01*
X10649144Y29806502D01*
X10649144Y29793498D01*
X10632115Y29664150D01*
X10628751Y29651594D01*
X10578822Y29531055D01*
X10572324Y29519800D01*
X10492899Y29416291D01*
X10483709Y29407101D01*
X10380200Y29327676D01*
X10368945Y29321178D01*
X10248406Y29271249D01*
X10235850Y29267885D01*
X10106502Y29250856D01*
X10093498Y29250856D01*
X10093498Y18844587D01*
X10153557Y18889943D01*
X10161387Y18894790D01*
X10326551Y18977032D01*
X10335145Y18980362D01*
X10512619Y19030857D01*
X10521668Y19032549D01*
X10705392Y19049573D01*
X10714608Y19049573D01*
X10898332Y19032549D01*
X10907381Y19030857D01*
X11084855Y18980362D01*
X11093449Y18977032D01*
X11258613Y18894790D01*
X11266443Y18889943D01*
X11363097Y18816952D01*
X11370829Y18805805D01*
X11370770Y18803744D01*
X11368080Y18799509D01*
X11163694Y18595123D01*
X11035413Y18675727D01*
X10876891Y18731196D01*
X10710000Y18750000D01*
X10543109Y18731196D01*
X10384587Y18675727D01*
X10256306Y18595123D01*
X10256306Y17404877D01*
X10384587Y17324273D01*
X10543109Y17268804D01*
X10710000Y17250000D01*
X10876891Y17268804D01*
X11035413Y17324273D01*
X11163694Y17404877D01*
X11364551Y17204020D01*
X11370670Y17191908D01*
X11370328Y17189879D01*
X11367077Y17186054D01*
X11266443Y17110057D01*
X11258613Y17105210D01*
X11093449Y17022968D01*
X11084855Y17019638D01*
X10907381Y16969143D01*
X10898332Y16967451D01*
X10714608Y16950427D01*
X10705392Y16950427D01*
X10705392Y15347576D01*
X10725106Y15349518D01*
X10734894Y15349518D01*
X10910443Y15332228D01*
X10920040Y15330319D01*
X11088843Y15279114D01*
X11097887Y15275367D01*
X11253458Y15192213D01*
X11261590Y15186779D01*
X11397953Y15074868D01*
X11404868Y15067953D01*
X11516503Y14931926D01*
X11516503Y17339061D01*
X11512007Y17339608D01*
X11511383Y17340046D01*
X11305123Y17546306D01*
X11385727Y17674587D01*
X11441196Y17833109D01*
X11460000Y18000000D01*
X11441196Y18166891D01*
X11385727Y18325413D01*
X11305123Y18453694D01*
X11393498Y18542069D01*
X11393498Y28850856D01*
X11264150Y28867885D01*
X11251594Y28871249D01*
X11131055Y28921178D01*
X11119800Y28927676D01*
X11016291Y29007101D01*
X11007101Y29016291D01*
X10927676Y29119800D01*
X10921178Y29131055D01*
X10871249Y29251594D01*
X10867885Y29264150D01*
X10850856Y29393498D01*
X10850856Y29406502D01*
X10867885Y29535850D01*
X10871249Y29548406D01*
X10921178Y29668945D01*
X10927676Y29680200D01*
X11007101Y29783709D01*
X11016291Y29792899D01*
X11119800Y29872324D01*
X11131055Y29878822D01*
X11251594Y29928751D01*
X11264150Y29932115D01*
X11393498Y29949144D01*
X11406502Y29949144D01*
X11535850Y29932115D01*
X11548406Y29928751D01*
X11668945Y29878822D01*
X11680200Y29872324D01*
X11783709Y29792899D01*
X11792899Y29783709D01*
X11872324Y29680200D01*
X11878822Y29668945D01*
X11928751Y29548406D01*
X11932115Y29535850D01*
X11949144Y29406502D01*
X11949144Y29393498D01*
X11932115Y29264150D01*
X11928751Y29251594D01*
X11878822Y29131055D01*
X11872324Y29119800D01*
X11792899Y29016291D01*
X11783709Y29007101D01*
X11680200Y28927676D01*
X11668945Y28921178D01*
X11548406Y28871249D01*
X11535850Y28867885D01*
X11406502Y28850856D01*
X11393498Y28850856D01*
X11393498Y18542069D01*
X11506207Y18654778D01*
X11518319Y18660897D01*
X11522784Y18660143D01*
X11523384Y18659679D01*
X11544805Y18636181D01*
X11550350Y18628838D01*
X11647491Y18471949D01*
X11651589Y18463719D01*
X11718245Y18291663D01*
X11720768Y18282795D01*
X11754672Y18101426D01*
X11755521Y18092261D01*
X11755521Y17907739D01*
X11754672Y17898574D01*
X11720768Y17717205D01*
X11718245Y17708337D01*
X11651589Y17536281D01*
X11647491Y17528051D01*
X11550350Y17371162D01*
X11544805Y17363819D01*
X11528317Y17345732D01*
X11516503Y17339061D01*
X11516503Y14931926D01*
X11516779Y14931590D01*
X11522213Y14923458D01*
X11605367Y14767887D01*
X11609114Y14758843D01*
X11660319Y14590040D01*
X11662228Y14580443D01*
X11679518Y14404894D01*
X11679518Y14395106D01*
X11662228Y14219557D01*
X11660319Y14209960D01*
X11609114Y14041157D01*
X11605367Y14032113D01*
X11522213Y13876542D01*
X11516779Y13868410D01*
X11404868Y13732047D01*
X11397953Y13725132D01*
X11261590Y13613221D01*
X11253458Y13607787D01*
X11097887Y13524633D01*
X11088843Y13520886D01*
X10920040Y13469681D01*
X10910443Y13467772D01*
X10734894Y13450482D01*
X10725106Y13450482D01*
X10725106Y2913811D01*
X10729358Y2899794D01*
X10731267Y2890197D01*
X10749518Y2704894D01*
X10749518Y2695106D01*
X10731267Y2509803D01*
X10729358Y2500206D01*
X10675308Y2322023D01*
X10671561Y2312979D01*
X10583787Y2148764D01*
X10578353Y2140632D01*
X10460224Y1996691D01*
X10453309Y1989776D01*
X10309368Y1871647D01*
X10301236Y1866213D01*
X10137021Y1778439D01*
X10127977Y1774692D01*
X9949794Y1720642D01*
X9940197Y1718733D01*
X9754894Y1700482D01*
X9745106Y1700482D01*
X9745106Y300000D01*
X11493498Y300000D01*
X11493498Y8850856D01*
X11364150Y8867885D01*
X11351594Y8871249D01*
X11231055Y8921178D01*
X11219800Y8927676D01*
X11116291Y9007101D01*
X11107101Y9016291D01*
X11027676Y9119800D01*
X11021178Y9131055D01*
X10971249Y9251594D01*
X10967885Y9264150D01*
X10950856Y9393498D01*
X10950856Y9406502D01*
X10967885Y9535850D01*
X10971249Y9548406D01*
X11021178Y9668945D01*
X11027676Y9680200D01*
X11107101Y9783709D01*
X11116291Y9792899D01*
X11219800Y9872324D01*
X11231055Y9878822D01*
X11351594Y9928751D01*
X11364150Y9932115D01*
X11493498Y9949144D01*
X11506502Y9949144D01*
X11635850Y9932115D01*
X11648406Y9928751D01*
X11768945Y9878822D01*
X11780200Y9872324D01*
X11883709Y9792899D01*
X11892899Y9783709D01*
X11972324Y9680200D01*
X11978822Y9668945D01*
X12028751Y9548406D01*
X12032115Y9535850D01*
X12049144Y9406502D01*
X12049144Y9393498D01*
X12032115Y9264150D01*
X12028751Y9251594D01*
X11978822Y9131055D01*
X11972324Y9119800D01*
X11892899Y9016291D01*
X11883709Y9007101D01*
X11780200Y8927676D01*
X11768945Y8921178D01*
X11648406Y8871249D01*
X11635850Y8867885D01*
X11506502Y8850856D01*
X11493498Y8850856D01*
X11493498Y300000D01*
X12293498Y300000D01*
X12293498Y6150856D01*
X12164150Y6167885D01*
X12151594Y6171249D01*
X12031055Y6221178D01*
X12019800Y6227676D01*
X11916291Y6307101D01*
X11907101Y6316291D01*
X11827676Y6419800D01*
X11821178Y6431055D01*
X11771249Y6551594D01*
X11767885Y6564150D01*
X11750856Y6693498D01*
X11750856Y6706502D01*
X11767885Y6835850D01*
X11771249Y6848406D01*
X11821178Y6968945D01*
X11827676Y6980200D01*
X11907101Y7083709D01*
X11916291Y7092899D01*
X12019800Y7172324D01*
X12031055Y7178822D01*
X12151594Y7228751D01*
X12164150Y7232115D01*
X12293498Y7249144D01*
X12306502Y7249144D01*
X12435850Y7232115D01*
X12448406Y7228751D01*
X12568945Y7178822D01*
X12580200Y7172324D01*
X12683709Y7092899D01*
X12692899Y7083709D01*
X12772324Y6980200D01*
X12778822Y6968945D01*
X12828751Y6848406D01*
X12832115Y6835850D01*
X12849144Y6706502D01*
X12849144Y6693498D01*
X12832115Y6564150D01*
X12828751Y6551594D01*
X12778822Y6431055D01*
X12772324Y6419800D01*
X12692899Y6316291D01*
X12683709Y6307101D01*
X12580200Y6227676D01*
X12568945Y6221178D01*
X12448406Y6171249D01*
X12435850Y6167885D01*
X12306502Y6150856D01*
X12293498Y6150856D01*
X12293498Y300000D01*
X14245106Y300000D01*
X14245106Y1700482D01*
X14059803Y1718733D01*
X14050206Y1720642D01*
X13872023Y1774692D01*
X13862979Y1778439D01*
X13698764Y1866213D01*
X13690632Y1871647D01*
X13546691Y1989776D01*
X13539776Y1996691D01*
X13421647Y2140632D01*
X13416213Y2148764D01*
X13328439Y2312979D01*
X13324692Y2322023D01*
X13270642Y2500206D01*
X13268733Y2509803D01*
X13250482Y2695106D01*
X13250482Y2704894D01*
X13265106Y2853371D01*
X13265106Y13450482D01*
X13089557Y13467772D01*
X13079960Y13469681D01*
X12911157Y13520886D01*
X12902113Y13524633D01*
X12746542Y13607787D01*
X12738410Y13613221D01*
X12602047Y13725132D01*
X12595132Y13732047D01*
X12483221Y13868410D01*
X12477787Y13876542D01*
X12394633Y14032113D01*
X12390886Y14041157D01*
X12339681Y14209960D01*
X12337772Y14219557D01*
X12320482Y14395106D01*
X12320482Y14404894D01*
X12337772Y14580443D01*
X12339681Y14590040D01*
X12390886Y14758843D01*
X12394633Y14767887D01*
X12477787Y14923458D01*
X12483221Y14931590D01*
X12595132Y15067953D01*
X12602047Y15074868D01*
X12738410Y15186779D01*
X12746542Y15192213D01*
X12902113Y15275367D01*
X12911157Y15279114D01*
X12993498Y15304091D01*
X12993498Y27950856D01*
X12864150Y27967885D01*
X12851594Y27971249D01*
X12731055Y28021178D01*
X12719800Y28027676D01*
X12616291Y28107101D01*
X12607101Y28116291D01*
X12527676Y28219800D01*
X12521178Y28231055D01*
X12471249Y28351594D01*
X12467885Y28364150D01*
X12450856Y28493498D01*
X12450856Y28506502D01*
X12467885Y28635850D01*
X12471249Y28648406D01*
X12521178Y28768945D01*
X12527676Y28780200D01*
X12607101Y28883709D01*
X12616291Y28892899D01*
X12719800Y28972324D01*
X12731055Y28978822D01*
X12851594Y29028751D01*
X12864150Y29032115D01*
X12993498Y29049144D01*
X13006502Y29049144D01*
X13135850Y29032115D01*
X13148406Y29028751D01*
X13268945Y28978822D01*
X13280200Y28972324D01*
X13293498Y28962120D01*
X13293498Y34850856D01*
X13164150Y34867885D01*
X13151594Y34871249D01*
X13031055Y34921178D01*
X13019800Y34927676D01*
X12916291Y35007101D01*
X12907101Y35016291D01*
X12827676Y35119800D01*
X12821178Y35131055D01*
X12771249Y35251594D01*
X12767885Y35264150D01*
X12750856Y35393498D01*
X12750856Y35406502D01*
X12767885Y35535850D01*
X12771249Y35548406D01*
X12821178Y35668945D01*
X12827676Y35680200D01*
X12907101Y35783709D01*
X12916291Y35792899D01*
X13019800Y35872324D01*
X13031055Y35878822D01*
X13151594Y35928751D01*
X13164150Y35932115D01*
X13293498Y35949144D01*
X13293498Y37850856D01*
X13164150Y37867885D01*
X13151594Y37871249D01*
X13031055Y37921178D01*
X13019800Y37927676D01*
X12916291Y38007101D01*
X12907101Y38016291D01*
X12827676Y38119800D01*
X12821178Y38131055D01*
X12771249Y38251594D01*
X12767885Y38264150D01*
X12750856Y38393498D01*
X12750856Y38406502D01*
X12767885Y38535850D01*
X12771249Y38548406D01*
X12821178Y38668945D01*
X12827676Y38680200D01*
X12907101Y38783709D01*
X12916291Y38792899D01*
X13019800Y38872324D01*
X13031055Y38878822D01*
X13151594Y38928751D01*
X13164150Y38932115D01*
X13293498Y38949144D01*
X13306502Y38949144D01*
X13435850Y38932115D01*
X13448406Y38928751D01*
X13568945Y38878822D01*
X13580200Y38872324D01*
X13683709Y38792899D01*
X13692899Y38783709D01*
X13772324Y38680200D01*
X13778822Y38668945D01*
X13828751Y38548406D01*
X13832115Y38535850D01*
X13849144Y38406502D01*
X13849144Y38393498D01*
X13832115Y38264150D01*
X13828751Y38251594D01*
X13778822Y38131055D01*
X13772324Y38119800D01*
X13692899Y38016291D01*
X13683709Y38007101D01*
X13580200Y37927676D01*
X13568945Y37921178D01*
X13448406Y37871249D01*
X13435850Y37867885D01*
X13306502Y37850856D01*
X13293498Y37850856D01*
X13293498Y35949144D01*
X13306502Y35949144D01*
X13435850Y35932115D01*
X13448406Y35928751D01*
X13568945Y35878822D01*
X13580200Y35872324D01*
X13683709Y35792899D01*
X13692899Y35783709D01*
X13772324Y35680200D01*
X13778822Y35668945D01*
X13828751Y35548406D01*
X13832115Y35535850D01*
X13849144Y35406502D01*
X13849144Y35393498D01*
X13832115Y35264150D01*
X13828751Y35251594D01*
X13778822Y35131055D01*
X13772324Y35119800D01*
X13692899Y35016291D01*
X13683709Y35007101D01*
X13580200Y34927676D01*
X13568945Y34921178D01*
X13448406Y34871249D01*
X13435850Y34867885D01*
X13306502Y34850856D01*
X13293498Y34850856D01*
X13293498Y28962120D01*
X13383709Y28892899D01*
X13392901Y28883707D01*
X13420666Y28847523D01*
X13472252Y28812327D01*
X13534660Y28814599D01*
X13579334Y28847523D01*
X13607099Y28883707D01*
X13616291Y28892899D01*
X13719800Y28972324D01*
X13731055Y28978822D01*
X13851594Y29028751D01*
X13864150Y29032115D01*
X13993498Y29049144D01*
X14006502Y29049144D01*
X14135850Y29032115D01*
X14148406Y29028751D01*
X14268945Y28978822D01*
X14280200Y28972324D01*
X14383709Y28892899D01*
X14392901Y28883707D01*
X14420666Y28847523D01*
X14472252Y28812327D01*
X14534660Y28814599D01*
X14579334Y28847523D01*
X14607099Y28883707D01*
X14616291Y28892899D01*
X14719800Y28972324D01*
X14731055Y28978822D01*
X14851594Y29028751D01*
X14864150Y29032115D01*
X14993498Y29049144D01*
X15006502Y29049144D01*
X15135850Y29032115D01*
X15148406Y29028751D01*
X15268945Y28978822D01*
X15280200Y28972324D01*
X15383709Y28892899D01*
X15392901Y28883707D01*
X15420666Y28847523D01*
X15472252Y28812327D01*
X15534660Y28814599D01*
X15579334Y28847523D01*
X15607099Y28883707D01*
X15616291Y28892899D01*
X15719800Y28972324D01*
X15731055Y28978822D01*
X15851594Y29028751D01*
X15864150Y29032115D01*
X15993498Y29049144D01*
X16006502Y29049144D01*
X16135850Y29032115D01*
X16148406Y29028751D01*
X16268945Y28978822D01*
X16280200Y28972324D01*
X16383709Y28892899D01*
X16392899Y28883709D01*
X16472324Y28780200D01*
X16478822Y28768945D01*
X16528751Y28648406D01*
X16532115Y28635850D01*
X16549144Y28506502D01*
X16549144Y28493498D01*
X16532115Y28364150D01*
X16528751Y28351594D01*
X16478822Y28231055D01*
X16472324Y28219800D01*
X16392899Y28116291D01*
X16383709Y28107101D01*
X16280200Y28027676D01*
X16268945Y28021178D01*
X16148406Y27971249D01*
X16135850Y27967885D01*
X16006502Y27950856D01*
X15993498Y27950856D01*
X15864150Y27967885D01*
X15851594Y27971249D01*
X15731055Y28021178D01*
X15719800Y28027676D01*
X15616291Y28107101D01*
X15607099Y28116293D01*
X15579334Y28152477D01*
X15527748Y28187673D01*
X15465340Y28185401D01*
X15420666Y28152477D01*
X15392901Y28116293D01*
X15383709Y28107101D01*
X15280200Y28027676D01*
X15268945Y28021178D01*
X15148406Y27971249D01*
X15135850Y27967885D01*
X15006502Y27950856D01*
X14993498Y27950856D01*
X14864150Y27967885D01*
X14851594Y27971249D01*
X14731055Y28021178D01*
X14719800Y28027676D01*
X14616291Y28107101D01*
X14607099Y28116293D01*
X14579334Y28152477D01*
X14527748Y28187673D01*
X14465340Y28185401D01*
X14420666Y28152477D01*
X14392901Y28116293D01*
X14383709Y28107101D01*
X14280200Y28027676D01*
X14268945Y28021178D01*
X14148406Y27971249D01*
X14135850Y27967885D01*
X14006502Y27950856D01*
X13993498Y27950856D01*
X13864150Y27967885D01*
X13851594Y27971249D01*
X13731055Y28021178D01*
X13719800Y28027676D01*
X13616291Y28107101D01*
X13607099Y28116293D01*
X13579334Y28152477D01*
X13527748Y28187673D01*
X13465340Y28185401D01*
X13420666Y28152477D01*
X13392901Y28116293D01*
X13383709Y28107101D01*
X13280200Y28027676D01*
X13268945Y28021178D01*
X13148406Y27971249D01*
X13135850Y27967885D01*
X13006502Y27950856D01*
X12993498Y27950856D01*
X12993498Y15304091D01*
X13079960Y15330319D01*
X13089557Y15332228D01*
X13265106Y15349518D01*
X13274894Y15349518D01*
X13450443Y15332228D01*
X13460040Y15330319D01*
X13628843Y15279114D01*
X13637887Y15275367D01*
X13793458Y15192213D01*
X13801590Y15186779D01*
X13937953Y15074868D01*
X13944868Y15067953D01*
X14056779Y14931590D01*
X14062213Y14923458D01*
X14145367Y14767887D01*
X14149114Y14758843D01*
X14200319Y14590040D01*
X14202228Y14580443D01*
X14219518Y14404894D01*
X14219518Y14395106D01*
X14202228Y14219557D01*
X14200319Y14209960D01*
X14149114Y14041157D01*
X14145367Y14032113D01*
X14062213Y13876542D01*
X14056779Y13868410D01*
X13944868Y13732047D01*
X13937953Y13725132D01*
X13801590Y13613221D01*
X13793458Y13607787D01*
X13637887Y13524633D01*
X13628843Y13520886D01*
X13460040Y13469681D01*
X13450443Y13467772D01*
X13274894Y13450482D01*
X13265106Y13450482D01*
X13265106Y2853371D01*
X13268733Y2890197D01*
X13270642Y2899794D01*
X13324692Y3077977D01*
X13328439Y3087021D01*
X13416213Y3251236D01*
X13421647Y3259368D01*
X13539776Y3403309D01*
X13546691Y3410224D01*
X13690632Y3528353D01*
X13698764Y3533787D01*
X13862979Y3621561D01*
X13872023Y3625308D01*
X14050206Y3679358D01*
X14059803Y3681267D01*
X14245106Y3699518D01*
X14254894Y3699518D01*
X14440197Y3681267D01*
X14449794Y3679358D01*
X14627977Y3625308D01*
X14637021Y3621561D01*
X14801236Y3533787D01*
X14809368Y3528353D01*
X14953309Y3410224D01*
X14960224Y3403309D01*
X15078353Y3259368D01*
X15083787Y3251236D01*
X15171561Y3087021D01*
X15175308Y3077977D01*
X15229358Y2899794D01*
X15231267Y2890197D01*
X15249518Y2704894D01*
X15249518Y2695106D01*
X15231267Y2509803D01*
X15229358Y2500206D01*
X15175308Y2322023D01*
X15171561Y2312979D01*
X15083787Y2148764D01*
X15078353Y2140632D01*
X14960224Y1996691D01*
X14953309Y1989776D01*
X14809368Y1871647D01*
X14801236Y1866213D01*
X14637021Y1778439D01*
X14627977Y1774692D01*
X14449794Y1720642D01*
X14440197Y1718733D01*
X14254894Y1700482D01*
X14245106Y1700482D01*
X14245106Y300000D01*
X17695106Y300000D01*
X17695106Y1000482D01*
X17519557Y1017772D01*
X17509960Y1019681D01*
X17341157Y1070886D01*
X17332113Y1074633D01*
X17176542Y1157787D01*
X17168410Y1163221D01*
X17032047Y1275132D01*
X17025132Y1282047D01*
X16913221Y1418410D01*
X16907787Y1426542D01*
X16824633Y1582113D01*
X16820886Y1591157D01*
X16769681Y1759960D01*
X16767772Y1769557D01*
X16750241Y1947557D01*
X16750000Y1952450D01*
X16750000Y2044935D01*
X16730500Y2104262D01*
X16679605Y2140451D01*
X16616973Y2139322D01*
X16492196Y2095661D01*
X16481304Y2093174D01*
X16325583Y2075629D01*
X16314417Y2075629D01*
X16158696Y2093174D01*
X16147801Y2095661D01*
X15999889Y2147418D01*
X15989832Y2152261D01*
X15857137Y2235639D01*
X15848414Y2242595D01*
X15737595Y2353414D01*
X15730639Y2362137D01*
X15647261Y2494832D01*
X15642418Y2504889D01*
X15590661Y2652801D01*
X15588174Y2663696D01*
X15570315Y2822201D01*
X15570000Y2827814D01*
X15570000Y3622186D01*
X15570315Y3627799D01*
X15588174Y3786304D01*
X15590661Y3797199D01*
X15642418Y3945111D01*
X15647261Y3955168D01*
X15730639Y4087863D01*
X15737595Y4096586D01*
X15848414Y4207405D01*
X15857137Y4214361D01*
X15989832Y4297739D01*
X15999889Y4302582D01*
X16147801Y4354339D01*
X16158696Y4356826D01*
X16314417Y4374371D01*
X16314417Y6105629D01*
X16158696Y6123174D01*
X16147801Y6125661D01*
X15999889Y6177418D01*
X15989832Y6182261D01*
X15857137Y6265639D01*
X15848414Y6272595D01*
X15737595Y6383414D01*
X15730639Y6392137D01*
X15647261Y6524832D01*
X15642419Y6534886D01*
X15596750Y6665401D01*
X15558750Y6714958D01*
X15498759Y6732307D01*
X15440173Y6710681D01*
X15409976Y6670640D01*
X15390474Y6623555D01*
X15383976Y6612301D01*
X15300577Y6503615D01*
X15291385Y6494423D01*
X15182699Y6411024D01*
X15171447Y6404528D01*
X15044877Y6352101D01*
X15032321Y6348737D01*
X14896502Y6330856D01*
X14883498Y6330856D01*
X14747679Y6348737D01*
X14735123Y6352101D01*
X14608553Y6404528D01*
X14597301Y6411024D01*
X14488615Y6494423D01*
X14479423Y6503615D01*
X14396024Y6612301D01*
X14389528Y6623553D01*
X14337101Y6750123D01*
X14333737Y6762679D01*
X14315856Y6898498D01*
X14315856Y6911502D01*
X14333737Y7047321D01*
X14337101Y7059877D01*
X14389528Y7186447D01*
X14393498Y7193323D01*
X14393498Y8750856D01*
X14264150Y8767885D01*
X14251594Y8771249D01*
X14131055Y8821178D01*
X14119800Y8827676D01*
X14016291Y8907101D01*
X14007101Y8916291D01*
X13927676Y9019800D01*
X13921178Y9031055D01*
X13871249Y9151594D01*
X13867885Y9164150D01*
X13850856Y9293498D01*
X13850856Y9306502D01*
X13867885Y9435850D01*
X13871249Y9448406D01*
X13921178Y9568945D01*
X13927676Y9580200D01*
X13989469Y9660731D01*
X14010114Y9719669D01*
X13991767Y9779363D01*
X13948401Y9813994D01*
X13931051Y9821180D01*
X13919800Y9827676D01*
X13816291Y9907101D01*
X13807101Y9916291D01*
X13727676Y10019800D01*
X13721178Y10031055D01*
X13671249Y10151594D01*
X13667885Y10164150D01*
X13650856Y10293498D01*
X13650856Y10306502D01*
X13667885Y10435850D01*
X13671249Y10448406D01*
X13721178Y10568945D01*
X13727676Y10580200D01*
X13807101Y10683709D01*
X13816291Y10692899D01*
X13919800Y10772324D01*
X13931055Y10778822D01*
X14051594Y10828751D01*
X14064150Y10832115D01*
X14193498Y10849144D01*
X14206502Y10849144D01*
X14335850Y10832115D01*
X14348406Y10828751D01*
X14468945Y10778822D01*
X14480200Y10772324D01*
X14583709Y10692899D01*
X14592899Y10683709D01*
X14672324Y10580200D01*
X14678822Y10568945D01*
X14728751Y10448406D01*
X14732115Y10435850D01*
X14749144Y10306502D01*
X14749144Y10293498D01*
X14732115Y10164150D01*
X14728751Y10151594D01*
X14678822Y10031055D01*
X14672324Y10019800D01*
X14610531Y9939269D01*
X14589886Y9880331D01*
X14608233Y9820637D01*
X14651599Y9786006D01*
X14668949Y9778820D01*
X14680200Y9772324D01*
X14783709Y9692899D01*
X14792899Y9683709D01*
X14872324Y9580200D01*
X14878822Y9568945D01*
X14928751Y9448406D01*
X14932115Y9435850D01*
X14949144Y9306502D01*
X14949144Y9293498D01*
X14932115Y9164150D01*
X14928751Y9151594D01*
X14878822Y9031055D01*
X14872324Y9019800D01*
X14792899Y8916291D01*
X14783709Y8907101D01*
X14680200Y8827676D01*
X14668945Y8821178D01*
X14548406Y8771249D01*
X14535850Y8767885D01*
X14406502Y8750856D01*
X14393498Y8750856D01*
X14393498Y7193323D01*
X14396024Y7197699D01*
X14479423Y7306385D01*
X14488615Y7315577D01*
X14597301Y7398976D01*
X14608553Y7405472D01*
X14735123Y7457899D01*
X14747679Y7461263D01*
X14883498Y7479144D01*
X14896502Y7479144D01*
X15032321Y7461263D01*
X15044877Y7457899D01*
X15171447Y7405472D01*
X15182699Y7398976D01*
X15291385Y7315577D01*
X15300577Y7306385D01*
X15387965Y7192500D01*
X15389237Y7193476D01*
X15429950Y7157068D01*
X15492121Y7151174D01*
X15545665Y7183315D01*
X15570000Y7248696D01*
X15570000Y7952186D01*
X15570315Y7957799D01*
X15588174Y8116304D01*
X15590661Y8127199D01*
X15642418Y8275111D01*
X15647261Y8285168D01*
X15730639Y8417863D01*
X15737595Y8426586D01*
X15805106Y8494097D01*
X15805106Y13450482D01*
X15629557Y13467772D01*
X15619960Y13469681D01*
X15451157Y13520886D01*
X15442113Y13524633D01*
X15286542Y13607787D01*
X15278410Y13613221D01*
X15142047Y13725132D01*
X15135132Y13732047D01*
X15023221Y13868410D01*
X15017787Y13876542D01*
X14934633Y14032113D01*
X14930886Y14041157D01*
X14879681Y14209960D01*
X14877772Y14219557D01*
X14860482Y14395106D01*
X14860482Y14404894D01*
X14877772Y14580443D01*
X14879681Y14590040D01*
X14930886Y14758843D01*
X14934633Y14767887D01*
X15017787Y14923458D01*
X15023221Y14931590D01*
X15135132Y15067953D01*
X15142047Y15074868D01*
X15278410Y15186779D01*
X15286542Y15192213D01*
X15442113Y15275367D01*
X15451157Y15279114D01*
X15619960Y15330319D01*
X15629557Y15332228D01*
X15805106Y15349518D01*
X15814894Y15349518D01*
X15990443Y15332228D01*
X16000040Y15330319D01*
X16168843Y15279114D01*
X16177887Y15275367D01*
X16333458Y15192213D01*
X16341590Y15186779D01*
X16477953Y15074868D01*
X16484868Y15067953D01*
X16596779Y14931590D01*
X16602213Y14923458D01*
X16685367Y14767887D01*
X16689114Y14758843D01*
X16740319Y14590040D01*
X16742228Y14580443D01*
X16759518Y14404894D01*
X16759518Y14395106D01*
X16742228Y14219557D01*
X16740319Y14209960D01*
X16689114Y14041157D01*
X16685367Y14032113D01*
X16602213Y13876542D01*
X16596779Y13868410D01*
X16484868Y13732047D01*
X16477953Y13725132D01*
X16341590Y13613221D01*
X16333458Y13607787D01*
X16177887Y13524633D01*
X16168843Y13520886D01*
X16000040Y13469681D01*
X15990443Y13467772D01*
X15814894Y13450482D01*
X15805106Y13450482D01*
X15805106Y8494097D01*
X15848414Y8537405D01*
X15857137Y8544361D01*
X15989832Y8627739D01*
X15999889Y8632582D01*
X16147801Y8684339D01*
X16158696Y8686826D01*
X16314417Y8704371D01*
X16325583Y8704371D01*
X16481304Y8686826D01*
X16492199Y8684339D01*
X16640111Y8632582D01*
X16650168Y8627739D01*
X16782863Y8544361D01*
X16791586Y8537405D01*
X16902405Y8426586D01*
X16909361Y8417863D01*
X16992739Y8285168D01*
X16997582Y8275111D01*
X17049339Y8127199D01*
X17051826Y8116304D01*
X17069685Y7957799D01*
X17070000Y7952186D01*
X17070000Y6857814D01*
X17069685Y6852201D01*
X17051826Y6693696D01*
X17049339Y6682801D01*
X16997582Y6534889D01*
X16992739Y6524832D01*
X16909361Y6392137D01*
X16902405Y6383414D01*
X16791586Y6272595D01*
X16782863Y6265639D01*
X16650168Y6182261D01*
X16640111Y6177418D01*
X16492199Y6125661D01*
X16481304Y6123174D01*
X16325583Y6105629D01*
X16314417Y6105629D01*
X16314417Y4374371D01*
X16325583Y4374371D01*
X16481304Y4356826D01*
X16492199Y4354339D01*
X16640111Y4302582D01*
X16650168Y4297739D01*
X16782863Y4214361D01*
X16791586Y4207405D01*
X16882375Y4116616D01*
X16938114Y4088454D01*
X17023795Y4116616D01*
X17032047Y4124868D01*
X17093498Y4175299D01*
X17093498Y8850856D01*
X16964150Y8867885D01*
X16951594Y8871249D01*
X16831055Y8921178D01*
X16819800Y8927676D01*
X16716291Y9007101D01*
X16707101Y9016291D01*
X16627676Y9119800D01*
X16621178Y9131055D01*
X16571249Y9251594D01*
X16567885Y9264150D01*
X16550856Y9393498D01*
X16550856Y9406502D01*
X16567885Y9535850D01*
X16571249Y9548406D01*
X16621178Y9668945D01*
X16627676Y9680200D01*
X16707101Y9783709D01*
X16716291Y9792899D01*
X16819800Y9872324D01*
X16831055Y9878822D01*
X16951594Y9928751D01*
X16964150Y9932115D01*
X17093498Y9949144D01*
X17106502Y9949144D01*
X17235850Y9932115D01*
X17248406Y9928751D01*
X17368945Y9878822D01*
X17380200Y9872324D01*
X17483709Y9792899D01*
X17492899Y9783709D01*
X17572324Y9680200D01*
X17578822Y9668945D01*
X17628751Y9548406D01*
X17632115Y9535850D01*
X17649144Y9406502D01*
X17649144Y9393498D01*
X17632115Y9264150D01*
X17628751Y9251594D01*
X17578822Y9131055D01*
X17572324Y9119800D01*
X17492899Y9016291D01*
X17483709Y9007101D01*
X17380200Y8927676D01*
X17368945Y8921178D01*
X17248406Y8871249D01*
X17235850Y8867885D01*
X17106502Y8850856D01*
X17093498Y8850856D01*
X17093498Y4175299D01*
X17168410Y4236779D01*
X17176542Y4242213D01*
X17332113Y4325367D01*
X17341157Y4329114D01*
X17509960Y4380319D01*
X17519557Y4382228D01*
X17695106Y4399518D01*
X17704894Y4399518D01*
X17880443Y4382228D01*
X17890040Y4380319D01*
X18058843Y4329114D01*
X18067887Y4325367D01*
X18223458Y4242213D01*
X18231590Y4236779D01*
X18345106Y4143618D01*
X18345106Y13450482D01*
X18169557Y13467772D01*
X18159960Y13469681D01*
X17991157Y13520886D01*
X17982113Y13524633D01*
X17826542Y13607787D01*
X17818410Y13613221D01*
X17682047Y13725132D01*
X17675132Y13732047D01*
X17563221Y13868410D01*
X17557787Y13876542D01*
X17474633Y14032113D01*
X17470886Y14041157D01*
X17419681Y14209960D01*
X17417772Y14219557D01*
X17400482Y14395106D01*
X17400482Y14404894D01*
X17417772Y14580443D01*
X17419681Y14590040D01*
X17470886Y14758843D01*
X17474633Y14767887D01*
X17557787Y14923458D01*
X17563221Y14931590D01*
X17675132Y15067953D01*
X17682047Y15074868D01*
X17818410Y15186779D01*
X17826542Y15192213D01*
X17982113Y15275367D01*
X17991157Y15279114D01*
X18159960Y15330319D01*
X18169557Y15332228D01*
X18345106Y15349518D01*
X18354894Y15349518D01*
X18530443Y15332228D01*
X18540040Y15330319D01*
X18708843Y15279114D01*
X18717887Y15275367D01*
X18793498Y15234952D01*
X18793498Y16150856D01*
X18664150Y16167885D01*
X18651594Y16171249D01*
X18531055Y16221178D01*
X18519800Y16227676D01*
X18416291Y16307101D01*
X18407101Y16316291D01*
X18327676Y16419800D01*
X18321178Y16431055D01*
X18271249Y16551594D01*
X18267885Y16564150D01*
X18250856Y16693498D01*
X18250856Y16706502D01*
X18267885Y16835850D01*
X18271249Y16848406D01*
X18321178Y16968945D01*
X18327676Y16980200D01*
X18407101Y17083709D01*
X18416291Y17092899D01*
X18519800Y17172324D01*
X18531055Y17178822D01*
X18651594Y17228751D01*
X18664150Y17232115D01*
X18793498Y17249144D01*
X18806502Y17249144D01*
X18935850Y17232115D01*
X18948406Y17228751D01*
X19068945Y17178822D01*
X19080200Y17172324D01*
X19183709Y17092899D01*
X19192899Y17083709D01*
X19239682Y17022740D01*
X19291269Y16987543D01*
X19353677Y16989815D01*
X19411405Y17045349D01*
X19421179Y17068947D01*
X19427676Y17080200D01*
X19507101Y17183709D01*
X19516291Y17192899D01*
X19619800Y17272324D01*
X19631055Y17278822D01*
X19751594Y17328751D01*
X19764150Y17332115D01*
X19893498Y17349144D01*
X19893498Y21650856D01*
X19764150Y21667885D01*
X19751594Y21671249D01*
X19631055Y21721178D01*
X19619800Y21727676D01*
X19516291Y21807101D01*
X19507101Y21816291D01*
X19427676Y21919800D01*
X19421178Y21931055D01*
X19371249Y22051594D01*
X19367885Y22064150D01*
X19350856Y22193498D01*
X19350856Y22206502D01*
X19367885Y22335850D01*
X19371249Y22348406D01*
X19421178Y22468945D01*
X19427676Y22480200D01*
X19507101Y22583709D01*
X19516291Y22592899D01*
X19619800Y22672324D01*
X19631055Y22678822D01*
X19751594Y22728751D01*
X19764150Y22732115D01*
X19893498Y22749144D01*
X19906502Y22749144D01*
X20035850Y22732115D01*
X20048406Y22728751D01*
X20168945Y22678822D01*
X20180200Y22672324D01*
X20283709Y22592899D01*
X20292899Y22583709D01*
X20372324Y22480200D01*
X20378822Y22468945D01*
X20428751Y22348406D01*
X20432115Y22335850D01*
X20449144Y22206502D01*
X20449144Y22193498D01*
X20432115Y22064150D01*
X20428751Y22051594D01*
X20378822Y21931055D01*
X20372324Y21919800D01*
X20292899Y21816291D01*
X20283709Y21807101D01*
X20180200Y21727676D01*
X20168945Y21721178D01*
X20048406Y21671249D01*
X20035850Y21667885D01*
X19906502Y21650856D01*
X19893498Y21650856D01*
X19893498Y17349144D01*
X19906502Y17349144D01*
X20035850Y17332115D01*
X20048406Y17328751D01*
X20168945Y17278822D01*
X20180200Y17272324D01*
X20283709Y17192899D01*
X20292899Y17183709D01*
X20372324Y17080200D01*
X20378822Y17068945D01*
X20428751Y16948406D01*
X20432115Y16935850D01*
X20449144Y16806502D01*
X20449144Y16793498D01*
X20432115Y16664150D01*
X20428751Y16651594D01*
X20378822Y16531055D01*
X20372324Y16519800D01*
X20292899Y16416291D01*
X20283709Y16407101D01*
X20180200Y16327676D01*
X20168945Y16321178D01*
X20048406Y16271249D01*
X20035850Y16267885D01*
X19906502Y16250856D01*
X19893498Y16250856D01*
X19764150Y16267885D01*
X19751594Y16271249D01*
X19631055Y16321178D01*
X19619800Y16327676D01*
X19516291Y16407101D01*
X19507101Y16416291D01*
X19460318Y16477260D01*
X19408731Y16512457D01*
X19346323Y16510185D01*
X19288595Y16454651D01*
X19278821Y16431053D01*
X19272324Y16419800D01*
X19192899Y16316291D01*
X19183709Y16307101D01*
X19080200Y16227676D01*
X19068945Y16221178D01*
X18948406Y16171249D01*
X18935850Y16167885D01*
X18806502Y16150856D01*
X18793498Y16150856D01*
X18793498Y15234952D01*
X18873458Y15192213D01*
X18881590Y15186779D01*
X19017953Y15074868D01*
X19024868Y15067953D01*
X19136779Y14931590D01*
X19142213Y14923458D01*
X19225367Y14767887D01*
X19229114Y14758843D01*
X19280319Y14590040D01*
X19282228Y14580443D01*
X19299518Y14404894D01*
X19299518Y14395106D01*
X19282228Y14219557D01*
X19280319Y14209960D01*
X19229114Y14041157D01*
X19225367Y14032113D01*
X19142213Y13876542D01*
X19136779Y13868410D01*
X19024868Y13732047D01*
X19017953Y13725132D01*
X18881590Y13613221D01*
X18873458Y13607787D01*
X18717887Y13524633D01*
X18708843Y13520886D01*
X18540040Y13469681D01*
X18530443Y13467772D01*
X18354894Y13450482D01*
X18345106Y13450482D01*
X18345106Y4143618D01*
X18367953Y4124868D01*
X18374868Y4117953D01*
X18486779Y3981590D01*
X18492213Y3973458D01*
X18575367Y3817887D01*
X18579114Y3808843D01*
X18630319Y3640040D01*
X18632228Y3630443D01*
X18649759Y3452443D01*
X18650000Y3447550D01*
X18650000Y1952450D01*
X18649759Y1947557D01*
X18632228Y1769557D01*
X18630319Y1759960D01*
X18579114Y1591157D01*
X18575367Y1582113D01*
X18492213Y1426542D01*
X18486779Y1418410D01*
X18374868Y1282047D01*
X18367953Y1275132D01*
X18231590Y1163221D01*
X18223458Y1157787D01*
X18067887Y1074633D01*
X18058843Y1070886D01*
X17890040Y1019681D01*
X17880443Y1017772D01*
X17704894Y1000482D01*
X17695106Y1000482D01*
X17695106Y300000D01*
X19834315Y300000D01*
X19905025Y329289D01*
X20996435Y1420699D01*
X20996435Y6150255D01*
X20740287Y6168575D01*
X20733225Y6169590D01*
X20482287Y6224178D01*
X20475446Y6226187D01*
X20234831Y6315932D01*
X20228344Y6318894D01*
X20002951Y6441969D01*
X19996954Y6445823D01*
X19791367Y6599722D01*
X19785984Y6604387D01*
X19604387Y6785984D01*
X19599722Y6791367D01*
X19445823Y6996953D01*
X19441969Y7002950D01*
X19318895Y7228344D01*
X19315932Y7234831D01*
X19226187Y7475446D01*
X19224178Y7482287D01*
X19169590Y7733225D01*
X19168575Y7740287D01*
X19150255Y7996435D01*
X19150255Y8003565D01*
X19168575Y8259713D01*
X19169590Y8266775D01*
X19224178Y8517713D01*
X19226187Y8524554D01*
X19315932Y8765169D01*
X19318894Y8771656D01*
X19441969Y8997049D01*
X19445823Y9003046D01*
X19599722Y9208633D01*
X19604387Y9214016D01*
X19785984Y9395613D01*
X19791367Y9400278D01*
X19996953Y9554177D01*
X20002950Y9558031D01*
X20228344Y9681105D01*
X20234831Y9684068D01*
X20475446Y9773813D01*
X20482287Y9775822D01*
X20733225Y9830410D01*
X20740287Y9831425D01*
X20885106Y9841782D01*
X20885106Y13450482D01*
X20709557Y13467772D01*
X20699960Y13469681D01*
X20531157Y13520886D01*
X20522113Y13524633D01*
X20366542Y13607787D01*
X20358410Y13613221D01*
X20222047Y13725132D01*
X20215132Y13732047D01*
X20103221Y13868410D01*
X20097787Y13876542D01*
X20014633Y14032113D01*
X20010886Y14041157D01*
X19959681Y14209960D01*
X19957772Y14219557D01*
X19940482Y14395106D01*
X19940482Y14404894D01*
X19957772Y14580443D01*
X19959681Y14590040D01*
X20010886Y14758843D01*
X20014633Y14767887D01*
X20097787Y14923458D01*
X20103221Y14931590D01*
X20215132Y15067953D01*
X20222047Y15074868D01*
X20358410Y15186779D01*
X20366542Y15192213D01*
X20493498Y15260072D01*
X20493498Y20050856D01*
X20364150Y20067885D01*
X20351594Y20071249D01*
X20231055Y20121178D01*
X20219800Y20127676D01*
X20116291Y20207101D01*
X20107101Y20216291D01*
X20027676Y20319800D01*
X20021178Y20331055D01*
X19971249Y20451594D01*
X19967885Y20464150D01*
X19950856Y20593498D01*
X19950856Y20606502D01*
X19967885Y20735850D01*
X19971249Y20748406D01*
X20021178Y20868945D01*
X20027676Y20880200D01*
X20107101Y20983709D01*
X20116291Y20992899D01*
X20219800Y21072324D01*
X20231055Y21078822D01*
X20351594Y21128751D01*
X20364150Y21132115D01*
X20493498Y21149144D01*
X20506502Y21149144D01*
X20635850Y21132115D01*
X20648406Y21128751D01*
X20768945Y21078822D01*
X20780200Y21072324D01*
X20883709Y20992899D01*
X20892899Y20983709D01*
X20972324Y20880200D01*
X20978822Y20868945D01*
X21028751Y20748406D01*
X21032115Y20735850D01*
X21049144Y20606502D01*
X21049144Y20593498D01*
X21032115Y20464150D01*
X21028751Y20451594D01*
X20978822Y20331055D01*
X20972324Y20319800D01*
X20892899Y20216291D01*
X20883709Y20207101D01*
X20780200Y20127676D01*
X20768945Y20121178D01*
X20648406Y20071249D01*
X20635850Y20067885D01*
X20506502Y20050856D01*
X20493498Y20050856D01*
X20493498Y15260072D01*
X20522113Y15275367D01*
X20531157Y15279114D01*
X20699960Y15330319D01*
X20709557Y15332228D01*
X20885106Y15349518D01*
X20894894Y15349518D01*
X21070443Y15332228D01*
X21080040Y15330319D01*
X21248843Y15279114D01*
X21257887Y15275367D01*
X21413458Y15192213D01*
X21421590Y15186779D01*
X21557953Y15074868D01*
X21564868Y15067953D01*
X21676779Y14931590D01*
X21682213Y14923458D01*
X21765367Y14767887D01*
X21769114Y14758843D01*
X21820319Y14590040D01*
X21822228Y14580443D01*
X21839518Y14404894D01*
X21839518Y14395106D01*
X21822228Y14219557D01*
X21820319Y14209960D01*
X21769114Y14041157D01*
X21765367Y14032113D01*
X21682213Y13876542D01*
X21676779Y13868410D01*
X21564868Y13732047D01*
X21557953Y13725132D01*
X21421590Y13613221D01*
X21413458Y13607787D01*
X21257887Y13524633D01*
X21248843Y13520886D01*
X21080040Y13469681D01*
X21070443Y13467772D01*
X20894894Y13450482D01*
X20885106Y13450482D01*
X20885106Y9841782D01*
X20996435Y9849745D01*
X21003565Y9849745D01*
X21259713Y9831425D01*
X21266775Y9830410D01*
X21517713Y9775822D01*
X21524554Y9773813D01*
X21765169Y9684068D01*
X21771656Y9681106D01*
X21997049Y9558031D01*
X22003046Y9554177D01*
X22193498Y9411607D01*
X22193498Y36650856D01*
X22064150Y36667885D01*
X22051594Y36671249D01*
X21931055Y36721178D01*
X21919800Y36727676D01*
X21816291Y36807101D01*
X21807101Y36816291D01*
X21727676Y36919800D01*
X21721178Y36931055D01*
X21671249Y37051594D01*
X21667885Y37064150D01*
X21650856Y37193498D01*
X21650856Y37206502D01*
X21667885Y37335850D01*
X21671249Y37348406D01*
X21721178Y37468945D01*
X21727676Y37480200D01*
X21807101Y37583709D01*
X21816291Y37592899D01*
X21919800Y37672324D01*
X21931055Y37678822D01*
X22051594Y37728751D01*
X22064150Y37732115D01*
X22193498Y37749144D01*
X22193498Y37950856D01*
X22064150Y37967885D01*
X22051594Y37971249D01*
X21931055Y38021178D01*
X21919800Y38027676D01*
X21816291Y38107101D01*
X21807101Y38116291D01*
X21727676Y38219800D01*
X21721178Y38231055D01*
X21671249Y38351594D01*
X21667885Y38364150D01*
X21650856Y38493498D01*
X21650856Y38506502D01*
X21667885Y38635850D01*
X21671249Y38648406D01*
X21721178Y38768945D01*
X21727676Y38780200D01*
X21807101Y38883709D01*
X21816291Y38892899D01*
X21919800Y38972324D01*
X21931055Y38978822D01*
X22051594Y39028751D01*
X22064150Y39032115D01*
X22193498Y39049144D01*
X22206502Y39049144D01*
X22335850Y39032115D01*
X22348406Y39028751D01*
X22468945Y38978822D01*
X22480200Y38972324D01*
X22583709Y38892899D01*
X22592899Y38883709D01*
X22672324Y38780200D01*
X22678822Y38768945D01*
X22728751Y38648406D01*
X22732115Y38635850D01*
X22749144Y38506502D01*
X22749144Y38493498D01*
X22732115Y38364150D01*
X22728751Y38351594D01*
X22678822Y38231055D01*
X22672324Y38219800D01*
X22592899Y38116291D01*
X22583709Y38107101D01*
X22480200Y38027676D01*
X22468945Y38021178D01*
X22348406Y37971249D01*
X22335850Y37967885D01*
X22206502Y37950856D01*
X22193498Y37950856D01*
X22193498Y37749144D01*
X22206502Y37749144D01*
X22335850Y37732115D01*
X22348406Y37728751D01*
X22468945Y37678822D01*
X22480200Y37672324D01*
X22583709Y37592899D01*
X22592899Y37583709D01*
X22672324Y37480200D01*
X22678822Y37468945D01*
X22728751Y37348406D01*
X22732115Y37335850D01*
X22749144Y37206502D01*
X22749144Y37193498D01*
X22732115Y37064150D01*
X22728751Y37051594D01*
X22678822Y36931055D01*
X22672324Y36919800D01*
X22592899Y36816291D01*
X22583709Y36807101D01*
X22480200Y36727676D01*
X22468945Y36721178D01*
X22348406Y36671249D01*
X22335850Y36667885D01*
X22206502Y36650856D01*
X22193498Y36650856D01*
X22193498Y9411607D01*
X22208633Y9400278D01*
X22214016Y9395613D01*
X22395613Y9214016D01*
X22400278Y9208633D01*
X22554177Y9003047D01*
X22558031Y8997050D01*
X22681105Y8771656D01*
X22684068Y8765169D01*
X22773813Y8524554D01*
X22775822Y8517713D01*
X22830410Y8266775D01*
X22831425Y8259713D01*
X22849745Y8003565D01*
X22849745Y7996435D01*
X22831425Y7740287D01*
X22830410Y7733225D01*
X22775822Y7482287D01*
X22773813Y7475446D01*
X22684068Y7234831D01*
X22681106Y7228344D01*
X22558031Y7002951D01*
X22554177Y6996954D01*
X22400278Y6791367D01*
X22395613Y6785984D01*
X22214016Y6604387D01*
X22208633Y6599722D01*
X22003047Y6445823D01*
X21997050Y6441969D01*
X21771656Y6318895D01*
X21765169Y6315932D01*
X21524554Y6226187D01*
X21517713Y6224178D01*
X21266775Y6169590D01*
X21259713Y6168575D01*
X21003565Y6150255D01*
X20996435Y6150255D01*
X20996435Y1420699D01*
X23670711Y4094975D01*
X23700000Y4165685D01*
X23700000Y20991603D01*
X23680500Y21050930D01*
X23629605Y21087119D01*
X23567164Y21086057D01*
X23520666Y21052478D01*
X23492899Y21016291D01*
X23483709Y21007101D01*
X23380200Y20927676D01*
X23368945Y20921178D01*
X23248406Y20871249D01*
X23235850Y20867885D01*
X23106502Y20850856D01*
X23093498Y20850856D01*
X22964150Y20867885D01*
X22951594Y20871249D01*
X22831055Y20921178D01*
X22819800Y20927676D01*
X22716291Y21007101D01*
X22707101Y21016291D01*
X22627676Y21119800D01*
X22621178Y21131055D01*
X22571249Y21251594D01*
X22567885Y21264150D01*
X22550856Y21393498D01*
X22550856Y21406502D01*
X22567885Y21535850D01*
X22571249Y21548406D01*
X22621178Y21668945D01*
X22627676Y21680200D01*
X22707101Y21783709D01*
X22716291Y21792899D01*
X22819800Y21872324D01*
X22831055Y21878822D01*
X22951594Y21928751D01*
X22964150Y21932115D01*
X23093498Y21949144D01*
X23106502Y21949144D01*
X23235850Y21932115D01*
X23248406Y21928751D01*
X23368945Y21878822D01*
X23380200Y21872324D01*
X23483709Y21792899D01*
X23492899Y21783709D01*
X23520666Y21747522D01*
X23572252Y21712325D01*
X23634661Y21714597D01*
X23683552Y21753451D01*
X23700000Y21808397D01*
X23700000Y42700001D01*
X23680500Y42759328D01*
X23600001Y42800000D01*
X22706444Y42800000D01*
X22647117Y42780500D01*
X22610928Y42729605D01*
X22611990Y42667164D01*
X22627109Y42639126D01*
X22672324Y42580200D01*
X22678822Y42568945D01*
X22728751Y42448406D01*
X22732115Y42435850D01*
X22749144Y42306502D01*
X22749144Y42293498D01*
X22732115Y42164150D01*
X22728751Y42151594D01*
X22678822Y42031055D01*
X22672324Y42019800D01*
X22592899Y41916291D01*
X22583709Y41907101D01*
X22480200Y41827676D01*
X22468945Y41821178D01*
X22348406Y41771249D01*
X22335850Y41767885D01*
X22206502Y41750856D01*
X22193498Y41750856D01*
X22064150Y41767885D01*
X22051594Y41771249D01*
X21931055Y41821178D01*
X21919800Y41827676D01*
X21816291Y41907101D01*
X21807101Y41916291D01*
X21727676Y42019800D01*
X21721178Y42031055D01*
X21671249Y42151594D01*
X21667885Y42164150D01*
X21650856Y42293498D01*
X21650856Y42306502D01*
X21667885Y42435850D01*
X21671249Y42448406D01*
X21721178Y42568945D01*
X21727676Y42580200D01*
X21772891Y42639126D01*
X21793536Y42698064D01*
X21775189Y42757758D01*
X21725004Y42794926D01*
X21693556Y42800000D01*
X2306444Y42800000D01*
X2247117Y42780500D01*
X2210928Y42729605D01*
X2211990Y42667164D01*
X2227109Y42639126D01*
X2272324Y42580200D01*
X2278822Y42568945D01*
X2328751Y42448406D01*
X2332115Y42435850D01*
X2349144Y42306502D01*
X2349144Y42293498D01*
X2332115Y42164150D01*
X2328751Y42151594D01*
X2278822Y42031055D01*
X2272324Y42019800D01*
X2192899Y41916291D01*
X2183709Y41907101D01*
X2080200Y41827676D01*
X2068945Y41821178D01*
X1948406Y41771249D01*
X1935850Y41767885D01*
X1806502Y41750856D01*
X1793498Y41750856D01*
X1664150Y41767885D01*
X1651594Y41771249D01*
X1531055Y41821178D01*
X1519800Y41827676D01*
X1416291Y41907101D01*
X1407101Y41916291D01*
X1327676Y42019800D01*
X1321178Y42031055D01*
X1271249Y42151594D01*
X1267885Y42164150D01*
X1250856Y42293498D01*
X1250856Y42306502D01*
X1267885Y42435850D01*
X1271249Y42448406D01*
X1321178Y42568945D01*
X1327676Y42580200D01*
X1372891Y42639126D01*
X1393536Y42698064D01*
X1375189Y42757758D01*
X1325004Y42794926D01*
X1293556Y42800000D01*
X399999Y42800000D01*
X340672Y42780500D01*
X300000Y42700001D01*
X300000Y4165685D01*
G37*
G04 --- BOARD END --- *
G04 #@! TF.MD5,7870c98c0e1a85e498763c6dc867317f*
M02*
