G04 --- HEADER BEGIN --- *
G04 #@! TF.GenerationSoftware,LibrePCB,LibrePCB,2.1.1*
G04 #@! TF.CreationDate,2026-10-04T17:57:12*
G04 #@! TF.ProjectId,CO2-Sensor,06764a5f-d6f5-4d99-a3b7-4686052c3b4a,v1*
G04 #@! TF.Part,Single*
G04 #@! TF.SameCoordinates*
G04 #@! TF.FileFunction,Legend,Top*
G04 #@! TF.FilePolarity,Positive*
%FSLAX66Y66*%
%MOMM*%
G01*
G75*
G04 --- HEADER END --- *
G04 --- APERTURE LIST BEGIN --- *
%ADD10C,0.25*%
%ADD11C,0.2*%
%ADD12C,0.15*%
%AMROUNDEDRECT13*20,1,0.6,-0.25,0.0,0.25,0.0,90.0*20,1,0.4,-0.35,0.0,0.35,0.0,90.0*1,1,0.2,-0.2,-0.25*1,1,0.2,-0.2,0.25*1,1,0.2,0.2,0.25*1,1,0.2,0.2,-0.25*%
%ADD13ROUNDEDRECT13*%
%ADD14O,1.787X2.39*%
%AMROUNDEDRECT15*20,1,1.787,-1.095,0.0,1.095,0.0,90.0*20,1,1.587,-1.195,0.0,1.195,0.0,90.0*1,1,0.2,-0.7935,-1.095*1,1,0.2,-0.7935,1.095*1,1,0.2,0.7935,1.095*1,1,0.2,0.7935,-1.095*%
%ADD15ROUNDEDRECT15*%
%AMROUNDEDRECT16*20,1,1.2,-0.5,0.0,0.5,0.0,0.0*20,1,1.0,-0.6,0.0,0.6,0.0,0.0*1,1,0.2,-0.5,0.5*1,1,0.2,0.5,0.5*1,1,0.2,0.5,-0.5*1,1,0.2,-0.5,-0.5*%
%ADD16ROUNDEDRECT16*%
%AMROUNDEDRECT17*20,1,1.1,-0.75,0.0,0.75,0.0,90.0*20,1,0.9,-0.85,0.0,0.85,0.0,90.0*1,1,0.2,-0.45,-0.75*1,1,0.2,-0.45,0.75*1,1,0.2,0.45,0.75*1,1,0.2,0.45,-0.75*%
%ADD17ROUNDEDRECT17*%
%AMROUNDEDRECT18*20,1,1.1,-0.75,0.0,0.75,0.0,0.0*20,1,0.9,-0.85,0.0,0.85,0.0,0.0*1,1,0.2,-0.75,0.45*1,1,0.2,0.75,0.45*1,1,0.2,0.75,-0.45*1,1,0.2,-0.75,-0.45*%
%ADD18ROUNDEDRECT18*%
%AMROUNDEDRECT19*20,1,0.6,-0.25,0.0,0.25,0.0,0.0*20,1,0.4,-0.35,0.0,0.35,0.0,0.0*1,1,0.2,-0.25,0.2*1,1,0.2,0.25,0.2*1,1,0.2,0.25,-0.2*1,1,0.2,-0.25,-0.2*%
%ADD19ROUNDEDRECT19*%
%AMROUNDEDRECT20*20,1,0.55,-0.25,0.0,0.25,0.0,90.0*20,1,0.35,-0.35,0.0,0.35,0.0,90.0*1,1,0.2,-0.175,-0.25*1,1,0.2,-0.175,0.25*1,1,0.2,0.175,0.25*1,1,0.2,0.175,-0.25*%
%ADD20ROUNDEDRECT20*%
%AMROUNDEDRECT21*20,1,1.0,-0.55,0.0,0.55,0.0,0.0*20,1,0.4,-0.85,0.0,0.85,0.0,0.0*1,1,0.6,-0.55,0.2*1,1,0.6,0.55,0.2*1,1,0.6,0.55,-0.2*1,1,0.6,-0.55,-0.2*%
%ADD21ROUNDEDRECT21*%
%AMROUNDEDRECT22*20,1,1.0,-0.55,0.0,0.55,0.0,90.0*20,1,0.4,-0.85,0.0,0.85,0.0,90.0*1,1,0.6,-0.2,-0.55*1,1,0.6,-0.2,0.55*1,1,0.6,0.2,0.55*1,1,0.6,0.2,-0.55*%
%ADD22ROUNDEDRECT22*%
%AMROUNDEDRECT23*20,1,2.2,-0.75,0.0,0.75,0.0,0.0*20,1,1.5,-1.1,0.0,1.1,0.0,0.0*1,1,0.7,-0.75,0.75*1,1,0.7,0.75,0.75*1,1,0.7,0.75,-0.75*1,1,0.7,-0.75,-0.75*%
%ADD23ROUNDEDRECT23*%
%AMROUNDEDRECT24*20,1,0.55,-0.25,0.0,0.25,0.0,0.0*20,1,0.35,-0.35,0.0,0.35,0.0,0.0*1,1,0.2,-0.25,0.175*1,1,0.2,0.25,0.175*1,1,0.2,0.25,-0.175*1,1,0.2,-0.25,-0.175*%
%ADD24ROUNDEDRECT24*%
%AMROUNDEDRECT25*20,1,1.05,-0.625,0.0,0.625,0.0,0.0*20,1,0.85,-0.725,0.0,0.725,0.0,0.0*1,1,0.2,-0.625,0.425*1,1,0.2,0.625,0.425*1,1,0.2,0.625,-0.425*1,1,0.2,-0.625,-0.425*%
%ADD25ROUNDEDRECT25*%
%AMROUNDEDRECT26*20,1,1.0,-0.425,0.0,0.425,0.0,0.0*20,1,0.8,-0.525,0.0,0.525,0.0,0.0*1,1,0.2,-0.425,0.4*1,1,0.2,0.425,0.4*1,1,0.2,0.425,-0.4*1,1,0.2,-0.425,-0.4*%
%ADD26ROUNDEDRECT26*%
%ADD27O,1.2X2.0*%
%ADD28O,1.2X2.3*%
%ADD29C,0.85*%
%AMROUNDEDRECT30*20,1,0.5,-0.26,0.0,0.26,0.0,0.0*20,1,0.15,-0.435,0.0,0.435,0.0,0.0*1,1,0.35,-0.26,0.075*1,1,0.35,0.26,0.075*1,1,0.35,0.26,-0.075*1,1,0.35,-0.26,-0.075*%
%ADD30ROUNDEDRECT30*%
%AMROUNDEDRECT31*20,1,1.6,-0.58,0.0,0.58,0.0,90.0*20,1,0.91,-0.925,0.0,0.925,0.0,90.0*1,1,0.69,-0.455,-0.58*1,1,0.69,-0.455,0.58*1,1,0.69,0.455,0.58*1,1,0.69,0.455,-0.58*%
%ADD31ROUNDEDRECT31*%
%AMROUNDEDRECT32*20,1,1.4,-0.754,0.0,0.754,0.0,90.0*20,1,0.708,-1.1,0.0,1.1,0.0,90.0*1,1,0.692,-0.354,-0.754*1,1,0.692,-0.354,0.754*1,1,0.692,0.354,0.754*1,1,0.692,0.354,-0.754*%
%ADD32ROUNDEDRECT32*%
%ADD33O,1.8X4.2*%
%ADD34C,1.7*%
%ADD35C,3.4*%
G04 --- APERTURE LIST END --- *
G04 --- BOARD BEGIN --- *
D10*
G04 #@! TO.C,J2*
X11835000Y16605000D02*
X9710000Y16605000D01*
X9440000Y16875000D01*
X9170000Y16605000D01*
X7170000Y16605000D01*
X6900000Y16875000D01*
X6630000Y16605000D01*
X4630000Y16605000D01*
X4360000Y16875000D01*
X4090000Y16605000D01*
X1965000Y16605000D01*
X1695000Y16875000D01*
X1695000Y19125000D01*
X1965000Y19395000D01*
X4090000Y19395000D01*
X4360000Y19125000D01*
X4630000Y19395000D01*
X6630000Y19395000D01*
X6900000Y19125000D01*
X7170000Y19395000D01*
X9170000Y19395000D01*
X9440000Y19125000D01*
X9710000Y19395000D01*
X11835000Y19395000D01*
X12105000Y19125000D01*
X12105000Y16875000D01*
X11835000Y16605000D01*
D11*
G04 #@! TO.C,U4*
X2900000Y43060000D02*
X2900000Y49850000D01*
X21100000Y49850000D01*
X21100000Y43060000D01*
X21100000Y24950000D02*
X21100000Y24150000D01*
X19785000Y24150000D01*
X2900000Y24950000D02*
X2900000Y24150000D01*
X4215000Y24150000D01*
G04 #@! TO.C,U3*
X8500000Y67000000D02*
X7000000Y67000000D01*
X7000000Y65500000D01*
D10*
G04 #@! TO.C,L2*
X14850000Y9975000D02*
X14850000Y10425000D01*
X16350000Y9975000D02*
X16350000Y10425000D01*
D12*
G04 #@! TO.C,C1*
X18025000Y17225000D02*
X18175000Y17225000D01*
X18025000Y18175000D02*
X18175000Y18175000D01*
D10*
G04 #@! TO.C,J3*
X22015000Y13005000D02*
X19890000Y13005000D01*
X19620000Y13275000D01*
X19350000Y13005000D01*
X17350000Y13005000D01*
X17080000Y13275000D01*
X16810000Y13005000D01*
X14810000Y13005000D01*
X14540000Y13275000D01*
X14270000Y13005000D01*
X12270000Y13005000D01*
X12000000Y13275000D01*
X11730000Y13005000D01*
X9730000Y13005000D01*
X9460000Y13275000D01*
X9190000Y13005000D01*
X7190000Y13005000D01*
X6920000Y13275000D01*
X6650000Y13005000D01*
X4650000Y13005000D01*
X4380000Y13275000D01*
X4110000Y13005000D01*
X1985000Y13005000D01*
X1715000Y13275000D01*
X1715000Y15525000D01*
X1985000Y15795000D01*
X4110000Y15795000D01*
X4380000Y15525000D01*
X4650000Y15795000D01*
X6650000Y15795000D01*
X6920000Y15525000D01*
X7190000Y15795000D01*
X9190000Y15795000D01*
X9460000Y15525000D01*
X9730000Y15795000D01*
X11730000Y15795000D01*
X12000000Y15525000D01*
X12270000Y15795000D01*
X14270000Y15795000D01*
X14540000Y15525000D01*
X14810000Y15795000D01*
X16810000Y15795000D01*
X17080000Y15525000D01*
X17350000Y15795000D01*
X19350000Y15795000D01*
X19620000Y15525000D01*
X19890000Y15795000D01*
X22015000Y15795000D01*
X22285000Y15525000D01*
X22285000Y13275000D01*
X22015000Y13005000D01*
%LPC*%
D13*
G04 #@! TO.C,C3*
X10500000Y56100000D03*
X9700000Y56100000D03*
D14*
G04 #@! TO.C,J2*
X8170000Y18000000D03*
D15*
X10710000Y18000000D03*
D14*
X3090000Y18000000D03*
X5630000Y18000000D03*
D16*
G04 #@! TO.C,U4*
X9140000Y38410000D03*
D17*
X15175000Y24500000D03*
D18*
X3250000Y40990000D03*
X3250000Y32100000D03*
D16*
X12140000Y36910000D03*
X9140000Y35410000D03*
D18*
X20750000Y38490000D03*
X3250000Y29560000D03*
X3250000Y28290000D03*
X20750000Y33410000D03*
D17*
X12635000Y24500000D03*
D18*
X20750000Y41030000D03*
X20750000Y42300000D03*
D17*
X6285000Y24500000D03*
D18*
X3250000Y34640000D03*
X20750000Y30870000D03*
D17*
X13905000Y24500000D03*
X16445000Y24500000D03*
D18*
X20750000Y39760000D03*
X20750000Y25790000D03*
D16*
X10640000Y35410000D03*
D18*
X3250000Y25750000D03*
D17*
X17715000Y24500000D03*
D16*
X9140000Y36910000D03*
D18*
X20750000Y27060000D03*
X20750000Y34680000D03*
D17*
X10095000Y24500000D03*
D18*
X3250000Y39720000D03*
X20750000Y28330000D03*
D16*
X12140000Y35410000D03*
X10640000Y38410000D03*
D18*
X3250000Y30830000D03*
D16*
X12140000Y38410000D03*
D17*
X7555000Y24500000D03*
X5015000Y24500000D03*
D18*
X20750000Y35950000D03*
X20750000Y37220000D03*
D17*
X18985000Y24500000D03*
D16*
X10640000Y36910000D03*
D18*
X3250000Y37180000D03*
X20750000Y32140000D03*
X3250000Y42260000D03*
X3250000Y33370000D03*
X3250000Y35910000D03*
X3250000Y27020000D03*
D17*
X8825000Y24500000D03*
D18*
X3250000Y38450000D03*
X20750000Y29600000D03*
D17*
X11365000Y24500000D03*
D13*
G04 #@! TO.C,C2*
X20700000Y17700000D03*
X19900000Y17700000D03*
D19*
G04 #@! TO.C,C5*
X900000Y41200000D03*
X900000Y42000000D03*
D20*
G04 #@! TO.C,R9*
X12375000Y56100000D03*
X13225000Y56100000D03*
D21*
G04 #@! TO.C,U3*
X16000000Y60750000D03*
D22*
X12000000Y66000000D03*
X9500000Y58000000D03*
D21*
X16000000Y59500000D03*
X16000000Y63250000D03*
X8000000Y60750000D03*
X8000000Y63250000D03*
X8000000Y62000000D03*
X16000000Y64500000D03*
D22*
X10750000Y66000000D03*
D21*
X16000000Y62000000D03*
D22*
X13250000Y66000000D03*
D23*
X13250000Y63250000D03*
D21*
X8000000Y64500000D03*
D22*
X12000000Y58000000D03*
X10750000Y58000000D03*
D21*
X8000000Y59500000D03*
D23*
X10750000Y60750000D03*
X13250000Y60750000D03*
X10750000Y63250000D03*
D22*
X14500000Y66000000D03*
X9500000Y66000000D03*
X14500000Y58000000D03*
X13250000Y58000000D03*
D20*
G04 #@! TO.C,R8*
X15425000Y56100000D03*
X14575000Y56100000D03*
D24*
G04 #@! TO.C,R6*
X12500000Y11025000D03*
X12500000Y10175000D03*
G04 #@! TO.C,R5*
X19000000Y23025000D03*
X19000000Y22175000D03*
D19*
G04 #@! TO.C,C4*
X17100000Y11100000D03*
X17100000Y10300000D03*
D24*
G04 #@! TO.C,R4*
X23100000Y20625000D03*
X23100000Y19775000D03*
D25*
G04 #@! TO.C,L2*
X15600000Y9275000D03*
X15600000Y11125000D03*
D20*
G04 #@! TO.C,R1*
X1825000Y39700000D03*
X975000Y39700000D03*
D26*
G04 #@! TO.C,C1*
X18825000Y17700000D03*
X17375000Y17700000D03*
D24*
G04 #@! TO.C,R3*
X23100000Y19025000D03*
X23100000Y18175000D03*
D27*
G04 #@! TO.C,J1*
X16320000Y3225000D03*
D28*
X7680000Y7405000D03*
D27*
X7680000Y3225000D03*
D28*
X16320000Y7405000D03*
D29*
G04 #@! TD*
X9110000Y6905000D03*
X14890000Y6905000D03*
D20*
G04 #@! TO.C,R10*
X23225000Y25800000D03*
X22375000Y25800000D03*
D30*
G04 #@! TO.C,U2*
X20560000Y19400000D03*
X22040000Y19900000D03*
X20560000Y19900000D03*
X20560000Y18900000D03*
X22040000Y19400000D03*
X22040000Y18900000D03*
D24*
G04 #@! TO.C,R7*
X11500000Y11025000D03*
X11500000Y10175000D03*
D31*
G04 #@! TO.C,L1*
X19105000Y19425000D03*
X17105000Y19425000D03*
D32*
G04 #@! TO.C,X1*
X8500000Y5300000D03*
X15500000Y5300000D03*
X13000000Y5300000D03*
X11000000Y5300000D03*
D33*
X6300000Y2700000D03*
X17700000Y2700000D03*
D34*
G04 #@! TD*
X14250000Y2700000D03*
X9750000Y2700000D03*
D14*
G04 #@! TO.C,J3*
X8190000Y14400000D03*
X13270000Y14400000D03*
X15810000Y14400000D03*
X3110000Y14400000D03*
D15*
X20890000Y14400000D03*
D14*
X18350000Y14400000D03*
X10730000Y14400000D03*
X5650000Y14400000D03*
D24*
G04 #@! TO.C,R2*
X6200000Y22825000D03*
X6200000Y21975000D03*
D35*
G04 #@! TD*
X3000000Y8000000D03*
X21000000Y67000000D03*
X3000000Y67000000D03*
X21000000Y8000000D03*
G04 --- BOARD END --- *
G04 #@! TF.MD5,90da8ac7bd0f11771f1789fb9284a461*
M02*
