G04 --- HEADER BEGIN --- *
G04 #@! TF.GenerationSoftware,LibrePCB,LibrePCB,2.1.1*
G04 #@! TF.CreationDate,2026-10-04T17:57:12*
G04 #@! TF.ProjectId,CO2-Sensor,06764a5f-d6f5-4d99-a3b7-4686052c3b4a,v1*
G04 #@! TF.Part,Single*
G04 #@! TF.SameCoordinates*
G04 #@! TF.FileFunction,Legend,Bot*
G04 #@! TF.FilePolarity,Positive*
%FSLAX66Y66*%
%MOMM*%
G01*
G75*
G04 --- HEADER END --- *
G04 --- APERTURE LIST BEGIN --- *
%ADD10C,0.01*%
%ADD11C,0.2*%
%ADD12O,1.787X2.39*%
%AMROUNDEDRECT13*20,1,1.787,-1.095,0.0,1.095,0.0,90.0*20,1,1.587,-1.195,0.0,1.195,0.0,90.0*1,1,0.2,-0.7935,-1.095*1,1,0.2,-0.7935,1.095*1,1,0.2,0.7935,1.095*1,1,0.2,0.7935,-1.095*%
%ADD13ROUNDEDRECT13*%
%AMROUNDEDRECT14*20,1,0.55,-0.25,0.0,0.25,0.0,0.0*20,1,0.35,-0.35,0.0,0.35,0.0,0.0*1,1,0.2,-0.25,0.175*1,1,0.2,0.25,0.175*1,1,0.2,0.25,-0.175*1,1,0.2,-0.25,-0.175*%
%ADD14ROUNDEDRECT14*%
%AMROUNDEDRECT15*20,1,0.5,-0.575,0.0,0.575,0.0,90.0*20,1,0.3,-0.675,0.0,0.675,0.0,90.0*1,1,0.2,-0.15,-0.575*1,1,0.2,-0.15,0.575*1,1,0.2,0.15,0.575*1,1,0.2,0.15,-0.575*%
%ADD15ROUNDEDRECT15*%
%ADD16O,1.2X2.0*%
%AMROUNDEDRECT17*20,1,0.8,-0.575,0.0,0.575,0.0,90.0*20,1,0.6,-0.675,0.0,0.675,0.0,90.0*1,1,0.2,-0.3,-0.575*1,1,0.2,-0.3,0.575*1,1,0.2,0.3,0.575*1,1,0.2,0.3,-0.575*%
%ADD17ROUNDEDRECT17*%
%ADD18O,1.2X2.3*%
%ADD19C,0.85*%
%ADD20O,1.8X4.2*%
%ADD21C,1.7*%
%ADD22C,3.4*%
G04 --- APERTURE LIST END --- *
G04 --- BOARD BEGIN --- *
D10*
G04 #@! TO.C,LOGO1*
G36*
X15800000Y33060000D02*
X15800000Y33480000D01*
X15600000Y33480000D01*
X15600000Y33060000D01*
X15800000Y33060000D01*
G37*
G36*
X17160000Y31900000D02*
X17160000Y32100000D01*
X17580000Y32100000D01*
X17580000Y31900000D01*
X17160000Y31900000D01*
G37*
G36*
X17160000Y31500000D02*
X17160000Y31700000D01*
X17580000Y31700000D01*
X17580000Y31500000D01*
X17160000Y31500000D01*
G37*
G36*
X16600000Y30940000D02*
X16600000Y30520000D01*
X16400000Y30520000D01*
X16400000Y30940000D01*
X16600000Y30940000D01*
G37*
G36*
X15040000Y31900000D02*
X15040000Y32100000D01*
X14620000Y32100000D01*
X14620000Y31900000D01*
X15040000Y31900000D01*
G37*
G36*
X16947000Y31365000D02*
X16947000Y32635000D01*
G03*
X16735000Y32847000I-212000J0D01*
G01*
X15465000Y32847000D01*
G03*
X15253000Y32635000I0J-212000D01*
G01*
X15253000Y31365000D01*
G03*
X15465000Y31153000I212000J0D01*
G01*
X16565000Y31153000D01*
X16565000Y31368000D01*
G02*
X16398000Y31535000I0J167000D01*
G01*
G02*
X16565000Y31702000I167000J0D01*
G01*
G02*
X16732000Y31535000I0J-167000D01*
G01*
G02*
X16565000Y31368000I-167000J0D01*
G01*
X16565000Y31153000D01*
X16735000Y31153000D01*
G03*
X16947000Y31365000I0J212000D01*
G01*
G37*
G36*
X16600000Y33060000D02*
X16600000Y33480000D01*
X16400000Y33480000D01*
X16400000Y33060000D01*
X16600000Y33060000D01*
G37*
G36*
X17160000Y32300000D02*
X17160000Y32500000D01*
X17580000Y32500000D01*
X17580000Y32300000D01*
X17160000Y32300000D01*
G37*
G36*
X16200000Y30940000D02*
X16200000Y30520000D01*
X16000000Y30520000D01*
X16000000Y30940000D01*
X16200000Y30940000D01*
G37*
G36*
X15040000Y31500000D02*
X15040000Y31700000D01*
X14620000Y31700000D01*
X14620000Y31500000D01*
X15040000Y31500000D01*
G37*
G36*
X15800000Y30940000D02*
X15800000Y30520000D01*
X15600000Y30520000D01*
X15600000Y30940000D01*
X15800000Y30940000D01*
G37*
G36*
X15040000Y32300000D02*
X15040000Y32500000D01*
X14620000Y32500000D01*
X14620000Y32300000D01*
X15040000Y32300000D01*
G37*
G36*
X16200000Y33060000D02*
X16200000Y33480000D01*
X16000000Y33480000D01*
X16000000Y33060000D01*
X16200000Y33060000D01*
G37*
D11*
X15860000Y41558890D02*
X14860000Y41558890D01*
X15574444Y41225557D01*
X14860000Y40892223D01*
X15860000Y40892223D01*
X15860000Y40015556D02*
X15336667Y40015556D01*
X15241111Y40063334D01*
X15193333Y40158890D01*
X15193333Y40348890D01*
X15241111Y40444445D01*
X15812222Y40015556D02*
X15860000Y40111112D01*
X15860000Y40348890D01*
X15812222Y40444445D01*
X15716667Y40492223D01*
X15622222Y40492223D01*
X15526667Y40444445D01*
X15478889Y40348890D01*
X15478889Y40111112D01*
X15431111Y40015556D01*
X15860000Y39138889D02*
X14860000Y39138889D01*
X15812222Y39138889D02*
X15860000Y39234445D01*
X15860000Y39425556D01*
X15812222Y39520000D01*
X15764444Y39567778D01*
X15670000Y39615556D01*
X15383333Y39615556D01*
X15288889Y39567778D01*
X15241111Y39520000D01*
X15193333Y39425556D01*
X15193333Y39234445D01*
X15241111Y39138889D01*
X15812222Y38310000D02*
X15860000Y38405556D01*
X15860000Y38595556D01*
X15812222Y38691111D01*
X15716667Y38738889D01*
X15336667Y38738889D01*
X15241111Y38691111D01*
X15193333Y38595556D01*
X15193333Y38405556D01*
X15241111Y38310000D01*
X15336667Y38262222D01*
X15431111Y38262222D01*
X15526667Y38738889D01*
X14860000Y37062223D02*
X15860000Y36824445D01*
X15145556Y36633334D01*
X15860000Y36443334D01*
X14860000Y36205556D01*
X15860000Y35757778D02*
X15193333Y35757778D01*
X14860000Y35757778D02*
X14907778Y35805556D01*
X14955556Y35757778D01*
X14907778Y35710000D01*
X14860000Y35757778D01*
X14955556Y35757778D01*
X15193333Y35310000D02*
X15193333Y34928889D01*
X14860000Y35166667D02*
X15716667Y35166667D01*
X15812222Y35120000D01*
X15860000Y35024444D01*
X15860000Y34928889D01*
X15860000Y34528889D02*
X14860000Y34528889D01*
X15860000Y34100000D02*
X15336667Y34100000D01*
X15241111Y34147778D01*
X15193333Y34243333D01*
X15193333Y34385556D01*
X15241111Y34481111D01*
X15288889Y34528889D01*
X17340000Y39995557D02*
X17340000Y40472224D01*
X16340000Y40472224D01*
X17340000Y39547779D02*
X16673333Y39547779D01*
X16340000Y39547779D02*
X16387778Y39595557D01*
X16435556Y39547779D01*
X16387778Y39500001D01*
X16340000Y39547779D01*
X16435556Y39547779D01*
X17340000Y39100001D02*
X16340000Y39100001D01*
X16721111Y39100001D02*
X16673333Y39004445D01*
X16673333Y38814445D01*
X16721111Y38718890D01*
X16768889Y38671112D01*
X16863333Y38623334D01*
X17150000Y38623334D01*
X17244444Y38671112D01*
X17292222Y38718890D01*
X17340000Y38814445D01*
X17340000Y39004445D01*
X17292222Y39100001D01*
X17340000Y38223334D02*
X16673333Y38223334D01*
X16863333Y38223334D02*
X16768889Y38175556D01*
X16721111Y38127778D01*
X16673333Y38033334D01*
X16673333Y37937778D01*
X17292222Y37108889D02*
X17340000Y37204445D01*
X17340000Y37394445D01*
X17292222Y37490000D01*
X17196667Y37537778D01*
X16816667Y37537778D01*
X16721111Y37490000D01*
X16673333Y37394445D01*
X16673333Y37204445D01*
X16721111Y37108889D01*
X16816667Y37061111D01*
X16911111Y37061111D01*
X17006667Y37537778D01*
X17340000Y36661111D02*
X16340000Y36661111D01*
X16340000Y36280000D01*
X16387778Y36184444D01*
X16435556Y36137778D01*
X16530000Y36090000D01*
X16673333Y36090000D01*
X16768889Y36137778D01*
X16816667Y36184444D01*
X16863333Y36280000D01*
X16863333Y36661111D01*
X17244444Y35071111D02*
X17292222Y35118889D01*
X17340000Y35261111D01*
X17340000Y35356667D01*
X17292222Y35500000D01*
X17196667Y35594444D01*
X17102222Y35642222D01*
X16911111Y35690000D01*
X16768889Y35690000D01*
X16577778Y35642222D01*
X16483333Y35594444D01*
X16387778Y35500000D01*
X16340000Y35356667D01*
X16340000Y35261111D01*
X16387778Y35118889D01*
X16435556Y35071111D01*
X16816667Y34337778D02*
X16863333Y34194444D01*
X16911111Y34147778D01*
X17006667Y34100000D01*
X17150000Y34100000D01*
X17244444Y34147778D01*
X17292222Y34194444D01*
X17340000Y34290000D01*
X17340000Y34671111D01*
X16340000Y34671111D01*
X16340000Y34337778D01*
X16387778Y34242222D01*
X16435556Y34194444D01*
X16530000Y34147778D01*
X16625556Y34147778D01*
X16721111Y34194444D01*
X16768889Y34242222D01*
X16816667Y34337778D01*
X16816667Y34671111D01*
G04 #@! TO.C,J1*
X16570000Y6000000D02*
X16570000Y4500000D01*
X16570000Y2000000D02*
X16570000Y525000D01*
X7430000Y525000D01*
X7430000Y2000000D01*
X7430000Y6000000D02*
X7430000Y4500000D01*
G04 #@! TD*
X4123337Y40671667D02*
X4195003Y40743333D01*
X4266670Y40956667D01*
X4266670Y41100000D01*
X4195003Y41315000D01*
X4051670Y41456667D01*
X3910003Y41528333D01*
X3623337Y41600000D01*
X3410003Y41600000D01*
X3123337Y41528333D01*
X2981670Y41456667D01*
X2838337Y41315000D01*
X2766670Y41100000D01*
X2766670Y40956667D01*
X2838337Y40743333D01*
X2910003Y40671667D01*
X2766670Y39815000D02*
X2766670Y39528334D01*
X2838337Y39386667D01*
X2981670Y39243334D01*
X3266670Y39171667D01*
X3766670Y39171667D01*
X4051670Y39243334D01*
X4195003Y39386667D01*
X4266670Y39528334D01*
X4266670Y39815000D01*
X4195003Y39956667D01*
X4051670Y40100000D01*
X3766670Y40171667D01*
X3266670Y40171667D01*
X2981670Y40100000D01*
X2838337Y39956667D01*
X2766670Y39815000D01*
X2910003Y38600000D02*
X2838337Y38528334D01*
X2766670Y38386667D01*
X2766670Y38028334D01*
X2838337Y37886667D01*
X2910003Y37815000D01*
X3051670Y37743334D01*
X3195003Y37743334D01*
X3410003Y37815000D01*
X4266670Y38671667D01*
X4266670Y37743334D01*
X3695003Y37243334D02*
X3695003Y36100001D01*
X4195003Y35600001D02*
X4266670Y35385001D01*
X4266670Y35028334D01*
X4195003Y34885001D01*
X4123337Y34815001D01*
X3981670Y34743334D01*
X3838337Y34743334D01*
X3695003Y34815001D01*
X3623337Y34885001D01*
X3551670Y35028334D01*
X3481670Y35315001D01*
X3410003Y35456668D01*
X3338337Y35528334D01*
X3195003Y35600001D01*
X3051670Y35600001D01*
X2910003Y35528334D01*
X2838337Y35456668D01*
X2766670Y35315001D01*
X2766670Y34956668D01*
X2838337Y34743334D01*
X4195003Y33600001D02*
X4266670Y33743334D01*
X4266670Y34028334D01*
X4195003Y34171667D01*
X4051670Y34243334D01*
X3481670Y34243334D01*
X3338337Y34171667D01*
X3266670Y34028334D01*
X3266670Y33743334D01*
X3338337Y33600001D01*
X3481670Y33528334D01*
X3623337Y33528334D01*
X3766670Y34243334D01*
X3266670Y33028334D02*
X4266670Y33028334D01*
X3410003Y33028334D02*
X3338337Y32956667D01*
X3266670Y32813334D01*
X3266670Y32600001D01*
X3338337Y32456667D01*
X3481670Y32385001D01*
X4266670Y32385001D01*
X4195003Y31885001D02*
X4266670Y31741668D01*
X4266670Y31456668D01*
X4195003Y31313334D01*
X4051670Y31241668D01*
X3981670Y31241668D01*
X3838337Y31313334D01*
X3766670Y31456668D01*
X3766670Y31670001D01*
X3695003Y31813334D01*
X3551670Y31885001D01*
X3481670Y31885001D01*
X3338337Y31813334D01*
X3266670Y31670001D01*
X3266670Y31456668D01*
X3338337Y31313334D01*
X4266670Y30456668D02*
X4195003Y30598335D01*
X4123337Y30670001D01*
X3981670Y30741668D01*
X3551670Y30741668D01*
X3410003Y30670001D01*
X3338337Y30598335D01*
X3266670Y30456668D01*
X3266670Y30241668D01*
X3338337Y30098335D01*
X3410003Y30026668D01*
X3551670Y29956668D01*
X3981670Y29956668D01*
X4123337Y30026668D01*
X4195003Y30098335D01*
X4266670Y30241668D01*
X4266670Y30456668D01*
X4266670Y29456668D02*
X3266670Y29456668D01*
X3551670Y29456668D02*
X3410003Y29385001D01*
X3338337Y29313335D01*
X3266670Y29171668D01*
X3266670Y29028335D01*
X7133335Y40885000D02*
X7133335Y41600000D01*
X5633335Y41600000D01*
X6133335Y39741667D02*
X7133335Y39741667D01*
X6133335Y40385000D02*
X6918335Y40385000D01*
X7061668Y40313333D01*
X7133335Y40170000D01*
X7133335Y39956667D01*
X7061668Y39813333D01*
X6990002Y39741667D01*
X7133335Y39241667D02*
X5633335Y39241667D01*
X6561668Y39098334D02*
X7133335Y38670000D01*
X6133335Y38670000D02*
X6705002Y39241667D01*
X7133335Y37455000D02*
X6348335Y37455000D01*
X6205002Y37526667D01*
X6133335Y37670000D01*
X6133335Y37955000D01*
X6205002Y38098333D01*
X7061668Y37455000D02*
X7133335Y37598333D01*
X7133335Y37955000D01*
X7061668Y38098333D01*
X6918335Y38170000D01*
X6776668Y38170000D01*
X6633335Y38098333D01*
X6561668Y37955000D01*
X6561668Y37598333D01*
X6490002Y37455000D01*
X7061668Y36955000D02*
X7133335Y36811667D01*
X7133335Y36526667D01*
X7061668Y36383333D01*
X6918335Y36311667D01*
X6848335Y36311667D01*
X6705002Y36383333D01*
X6633335Y36526667D01*
X6633335Y36740000D01*
X6561668Y36883333D01*
X6418335Y36955000D01*
X6348335Y36955000D01*
X6205002Y36883333D01*
X6133335Y36740000D01*
X6133335Y36526667D01*
X6205002Y36383333D01*
X6348335Y34211668D02*
X6418335Y33996668D01*
X6490002Y33926668D01*
X6633335Y33855001D01*
X6848335Y33855001D01*
X6990002Y33926668D01*
X7061668Y33996668D01*
X7133335Y34140001D01*
X7133335Y34711668D01*
X5633335Y34711668D01*
X5633335Y34211668D01*
X5705002Y34068335D01*
X5776668Y33996668D01*
X5918335Y33926668D01*
X6061668Y33926668D01*
X6205002Y33996668D01*
X6276668Y34068335D01*
X6348335Y34211668D01*
X6348335Y34711668D01*
X7133335Y32640001D02*
X6348335Y32640001D01*
X6205002Y32711668D01*
X6133335Y32855001D01*
X6133335Y33140001D01*
X6205002Y33283334D01*
X7061668Y32640001D02*
X7133335Y32783334D01*
X7133335Y33140001D01*
X7061668Y33283334D01*
X6918335Y33355001D01*
X6776668Y33355001D01*
X6633335Y33283334D01*
X6561668Y33140001D01*
X6561668Y32783334D01*
X6490002Y32640001D01*
X7133335Y32140001D02*
X6133335Y32140001D01*
X6418335Y32140001D02*
X6276668Y32068334D01*
X6205002Y31996668D01*
X6133335Y31855001D01*
X6133335Y31711668D01*
X7133335Y31211668D02*
X5633335Y31211668D01*
X6205002Y31211668D02*
X6133335Y31068335D01*
X6133335Y30783335D01*
X6205002Y30640001D01*
X6276668Y30568335D01*
X6418335Y30496668D01*
X6848335Y30496668D01*
X6990002Y30568335D01*
X7061668Y30640001D01*
X7133335Y30783335D01*
X7133335Y31068335D01*
X7061668Y31211668D01*
X7133335Y29925001D02*
X6133335Y29925001D01*
X5633335Y29925001D02*
X5705002Y29996668D01*
X5776668Y29925001D01*
X5705002Y29853335D01*
X5633335Y29925001D01*
X5776668Y29925001D01*
X7061668Y29353335D02*
X7133335Y29210002D01*
X7133335Y28925002D01*
X7061668Y28781668D01*
X6918335Y28710002D01*
X6848335Y28710002D01*
X6705002Y28781668D01*
X6633335Y28925002D01*
X6633335Y29138335D01*
X6561668Y29281668D01*
X6418335Y29353335D01*
X6348335Y29353335D01*
X6205002Y29281668D01*
X6133335Y29138335D01*
X6133335Y28925002D01*
X6205002Y28781668D01*
X7061668Y27495002D02*
X7133335Y27638335D01*
X7133335Y27925002D01*
X7061668Y28066669D01*
X6990002Y28138335D01*
X6848335Y28210002D01*
X6418335Y28210002D01*
X6276668Y28138335D01*
X6205002Y28066669D01*
X6133335Y27925002D01*
X6133335Y27638335D01*
X6205002Y27495002D01*
X7133335Y26995002D02*
X5633335Y26995002D01*
X7133335Y26351669D02*
X6348335Y26351669D01*
X6205002Y26423335D01*
X6133335Y26566669D01*
X6133335Y26780002D01*
X6205002Y26923335D01*
X6276668Y26995002D01*
X8500000Y41243333D02*
X8500000Y41100000D01*
X8571667Y40956667D01*
X8643333Y40885000D01*
X8785000Y40815000D01*
X9071667Y40743333D01*
X9428333Y40743333D01*
X9715000Y40815000D01*
X9856667Y40885000D01*
X9928333Y40956667D01*
X10000000Y41100000D01*
X10000000Y41243333D01*
X9928333Y41385000D01*
X9856667Y41456667D01*
X9715000Y41528333D01*
X9428333Y41600000D01*
X9071667Y41600000D01*
X8785000Y41528333D01*
X8643333Y41456667D01*
X8571667Y41385000D01*
X8500000Y41243333D01*
X9000000Y39528333D02*
X10000000Y39528333D01*
X8428333Y39886666D02*
X9500000Y40243333D01*
X9500000Y39315000D01*
X9856667Y38743333D02*
X9928333Y38671667D01*
X10000000Y38743333D01*
X9928333Y38815000D01*
X9856667Y38743333D01*
X10000000Y38743333D01*
X10000000Y37315000D02*
X10000000Y38171667D01*
X10000000Y37743334D02*
X8500000Y37743334D01*
X8715000Y37886667D01*
X8856667Y38028334D01*
X8928333Y38171667D01*
X8500000Y36458333D02*
X8500000Y36315000D01*
X8571667Y36171667D01*
X8643333Y36100000D01*
X8785000Y36030000D01*
X9071667Y35958333D01*
X9428333Y35958333D01*
X9715000Y36030000D01*
X9856667Y36100000D01*
X9928333Y36171667D01*
X10000000Y36315000D01*
X10000000Y36458333D01*
X9928333Y36600000D01*
X9856667Y36671667D01*
X9715000Y36743333D01*
X9428333Y36815000D01*
X9071667Y36815000D01*
X8785000Y36743333D01*
X8643333Y36671667D01*
X8571667Y36600000D01*
X8500000Y36458333D01*
X9856667Y35386666D02*
X9928333Y35315000D01*
X10000000Y35386666D01*
X9928333Y35458333D01*
X9856667Y35386666D01*
X10000000Y35386666D01*
X8643333Y34743333D02*
X8571667Y34671667D01*
X8500000Y34530000D01*
X8500000Y34171667D01*
X8571667Y34030000D01*
X8643333Y33958333D01*
X8785000Y33886667D01*
X8928333Y33886667D01*
X9143333Y33958333D01*
X10000000Y34815000D01*
X10000000Y33886667D01*
X8500000Y32671667D02*
X8500000Y32958334D01*
X8571667Y33101667D01*
X8643333Y33171667D01*
X8856667Y33315000D01*
X9143333Y33386667D01*
X9715000Y33386667D01*
X9856667Y33315000D01*
X9928333Y33243334D01*
X10000000Y33101667D01*
X10000000Y32815000D01*
X9928333Y32671667D01*
X9856667Y32601667D01*
X9715000Y32530000D01*
X9356667Y32530000D01*
X9215000Y32601667D01*
X9143333Y32671667D01*
X9071667Y32815000D01*
X9071667Y33101667D01*
X9143333Y33243334D01*
X9215000Y33315000D01*
X9356667Y33386667D01*
%LPC*%
D12*
G04 #@! TO.C,J2*
X8170000Y18000000D03*
D13*
X10710000Y18000000D03*
D12*
X3090000Y18000000D03*
X5630000Y18000000D03*
D14*
G04 #@! TO.C,R11*
X10200000Y9475000D03*
X10200000Y10325000D03*
G04 #@! TO.C,R12*
X13300000Y9475000D03*
X13300000Y10325000D03*
D15*
G04 #@! TO.C,J1*
X13750000Y7980000D03*
X12250000Y7980000D03*
X12750000Y7980000D03*
X10250000Y7980000D03*
D16*
X16320000Y3225000D03*
D17*
X15200000Y7980000D03*
D18*
X7680000Y7405000D03*
D15*
X10750000Y7980000D03*
D16*
X7680000Y3225000D03*
D17*
X8800000Y7980000D03*
X14400000Y7980000D03*
D15*
X13250000Y7980000D03*
D18*
X16320000Y7405000D03*
D15*
X11250000Y7980000D03*
X11750000Y7980000D03*
D17*
X9600000Y7980000D03*
D19*
G04 #@! TD*
X9110000Y6905000D03*
X14890000Y6905000D03*
D20*
G04 #@! TO.C,X1*
X6300000Y2700000D03*
X17700000Y2700000D03*
D21*
G04 #@! TD*
X14250000Y2700000D03*
X9750000Y2700000D03*
D12*
G04 #@! TO.C,J3*
X8190000Y14400000D03*
X13270000Y14400000D03*
X15810000Y14400000D03*
X3110000Y14400000D03*
D13*
X20890000Y14400000D03*
D12*
X18350000Y14400000D03*
X10730000Y14400000D03*
X5650000Y14400000D03*
D22*
G04 #@! TD*
X3000000Y8000000D03*
X21000000Y67000000D03*
X3000000Y67000000D03*
X21000000Y8000000D03*
G04 --- BOARD END --- *
G04 #@! TF.MD5,7b8dc2df2a790ebacc995ad703186406*
M02*
