G04 --- HEADER BEGIN --- *
G04 #@! TF.GenerationSoftware,LibrePCB,LibrePCB,2.1.1*
G04 #@! TF.CreationDate,2026-10-04T20:14:45*
G04 #@! TF.ProjectId,CO2-Sensor,06764a5f-d6f5-4d99-a3b7-4686052c3b4a,v1*
G04 #@! TF.Part,Single*
G04 #@! TF.SameCoordinates*
G04 #@! TF.FileFunction,Paste,Top*
G04 #@! TF.FilePolarity,Positive*
%FSLAX66Y66*%
%MOMM*%
G01*
G75*
G04 --- HEADER END --- *
G04 --- APERTURE LIST BEGIN --- *
%ADD10R,0.32X0.42*%
%ADD11R,0.8X0.8*%
%ADD12R,0.72X1.32*%
%ADD13R,1.32X0.72*%
%ADD14R,0.42X0.32*%
%ADD15R,0.28X0.43*%
%AMROUNDEDRECT16*20,1,0.64,-0.55,0.0,0.55,0.0,0.0*20,1,0.4,-0.67,0.0,0.67,0.0,0.0*1,1,0.24,-0.55,0.2*1,1,0.24,0.55,0.2*1,1,0.24,0.55,-0.2*1,1,0.24,-0.55,-0.2*%
%ADD16ROUNDEDRECT16*%
%AMROUNDEDRECT17*20,1,0.64,-0.55,0.0,0.55,0.0,90.0*20,1,0.4,-0.67,0.0,0.67,0.0,90.0*1,1,0.24,-0.2,-0.55*1,1,0.24,-0.2,0.55*1,1,0.24,0.2,0.55*1,1,0.24,0.2,-0.55*%
%ADD17ROUNDEDRECT17*%
%AMROUNDEDRECT18*20,1,1.6,-0.75,0.0,0.75,0.0,0.0*20,1,1.5,-0.8,0.0,0.8,0.0,0.0*1,1,0.1,-0.75,0.75*1,1,0.1,0.75,0.75*1,1,0.1,0.75,-0.75*1,1,0.1,-0.75,-0.75*%
%ADD18ROUNDEDRECT18*%
%ADD19R,0.43X0.28*%
%ADD20R,1.08X0.68*%
%ADD21R,0.69X0.64*%
%AMROUNDEDRECT22*20,1,0.24,-0.26,0.0,0.26,0.0,0.0*20,1,0.15,-0.305,0.0,0.305,0.0,0.0*1,1,0.09,-0.26,0.075*1,1,0.09,0.26,0.075*1,1,0.09,0.26,-0.075*1,1,0.09,-0.26,-0.075*%
%ADD22ROUNDEDRECT22*%
%AMROUNDEDRECT23*20,1,1.12,-0.58,0.0,0.58,0.0,90.0*20,1,0.91,-0.685,0.0,0.685,0.0,90.0*1,1,0.21,-0.455,-0.58*1,1,0.21,-0.455,0.58*1,1,0.21,0.455,0.58*1,1,0.21,0.455,-0.58*%
%ADD23ROUNDEDRECT23*%
%AMROUNDEDRECT24*20,1,0.96,-0.754,0.0,0.754,0.0,90.0*20,1,0.708,-0.88,0.0,0.88,0.0,90.0*1,1,0.252,-0.354,-0.754*1,1,0.252,-0.354,0.754*1,1,0.252,0.354,0.754*1,1,0.252,0.354,-0.754*%
%ADD24ROUNDEDRECT24*%
G04 --- APERTURE LIST END --- *
G04 --- BOARD BEGIN --- *
D10*
G04 #@! TO.C,C3*
X10500000Y56100000D03*
X9700000Y56100000D03*
D11*
G04 #@! TO.C,U4*
X9140000Y38410000D03*
D12*
X15175000Y24500000D03*
D13*
X3250000Y40990000D03*
X3250000Y32100000D03*
D11*
X12140000Y36910000D03*
X9140000Y35410000D03*
D13*
X20750000Y38490000D03*
X3250000Y29560000D03*
X3250000Y28290000D03*
X20750000Y33410000D03*
D12*
X12635000Y24500000D03*
D13*
X20750000Y41030000D03*
X20750000Y42300000D03*
D12*
X6285000Y24500000D03*
D13*
X3250000Y34640000D03*
X20750000Y30870000D03*
D12*
X13905000Y24500000D03*
X16445000Y24500000D03*
D13*
X20750000Y39760000D03*
X20750000Y25790000D03*
D11*
X10640000Y35410000D03*
D13*
X3250000Y25750000D03*
D12*
X17715000Y24500000D03*
D11*
X9140000Y36910000D03*
D13*
X20750000Y27060000D03*
X20750000Y34680000D03*
D12*
X10095000Y24500000D03*
D13*
X3250000Y39720000D03*
X20750000Y28330000D03*
D11*
X12140000Y35410000D03*
X10640000Y38410000D03*
D13*
X3250000Y30830000D03*
D11*
X12140000Y38410000D03*
D12*
X7555000Y24500000D03*
X5015000Y24500000D03*
D13*
X20750000Y35950000D03*
X20750000Y37220000D03*
D12*
X18985000Y24500000D03*
D11*
X10640000Y36910000D03*
D13*
X3250000Y37180000D03*
X20750000Y32140000D03*
X3250000Y42260000D03*
X3250000Y33370000D03*
X3250000Y35910000D03*
X3250000Y27020000D03*
D12*
X8825000Y24500000D03*
D13*
X3250000Y38450000D03*
X20750000Y29600000D03*
D12*
X11365000Y24500000D03*
D10*
G04 #@! TO.C,C2*
X20700000Y17700000D03*
X19900000Y17700000D03*
D14*
G04 #@! TO.C,C5*
X900000Y41200000D03*
X900000Y42000000D03*
D15*
G04 #@! TO.C,R9*
X12375000Y56100000D03*
X13225000Y56100000D03*
D16*
G04 #@! TO.C,U3*
X16000000Y60750000D03*
D17*
X12000000Y66000000D03*
X9500000Y58000000D03*
D16*
X16000000Y59500000D03*
X16000000Y63250000D03*
X8000000Y60750000D03*
X8000000Y63250000D03*
X8000000Y62000000D03*
X16000000Y64500000D03*
D17*
X10750000Y66000000D03*
D16*
X16000000Y62000000D03*
D17*
X13250000Y66000000D03*
D18*
X13250000Y63250000D03*
D16*
X8000000Y64500000D03*
D17*
X12000000Y58000000D03*
X10750000Y58000000D03*
D16*
X8000000Y59500000D03*
D18*
X10750000Y60750000D03*
X13250000Y60750000D03*
X10750000Y63250000D03*
D17*
X14500000Y66000000D03*
X9500000Y66000000D03*
X14500000Y58000000D03*
X13250000Y58000000D03*
D15*
G04 #@! TO.C,R8*
X15425000Y56100000D03*
X14575000Y56100000D03*
D19*
G04 #@! TO.C,R6*
X12500000Y11025000D03*
X12500000Y10175000D03*
G04 #@! TO.C,R5*
X19000000Y23025000D03*
X19000000Y22175000D03*
D14*
G04 #@! TO.C,C4*
X17100000Y11100000D03*
X17100000Y10300000D03*
D19*
G04 #@! TO.C,R4*
X23100000Y20625000D03*
X23100000Y19775000D03*
D20*
G04 #@! TO.C,L2*
X15600000Y9275000D03*
X15600000Y11125000D03*
D15*
G04 #@! TO.C,R1*
X1825000Y39700000D03*
X975000Y39700000D03*
D21*
G04 #@! TO.C,C1*
X18825000Y17700000D03*
X17375000Y17700000D03*
D19*
G04 #@! TO.C,R3*
X23100000Y19025000D03*
X23100000Y18175000D03*
D15*
G04 #@! TO.C,R10*
X23225000Y25800000D03*
X22375000Y25800000D03*
D22*
G04 #@! TO.C,U2*
X20560000Y19400000D03*
X22040000Y19900000D03*
X20560000Y19900000D03*
X20560000Y18900000D03*
X22040000Y19400000D03*
X22040000Y18900000D03*
D19*
G04 #@! TO.C,R7*
X11500000Y11025000D03*
X11500000Y10175000D03*
D23*
G04 #@! TO.C,L1*
X19105000Y19425000D03*
X17105000Y19425000D03*
D24*
G04 #@! TO.C,X1*
X8500000Y5300000D03*
X15500000Y5300000D03*
X13000000Y5300000D03*
X11000000Y5300000D03*
D19*
G04 #@! TO.C,R2*
X6200000Y22825000D03*
X6200000Y21975000D03*
G04 --- BOARD END --- *
G04 #@! TF.MD5,dfaaa165a399fcfa5a853ba969787c56*
M02*
