G04 --- HEADER BEGIN --- *
G04 #@! TF.GenerationSoftware,LibrePCB,LibrePCB,2.1.1*
G04 #@! TF.CreationDate,2026-10-04T20:14:45*
G04 #@! TF.ProjectId,CO2-Sensor,06764a5f-d6f5-4d99-a3b7-4686052c3b4a,v1*
G04 #@! TF.Part,Single*
G04 #@! TF.SameCoordinates*
G04 #@! TF.FileFunction,Soldermask,Bot*
G04 #@! TF.FilePolarity,Negative*
%FSLAX66Y66*%
%MOMM*%
G01*
G75*
G04 --- HEADER END --- *
G04 --- APERTURE LIST BEGIN --- *
%ADD10O,1.787X2.39*%
%AMROUNDEDRECT11*20,1,1.787,-1.095,0.0,1.095,0.0,90.0*20,1,1.587,-1.195,0.0,1.195,0.0,90.0*1,1,0.2,-0.7935,-1.095*1,1,0.2,-0.7935,1.095*1,1,0.2,0.7935,1.095*1,1,0.2,0.7935,-1.095*%
%ADD11ROUNDEDRECT11*%
%AMROUNDEDRECT12*20,1,0.55,-0.25,0.0,0.25,0.0,0.0*20,1,0.35,-0.35,0.0,0.35,0.0,0.0*1,1,0.2,-0.25,0.175*1,1,0.2,0.25,0.175*1,1,0.2,0.25,-0.175*1,1,0.2,-0.25,-0.175*%
%ADD12ROUNDEDRECT12*%
%AMROUNDEDRECT13*20,1,0.5,-0.575,0.0,0.575,0.0,90.0*20,1,0.3,-0.675,0.0,0.675,0.0,90.0*1,1,0.2,-0.15,-0.575*1,1,0.2,-0.15,0.575*1,1,0.2,0.15,0.575*1,1,0.2,0.15,-0.575*%
%ADD13ROUNDEDRECT13*%
%ADD14O,1.2X2.0*%
%AMROUNDEDRECT15*20,1,0.8,-0.575,0.0,0.575,0.0,90.0*20,1,0.6,-0.675,0.0,0.675,0.0,90.0*1,1,0.2,-0.3,-0.575*1,1,0.2,-0.3,0.575*1,1,0.2,0.3,0.575*1,1,0.2,0.3,-0.575*%
%ADD15ROUNDEDRECT15*%
%ADD16O,1.2X2.3*%
%ADD17C,0.85*%
%ADD18O,1.8X4.2*%
%ADD19C,1.7*%
%ADD20C,3.4*%
G04 --- APERTURE LIST END --- *
G04 --- BOARD BEGIN --- *
D10*
G04 #@! TO.C,J2*
X8170000Y18000000D03*
D11*
X10710000Y18000000D03*
D10*
X3090000Y18000000D03*
X5630000Y18000000D03*
D12*
G04 #@! TO.C,R11*
X10200000Y9475000D03*
X10200000Y10325000D03*
G04 #@! TO.C,R12*
X13300000Y9475000D03*
X13300000Y10325000D03*
D13*
G04 #@! TO.C,J1*
X13750000Y7980000D03*
X12250000Y7980000D03*
X12750000Y7980000D03*
X10250000Y7980000D03*
D14*
X16320000Y3225000D03*
D15*
X15200000Y7980000D03*
D16*
X7680000Y7405000D03*
D13*
X10750000Y7980000D03*
D14*
X7680000Y3225000D03*
D15*
X8800000Y7980000D03*
X14400000Y7980000D03*
D13*
X13250000Y7980000D03*
D16*
X16320000Y7405000D03*
D13*
X11250000Y7980000D03*
X11750000Y7980000D03*
D15*
X9600000Y7980000D03*
D17*
G04 #@! TD*
X9110000Y6905000D03*
X14890000Y6905000D03*
D18*
G04 #@! TO.C,X1*
X6300000Y2700000D03*
X17700000Y2700000D03*
D19*
G04 #@! TD*
X14250000Y2700000D03*
X9750000Y2700000D03*
D10*
G04 #@! TO.C,J3*
X8190000Y14400000D03*
X13270000Y14400000D03*
X15810000Y14400000D03*
X3110000Y14400000D03*
D11*
X20890000Y14400000D03*
D10*
X18350000Y14400000D03*
X10730000Y14400000D03*
X5650000Y14400000D03*
D20*
G04 #@! TD*
X3000000Y8000000D03*
X21000000Y67000000D03*
X3000000Y67000000D03*
X21000000Y8000000D03*
G04 --- BOARD END --- *
G04 #@! TF.MD5,07c42ef6fe121ef2f48ce1bc496a1c53*
M02*
