ISO-10303-21;
HEADER;
FILE_DESCRIPTION (( 'STEP AP214' ),
'1' );
FILE_NAME ('LQM21PNR47MGHL.STEP',
'2020-01-17T10:06:41',
( '' ),
( '' ),
'SwSTEP 2.0',
'SolidWorks 2017',
'' );
FILE_SCHEMA (( 'AUTOMOTIVE_DESIGN' ));
ENDSEC;
DATA;
#1=ORIENTED_EDGE ( 'NONE', *, *, #912, .T. );
#2=DIRECTION ( 'NONE',  ( 0.0000000000000000000, 1.000000000000000000, 0.0000000000000000000 ) );
#3=DIRECTION ( 'NONE',  ( -1.000000000000000000, -0.0000000000000000000, 8.673617379884036700E-017 ) );
#4=MANIFOLD_SOLID_BREP ( 'Boss-Extrude2', #12 );
#5=VERTEX_POINT ( 'NONE', #338 );
#6=DIRECTION ( 'NONE',  ( 0.0000000000000000000, -1.000000000000000000, 0.0000000000000000000 ) );
#7=CARTESIAN_POINT ( 'NONE',  ( 0.4999999999881765700, 0.9499999999999999600, -0.5750000000000000700 ) );
#8=VECTOR ( 'NONE', #82, 1000.000000000000000 );
#9=VECTOR ( 'NONE', #94, 1000.000000000000000 );
#10=EDGE_CURVE ( 'NONE', #561, #412, #198, .T. );
#11=CARTESIAN_POINT ( 'NONE',  ( 1.000000000000000200, 1.000000000000000000, -0.5750000000000001800 ) );
#12=CLOSED_SHELL ( 'NONE', ( #100, #358, #346, #270, #732, #794, #772, #470, #320, #175 ) );
#13=ORIENTED_EDGE ( 'NONE', *, *, #248, .T. );
#14=( NAMED_UNIT ( * ) SI_UNIT ( $, .STERADIAN. ) SOLID_ANGLE_UNIT ( ) );
#15=DIRECTION ( 'NONE',  ( 1.000000000000000000, 0.0000000000000000000, -8.673617379884036700E-017 ) );
#16=DIRECTION ( 'NONE',  ( -1.000000000000000000, 0.0000000000000000000, 0.0000000000000000000 ) );
#17=ORIENTED_EDGE ( 'NONE', *, *, #882, .F. );
#18=ADVANCED_FACE ( 'NONE', ( #44 ), #360, .T. );
#19=CARTESIAN_POINT ( 'NONE',  ( 0.9500000000000001800, 1.000000000000000000, -0.5750000000000001800 ) );
#20=ORIENTED_EDGE ( 'NONE', *, *, #644, .T. );
#21=PLANE ( 'NONE',  #811 );
#22=VERTEX_POINT ( 'NONE', #706 );
#23=VECTOR ( 'NONE', #91, 1000.000000000000000 );
#24=SURFACE_SIDE_STYLE ('',( #252 ) );
#25=ADVANCED_FACE ( 'NONE', ( #441 ), #807, .T. );
#26=FACE_OUTER_BOUND ( 'NONE', #890, .T. );
#27=EDGE_CURVE ( 'NONE', #554, #69, #174, .T. );
#28=VECTOR ( 'NONE', #356, 1000.000000000000000 );
#29=DIRECTION ( 'NONE',  ( 0.0000000000000000000, -0.0000000000000000000, 1.000000000000000000 ) );
#30=ORIENTED_EDGE ( 'NONE', *, *, #516, .F. );
#31=ORIENTED_EDGE ( 'NONE', *, *, #62, .T. );
#32=CARTESIAN_POINT ( 'NONE',  ( 0.5000000000000002200, 1.000000000000000000, -0.6250000000000002200 ) );
#33=DIRECTION ( 'NONE',  ( 0.0000000000000000000, 0.0000000000000000000, -1.000000000000000000 ) );
#34=AXIS2_PLACEMENT_3D ( 'NONE', #624, #82, #757 );
#35=VERTEX_POINT ( 'NONE', #89 );
#36=EDGE_CURVE ( 'NONE', #635, #672, #427, .T. );
#37=FILL_AREA_STYLE ('',( #112 ) );
#38=VERTEX_POINT ( 'NONE', #50 );
#39=SPHERICAL_SURFACE ( 'NONE', #309, 0.05000000000000000300 );
#40=ADVANCED_FACE ( 'NONE', ( #531 ), #582, .T. );
#41=PLANE ( 'NONE',  #189 );
#42=PLANE ( 'NONE',  #453 );
#43=FACE_OUTER_BOUND ( 'NONE', #816, .T. );
#44=FACE_OUTER_BOUND ( 'NONE', #200, .T. );
#45=ORIENTED_EDGE ( 'NONE', *, *, #248, .F. );
#46=DIRECTION ( 'NONE',  ( -0.0000000000000000000, -0.0000000000000000000, -1.000000000000000000 ) );
#47=ADVANCED_FACE ( 'NONE', ( #185 ), #954, .T. );
#48=VERTEX_POINT ( 'NONE', #845 );
#49=ORIENTED_EDGE ( 'NONE', *, *, #932, .T. );
#50=CARTESIAN_POINT ( 'NONE',  ( 0.5000000000000002200, 0.9499999999999999600, -0.6250000000000002200 ) );
#51=ORIENTED_EDGE ( 'NONE', *, *, #599, .F. );
#52=EDGE_LOOP ( 'NONE', ( #480, #815, #224 ) );
#53=ORIENTED_EDGE ( 'NONE', *, *, #397, .F. );
#54=EDGE_CURVE ( 'NONE', #69, #635, #282, .T. );
#55=FACE_OUTER_BOUND ( 'NONE', #621, .T. );
#56=DIRECTION ( 'NONE',  ( 1.000000000000000000, 0.0000000000000000000, 1.734723475976807300E-016 ) );
#57=FACE_OUTER_BOUND ( 'NONE', #416, .T. );
#58=AXIS2_PLACEMENT_3D ( 'NONE', #338, #637, #33 );
#59=CARTESIAN_POINT ( 'NONE',  ( 0.9500000000000001800, 0.9499999999999999600, -0.5750000000000001800 ) );
#60=VERTEX_POINT ( 'NONE', #166 );
#61=CARTESIAN_POINT ( 'NONE',  ( 0.4999999999881765700, 0.9499999999999999600, 0.6083333333333331700 ) );
#62=EDGE_CURVE ( 'NONE', #674, #554, #83, .T. );
#63=SURFACE_STYLE_FILL_AREA ( #37 );
#64=( NAMED_UNIT ( * ) PLANE_ANGLE_UNIT ( ) SI_UNIT ( $, .RADIAN. ) );
#65=AXIS2_PLACEMENT_3D ( 'NONE', #830, #447, #91 );
#66=DIRECTION ( 'NONE',  ( 0.0000000000000000000, 0.0000000000000000000, 1.000000000000000000 ) );
#67=CIRCLE ( 'NONE', #498, 0.05000000000000002400 );
#68=LINE ( 'NONE', #272, #23 );
#69=VERTEX_POINT ( 'NONE', #712 );
#70=EDGE_CURVE ( 'NONE', #561, #601, #965, .T. );
#71=AXIS2_PLACEMENT_3D ( 'NONE', #721, #2, #29 );
#72=CARTESIAN_POINT ( 'NONE',  ( -0.9500000000000001800, 0.9499999999999999600, -0.5750000000000001800 ) );
#73=ORIENTED_EDGE ( 'NONE', *, *, #805, .T. );
#74=EDGE_CURVE ( 'NONE', #76, #247, #864, .T. );
#75=CARTESIAN_POINT ( 'NONE',  ( -0.5000000000000001100, 0.05000000000000002400, 0.6083333333333330600 ) );
#76=VERTEX_POINT ( 'NONE', #255 );
#77=ADVANCED_FACE ( 'NONE', ( #560 ), #571, .F. );
#78=FACE_OUTER_BOUND ( 'NONE', #889, .T. );
#79=DIRECTION ( 'NONE',  ( -0.0000000000000000000, 1.000000000000000000, -0.0000000000000000000 ) );
#80=CARTESIAN_POINT ( 'NONE',  ( 500000.0000000000600, 0.9833333333333335000, 0.5749999999566313100 ) );
#81=VECTOR ( 'NONE', #637, 1000.000000000000000 );
#82=DIRECTION ( 'NONE',  ( 1.734723475976807300E-016, 0.0000000000000000000, -1.000000000000000000 ) );
#83=LINE ( 'NONE', #500, #497 );
#84=EDGE_CURVE ( 'NONE', #797, #625, #211, .T. );
#85=PRESENTATION_LAYER_ASSIGNMENT (  '', '', ( #737 ) );
#86=ORIENTED_EDGE ( 'NONE', *, *, #669, .T. );
#87=FACE_OUTER_BOUND ( 'NONE', #936, .T. );
#88=AXIS2_PLACEMENT_3D ( 'NONE', #213, #6, #33 );
#89=CARTESIAN_POINT ( 'NONE',  ( -0.5000000000000001100, 0.9499999999999999600, 0.6083333333333331700 ) );
#90=( GEOMETRIC_REPRESENTATION_CONTEXT ( 3 ) GLOBAL_UNCERTAINTY_ASSIGNED_CONTEXT ( ( #141 ) ) GLOBAL_UNIT_ASSIGNED_CONTEXT ( ( #257, #64, #14 ) ) REPRESENTATION_CONTEXT ( 'NONE', 'WORKASPACE' ) );
#91=DIRECTION ( 'NONE',  ( 1.000000000000000000, 0.0000000000000000000, 0.0000000000000000000 ) );
#92=EDGE_CURVE ( 'NONE', #108, #939, #331, .T. );
#93=FACE_OUTER_BOUND ( 'NONE', #105, .T. );
#94=DIRECTION ( 'NONE',  ( 1.000000000000000000, -0.0000000000000000000, -0.0000000000000000000 ) );
#95=ORIENTED_EDGE ( 'NONE', *, *, #443, .T. );
#96=CARTESIAN_POINT ( 'NONE',  ( 0.0000000000000000000, 0.9499999999999999600, -0.5750000000000001800 ) );
#97=ORIENTED_EDGE ( 'NONE', *, *, #298, .T. );
#98=EDGE_LOOP ( 'NONE', ( #253, #501, #239, #834 ) );
#99=DIRECTION ( 'NONE',  ( -8.673617379884036700E-017, 0.0000000000000000000, -1.000000000000000000 ) );
#100=ADVANCED_FACE ( 'NONE', ( #796 ), #42, .T. );
#101=CARTESIAN_POINT ( 'NONE',  ( -1.000000000000000000, 1.000000000000000000, 0.6249999999999995600 ) );
#102=VECTOR ( 'NONE', #151, 1000.000000000000000 );
#103=CARTESIAN_POINT ( 'NONE',  ( 0.5000000000000000000, 0.0000000000000000000, 0.5749999999999994000 ) );
#104=EDGE_CURVE ( 'NONE', #672, #144, #620, .T. );
#105=EDGE_LOOP ( 'NONE', ( #773, #445, #301 ) );
#106=ORIENTED_EDGE ( 'NONE', *, *, #287, .F. );
#107=PLANE ( 'NONE',  #281 );
#108=VERTEX_POINT ( 'NONE', #830 );
#109=ORIENTED_EDGE ( 'NONE', *, *, #634, .F. );
#110=STYLED_ITEM ( 'NONE', ( #540 ), #802 );
#111=CARTESIAN_POINT ( 'NONE',  ( 0.9499999999999999600, 0.9499999999999999600, 0.5749999999999995100 ) );
#112=FILL_AREA_STYLE_COLOUR ( '', #181 );
#113=VERTEX_POINT ( 'NONE', #573 );
#114=ADVANCED_FACE ( 'NONE', ( #609 ), #386, .T. );
#115=FACE_OUTER_BOUND ( 'NONE', #813, .T. );
#116=FACE_OUTER_BOUND ( 'NONE', #469, .T. );
#117=CARTESIAN_POINT ( 'NONE',  ( -0.9499999999999999600, 1.000000000000000000, 0.5749999999999995100 ) );
#118=EDGE_CURVE ( 'NONE', #730, #60, #415, .T. );
#119=LINE ( 'NONE', #576, #9 );
#120=CARTESIAN_POINT ( 'NONE',  ( -0.9499999999999999600, 0.9499999999999999600, 0.5749999999999995100 ) );
#121=CARTESIAN_POINT ( 'NONE',  ( 0.9499999999999999600, 1.000000000000000000, 0.6249999999999995600 ) );
#122=EDGE_CURVE ( 'NONE', #136, #291, #849, .T. );
#123=CLOSED_SHELL ( 'NONE', ( #420, #77, #865, #656, #494, #726, #714, #424, #663, #114, #846, #25, #289, #47, #18, #258, #364, #578 ) );
#124=ORIENTED_EDGE ( 'NONE', *, *, #365, .T. );
#125=EDGE_CURVE ( 'NONE', #687, #730, #68, .T. );
#126=AXIS2_PLACEMENT_3D ( 'NONE', #285, #6, #16 );
#127=VERTEX_POINT ( 'NONE', #117 );
#128=PLANE ( 'NONE',  #423 );
#129=EDGE_CURVE ( 'NONE', #674, #896, #832, .T. );
#130=ORIENTED_EDGE ( 'NONE', *, *, #492, .F. );
#131=FACE_OUTER_BOUND ( 'NONE', #229, .T. );
#132=VECTOR ( 'NONE', #208, 1000.000000000000000 );
#133=FACE_OUTER_BOUND ( 'NONE', #886, .T. );
#134=CARTESIAN_POINT ( 'NONE',  ( 0.9500000000000001800, 1.000000000000000000, -0.6250000000000002200 ) );
#135=ORIENTED_EDGE ( 'NONE', *, *, #104, .T. );
#136=VERTEX_POINT ( 'NONE', #506 );
#137=CARTESIAN_POINT ( 'NONE',  ( 1.000000000000000000, 0.05000000000000002400, 0.6249999999999995600 ) );
#138=EDGE_CURVE ( 'NONE', #543, #523, #768, .T. );
#139=AXIS2_PLACEMENT_3D ( 'NONE', #72, #356, #66 );
#140=CARTESIAN_POINT ( 'NONE',  ( -0.9500000000000001800, 0.0000000000000000000, -0.5750000000000001800 ) );
#141=UNCERTAINTY_MEASURE_WITH_UNIT (LENGTH_MEASURE( 1.000000000000000100E-005 ), #257, 'distance_accuracy_value', 'NONE');
#142=VECTOR ( 'NONE', #3, 1000.000000000000000 );
#143=DIRECTION ( 'NONE',  ( -1.000000000000000000, -0.0000000000000000000, -0.0000000000000000000 ) );
#144=VERTEX_POINT ( 'NONE', #450 );
#145=EDGE_CURVE ( 'NONE', #136, #113, #396, .T. );
#146=PRODUCT_DEFINITION_CONTEXT ( 'detailed design', #183, 'design' );
#147=ORIENTED_EDGE ( 'NONE', *, *, #384, .F. );
#148=ADVANCED_FACE ( 'NONE', ( #479 ), #107, .F. );
#149=SPHERICAL_SURFACE ( 'NONE', #463, 0.05000000000000000300 );
#150=ORIENTED_EDGE ( 'NONE', *, *, #203, .F. );
#151=DIRECTION ( 'NONE',  ( -1.734723475976807300E-016, 0.0000000000000000000, 1.000000000000000000 ) );
#152=EDGE_CURVE ( 'NONE', #959, #5, #657, .T. );
#153=ORIENTED_EDGE ( 'NONE', *, *, #818, .F. );
#154=ORIENTED_EDGE ( 'NONE', *, *, #618, .F. );
#155=AXIS2_PLACEMENT_3D ( 'NONE', #569, #46, #16 );
#156=CARTESIAN_POINT ( 'NONE',  ( -1.000000000000000200, 0.05000000000000002400, -0.5750000000000001800 ) );
#157=VERTEX_POINT ( 'NONE', #284 );
#158=CARTESIAN_POINT ( 'NONE',  ( -0.5000000000000000000, 0.9499999999999999600, 0.5749999999999995100 ) );
#159=EDGE_LOOP ( 'NONE', ( #874, #392, #679 ) );
#160=LINE ( 'NONE', #961, #102 );
#161=EDGE_CURVE ( 'NONE', #525, #324, #267, .T. );
#162=LINE ( 'NONE', #579, #184 );
#163=LINE ( 'NONE', #352, #28 );
#164=AXIS2_PLACEMENT_3D ( 'NONE', #379, #15, #33 );
#165=ORIENTED_EDGE ( 'NONE', *, *, #74, .T. );
#166=CARTESIAN_POINT ( 'NONE',  ( 0.9500000000000001800, 0.0000000000000000000, -0.5750000000000001800 ) );
#167=VERTEX_POINT ( 'NONE', #194 );
#168=EDGE_LOOP ( 'NONE', ( #30, #388, #538, #176 ) );
#169=SURFACE_STYLE_USAGE ( .BOTH. , #532 );
#170=EDGE_CURVE ( 'NONE', #730, #523, #784, .T. );
#171=EDGE_CURVE ( 'NONE', #597, #939, #913, .T. );
#172=CARTESIAN_POINT ( 'NONE',  ( -0.9499999999999999600, 0.0000000000000000000, 0.5749999999999995100 ) );
#173=CIRCLE ( 'NONE', #799, 0.03333333333333345800 );
#174=CIRCLE ( 'NONE', #139, 0.05000000000000002400 );
#175=ADVANCED_FACE ( 'NONE', ( #456 ), #296, .T. );
#176=ORIENTED_EDGE ( 'NONE', *, *, #125, .F. );
#177=ORIENTED_EDGE ( 'NONE', *, *, #742, .T. );
#178=DIRECTION ( 'NONE',  ( -1.000000000000000000, 0.0000000000000000000, -0.0000000000000000000 ) );
#179=ORIENTED_EDGE ( 'NONE', *, *, #236, .F. );
#180=EDGE_LOOP ( 'NONE', ( #130, #398, #855, #600, #150, #902, #822, #154 ) );
#181=COLOUR_RGB ( '',0.7921568627450980000, 0.8196078431372548800, 0.9333333333333333500 );
#182=FACE_OUTER_BOUND ( 'NONE', #801, .T. );
#183=APPLICATION_CONTEXT ( 'automotive_design' );
#184=VECTOR ( 'NONE', #16, 1000.000000000000000 );
#185=FACE_OUTER_BOUND ( 'NONE', #868, .T. );
#186=ORIENTED_EDGE ( 'NONE', *, *, #138, .F. );
#187=CARTESIAN_POINT ( 'NONE',  ( -0.5000000000000001100, 0.9833333333333335000, -0.5750000000000000700 ) );
#188=AXIS2_PLACEMENT_3D ( 'NONE', #158, #234, #628 );
#189=AXIS2_PLACEMENT_3D ( 'NONE', #197, #99, #668 );
#190=EDGE_CURVE ( 'NONE', #698, #672, #873, .T. );
#191=ORIENTED_EDGE ( 'NONE', *, *, #968, .T. );
#192=ORIENTED_EDGE ( 'NONE', *, *, #70, .F. );
#193=CIRCLE ( 'NONE', #777, 0.05000000000000002400 );
#194=CARTESIAN_POINT ( 'NONE',  ( 0.5000000000000000000, 1.000000000000000000, 0.5749999999999994000 ) );
#195=ADVANCED_FACE ( 'NONE', ( #499 ), #128, .F. );
#196=VECTOR ( 'NONE', #447, 1000.000000000000000 );
#197=CARTESIAN_POINT ( 'NONE',  ( 500000.0000000000600, 0.9499999999999999600, 0.6083333332899649700 ) );
#198=LINE ( 'NONE', #80, #142 );
#199=ORIENTED_EDGE ( 'NONE', *, *, #748, .F. );
#200=EDGE_LOOP ( 'NONE', ( #584, #677, #341, #355 ) );
#201=ORIENTED_EDGE ( 'NONE', *, *, #869, .F. );
#202=CARTESIAN_POINT ( 'NONE',  ( 0.4999999999881765700, 0.01666666666666666600, 0.5749999998698953600 ) );
#203=EDGE_CURVE ( 'NONE', #670, #797, #425, .T. );
#204=CARTESIAN_POINT ( 'NONE',  ( -0.9499999999999999600, 1.000000000000000000, 0.6249999999999995600 ) );
#205=AXIS2_PLACEMENT_3D ( 'NONE', #59, #143, #66 );
#206=ORIENTED_EDGE ( 'NONE', *, *, #826, .F. );
#207=SPHERICAL_SURFACE ( 'NONE', #394, 0.05000000000000000300 );
#208=DIRECTION ( 'NONE',  ( 1.734723475976807300E-016, -0.0000000000000000000, -1.000000000000000000 ) );
#209=CIRCLE ( 'NONE', #678, 0.05000000000000002400 );
#210=CIRCLE ( 'NONE', #188, 0.05000000000000002400 );
#211=LINE ( 'NONE', #723, #905 );
#212=EDGE_CURVE ( 'NONE', #254, #827, #581, .T. );
#213=CARTESIAN_POINT ( 'NONE',  ( -0.9499999999999999600, 0.05000000000000002400, 0.5749999999999995100 ) );
#214=EDGE_LOOP ( 'NONE', ( #843, #948, #856, #754 ) );
#215=EDGE_CURVE ( 'NONE', #597, #254, #345, .T. );
#216=PRODUCT ( 'LQM21PNR47MGHL', 'LQM21PNR47MGHL', '', ( #775 ) );
#217=EDGE_CURVE ( 'NONE', #108, #69, #934, .T. );
#218=ORIENTED_EDGE ( 'NONE', *, *, #170, .T. );
#219=ORIENTED_EDGE ( 'NONE', *, *, #232, .T. );
#220=FACE_OUTER_BOUND ( 'NONE', #648, .T. );
#221=VECTOR ( 'NONE', #385, 1000.000000000000000 );
#222=EDGE_CURVE ( 'NONE', #554, #144, #373, .T. );
#223=AXIS2_PLACEMENT_3D ( 'NONE', #414, #143, #66 );
#224=ORIENTED_EDGE ( 'NONE', *, *, #273, .F. );
#225=EDGE_CURVE ( 'NONE', #418, #48, #119, .T. );
#226=ORIENTED_EDGE ( 'NONE', *, *, #583, .T. );
#227=ORIENTED_EDGE ( 'NONE', *, *, #122, .T. );
#228=AXIS2_PLACEMENT_3D ( 'NONE', #120, #16, #66 );
#229=EDGE_LOOP ( 'NONE', ( #909, #568, #862, #429, #665, #53, #937, #789 ) );
#230=ORIENTED_EDGE ( 'NONE', *, *, #152, .F. );
#231=LINE ( 'NONE', #204, #196 );
#232=EDGE_CURVE ( 'NONE', #896, #316, #455, .T. );
#233=LINE ( 'NONE', #308, #383 );
#234=DIRECTION ( 'NONE',  ( 1.000000000000000000, -0.0000000000000000000, -1.734723475976807300E-016 ) );
#235=CYLINDRICAL_SURFACE ( 'NONE', #740, 0.05000000000000002400 );
#236=EDGE_CURVE ( 'NONE', #635, #827, #163, .T. );
#237=ORIENTED_EDGE ( 'NONE', *, *, #161, .T. );
#238=PRODUCT_RELATED_PRODUCT_CATEGORY ( 'part', '', ( #216 ) );
#239=ORIENTED_EDGE ( 'NONE', *, *, #465, .F. );
#240=( GEOMETRIC_REPRESENTATION_CONTEXT ( 3 ) GLOBAL_UNCERTAINTY_ASSIGNED_CONTEXT ( ( #141 ) ) GLOBAL_UNIT_ASSIGNED_CONTEXT ( ( #257, #64, #14 ) ) REPRESENTATION_CONTEXT ( 'NONE', 'WORKASPACE' ) );
#241=DIRECTION ( 'NONE',  ( -1.000000000000000000, 0.0000000000000000000, 1.734723475976811800E-016 ) );
#242=CARTESIAN_POINT ( 'NONE',  ( 1.000000000000000200, 1.000000000000000000, -0.6250000000000002200 ) );
#243=EDGE_LOOP ( 'NONE', ( #219, #589, #771, #967 ) );
#244=AXIS2_PLACEMENT_3D ( 'NONE', #435, #15, #33 );
#245=STYLED_ITEM ( 'NONE', ( #540 ), #922 );
#246=SHAPE_DEFINITION_REPRESENTATION ( #804, #922 );
#247=VERTEX_POINT ( 'NONE', #314 );
#248=EDGE_CURVE ( 'NONE', #959, #316, #758, .T. );
#249=DIRECTION ( 'NONE',  ( 1.734723475976807300E-016, 0.0000000000000000000, 1.000000000000000000 ) );
#250=FILL_AREA_STYLE_COLOUR ( '', #596 );
#251=CYLINDRICAL_SURFACE ( 'NONE', #831, 0.03333333333333345800 );
#252=SURFACE_STYLE_FILL_AREA ( #490 );
#253=ORIENTED_EDGE ( 'NONE', *, *, #36, .F. );
#254=VERTEX_POINT ( 'NONE', #542 );
#255=CARTESIAN_POINT ( 'NONE',  ( 0.4999999999881765700, 0.05000000000000002400, -0.6083333333333333900 ) );
#256=ORIENTED_EDGE ( 'NONE', *, *, #487, .F. );
#257=( LENGTH_UNIT ( ) NAMED_UNIT ( * ) SI_UNIT ( .MILLI., .METRE. ) );
#258=ADVANCED_FACE ( 'NONE', ( #781 ), #904, .T. );
#259=ORIENTED_EDGE ( 'NONE', *, *, #945, .T. );
#260=DIRECTION ( 'NONE',  ( -1.734723475976807300E-016, 0.0000000000000000000, -1.000000000000000000 ) );
#261=EDGE_LOOP ( 'NONE', ( #603, #496, #851, #747 ) );
#262=ORIENTED_EDGE ( 'NONE', *, *, #508, .F. );
#263=CYLINDRICAL_SURFACE ( 'NONE', #903, 0.05000000000000002400 );
#264=VECTOR ( 'NONE', #6, 1000.000000000000000 );
#265=LINE ( 'NONE', #32, #132 );
#266=CIRCLE ( 'NONE', #614, 0.03333333333333334700 );
#267=CIRCLE ( 'NONE', #900, 0.03333333333333334700 );
#268=PLANE ( 'NONE',  #792 );
#269=ORIENTED_EDGE ( 'NONE', *, *, #411, .F. );
#270=ADVANCED_FACE ( 'NONE', ( #133 ), #693, .T. );
#271=AXIS2_PLACEMENT_3D ( 'NONE', #430, #91, #66 );
#272=CARTESIAN_POINT ( 'NONE',  ( 1.000000000000000200, 0.05000000000000002400, -0.6250000000000002200 ) );
#273=EDGE_CURVE ( 'NONE', #323, #724, #893, .T. );
#274=EDGE_CURVE ( 'NONE', #290, #733, #716, .T. );
#275=ADVANCED_FACE ( 'NONE', ( #884 ), #702, .T. );
#276=PLANE ( 'NONE',  #810 );
#277=LINE ( 'NONE', #808, #221 );
#278=LINE ( 'NONE', #957, #132 );
#279=( GEOMETRIC_REPRESENTATION_CONTEXT ( 3 ) GLOBAL_UNCERTAINTY_ASSIGNED_CONTEXT ( ( #141 ) ) GLOBAL_UNIT_ASSIGNED_CONTEXT ( ( #257, #64, #14 ) ) REPRESENTATION_CONTEXT ( 'NONE', 'WORKASPACE' ) );
#280=LINE ( 'NONE', #335, #142 );
#281=AXIS2_PLACEMENT_3D ( 'NONE', #721, #2, #66 );
#282=LINE ( 'NONE', #563, #9 );
#283=CARTESIAN_POINT ( 'NONE',  ( 1.000000000000000200, 0.05000000000000002400, -0.5750000000000001800 ) );
#284=CARTESIAN_POINT ( 'NONE',  ( 0.5000000000000002200, 1.000000000000000000, -0.5750000000000001800 ) );
#285=CARTESIAN_POINT ( 'NONE',  ( 0.9500000000000001800, 0.05000000000000000300, -0.5750000000000001800 ) );
#286=ORIENTED_EDGE ( 'NONE', *, *, #138, .T. );
#287=EDGE_CURVE ( 'NONE', #316, #629, #921, .T. );
#288=CARTESIAN_POINT ( 'NONE',  ( 500000.0000000000600, 0.01666666666666666600, 0.5749999999566314200 ) );
#289=ADVANCED_FACE ( 'NONE', ( #941 ), #848, .T. );
#290=VERTEX_POINT ( 'NONE', #701 );
#291=VERTEX_POINT ( 'NONE', #304 );
#292=LINE ( 'NONE', #552, #142 );
#293=FACE_OUTER_BOUND ( 'NONE', #917, .T. );
#294=CARTESIAN_POINT ( 'NONE',  ( 0.9500000000000001800, 0.05000000000000002400, -0.5750000000000001800 ) );
#295=CYLINDRICAL_SURFACE ( 'NONE', #326, 0.05000000000000002400 );
#296=CYLINDRICAL_SURFACE ( 'NONE', #926, 0.03333333333333345800 );
#297=EDGE_LOOP ( 'NONE', ( #192, #710, #177, #147 ) );
#298=EDGE_CURVE ( 'NONE', #22, #113, #486, .T. );
#299=ORIENTED_EDGE ( 'NONE', *, *, #787, .T. );
#300=EDGE_LOOP ( 'NONE', ( #434, #367, #765, #73 ) );
#301=ORIENTED_EDGE ( 'NONE', *, *, #92, .F. );
#302=CARTESIAN_POINT ( 'NONE',  ( 0.4999999999881765700, 0.05000000000000002400, 0.5749999999999996200 ) );
#303=EDGE_CURVE ( 'NONE', #247, #752, #608, .T. );
#304=CARTESIAN_POINT ( 'NONE',  ( 0.9499999999999999600, 1.000000000000000000, 0.5749999999999995100 ) );
#305=ORIENTED_EDGE ( 'NONE', *, *, #888, .T. );
#306=ORIENTED_EDGE ( 'NONE', *, *, #504, .T. );
#307=LINE ( 'NONE', #842, #264 );
#308=CARTESIAN_POINT ( 'NONE',  ( 0.0000000000000000000, 0.0000000000000000000, -0.5750000000000001800 ) );
#309=AXIS2_PLACEMENT_3D ( 'NONE', #59, #6, #16 );
#310=CARTESIAN_POINT ( 'NONE',  ( -0.9499999999999999600, 0.05000000000000000300, 0.5749999999999995100 ) );
#311=EDGE_CURVE ( 'NONE', #444, #418, #559, .T. );
#312=ORIENTED_EDGE ( 'NONE', *, *, #222, .F. );
#313=EDGE_LOOP ( 'NONE', ( #387, #317, #761, #410 ) );
#314=CARTESIAN_POINT ( 'NONE',  ( -0.5000000000000001100, 0.05000000000000002400, -0.6083333333333333900 ) );
#315=ORIENTED_EDGE ( 'NONE', *, *, #397, .T. );
#316=VERTEX_POINT ( 'NONE', #477 );
#317=ORIENTED_EDGE ( 'NONE', *, *, #595, .T. );
#318=CARTESIAN_POINT ( 'NONE',  ( -0.5000000000000000000, 0.05000000000000002400, 0.6249999999999995600 ) );
#319=CARTESIAN_POINT ( 'NONE',  ( -0.9500000000000001800, 0.05000000000000002400, -0.5750000000000001800 ) );
#320=ADVANCED_FACE ( 'NONE', ( #683 ), #328, .F. );
#321=CIRCLE ( 'NONE', #88, 0.05000000000000002400 );
#322=ORIENTED_EDGE ( 'NONE', *, *, #10, .F. );
#323=VERTEX_POINT ( 'NONE', #633 );
#324=VERTEX_POINT ( 'NONE', #697 );
#325=CARTESIAN_POINT ( 'NONE',  ( 0.5000000000000000000, 0.05000000000000002400, 0.5749999999999995100 ) );
#326=AXIS2_PLACEMENT_3D ( 'NONE', #19, #6, #33 );
#327=AXIS2_PLACEMENT_3D ( 'NONE', #288, #2, #29 );
#328=PLANE ( 'NONE',  #452 );
#329=EDGE_CURVE ( 'NONE', #705, #752, #627, .T. );
#330=CYLINDRICAL_SURFACE ( 'NONE', #857, 0.05000000000000002400 );
#331=CIRCLE ( 'NONE', #405, 0.05000000000000002400 );
#332=CARTESIAN_POINT ( 'NONE',  ( -0.5000000000000002200, 0.0000000000000000000, -0.6250000000000002200 ) );
#333=ORIENTED_EDGE ( 'NONE', *, *, #553, .T. );
#334=CARTESIAN_POINT ( 'NONE',  ( -1.000000000000000200, 0.05000000000000002400, -0.6250000000000002200 ) );
#335=CARTESIAN_POINT ( 'NONE',  ( 500000.0000000000600, 0.01666666666666667300, 0.5749999999566314200 ) );
#336=ORIENTED_EDGE ( 'NONE', *, *, #634, .T. );
#337=EDGE_CURVE ( 'NONE', #698, #586, #210, .T. );
#338=CARTESIAN_POINT ( 'NONE',  ( -1.000000000000000000, 0.05000000000000002400, 0.5749999999999995100 ) );
#339=ORIENTED_EDGE ( 'NONE', *, *, #274, .T. );
#340=AXIS2_PLACEMENT_3D ( 'NONE', #304, #6, #33 );
#341=ORIENTED_EDGE ( 'NONE', *, *, #342, .F. );
#342=EDGE_CURVE ( 'NONE', #108, #597, #863, .T. );
#343=LINE ( 'NONE', #332, #497 );
#344=CIRCLE ( 'NONE', #918, 0.05000000000000002400 );
#345=LINE ( 'NONE', #308, #9 );
#346=ADVANCED_FACE ( 'NONE', ( #359 ), #547, .F. );
#347=CARTESIAN_POINT ( 'NONE',  ( 0.4999999999881765700, 0.05000000000000003100, -0.6083333333333333900 ) );
#348=EDGE_CURVE ( 'NONE', #827, #108, #964, .T. );
#349=DIRECTION ( 'NONE',  ( 0.0000000000000000000, 1.000000000000000000, -0.0000000000000000000 ) );
#350=ADVANCED_FACE ( 'NONE', ( #57 ), #235, .T. );
#351=CARTESIAN_POINT ( 'NONE',  ( 0.5000000000000002200, 0.0000000000000000000, -0.6250000000000002200 ) );
#352=CARTESIAN_POINT ( 'NONE',  ( -0.5000000000000002200, 1.000000000000000000, -0.6250000000000002200 ) );
#353=EDGE_CURVE ( 'NONE', #647, #76, #266, .T. );
#354=AXIS2_PLACEMENT_3D ( 'NONE', #721, #66, #91 );
#355=ORIENTED_EDGE ( 'NONE', *, *, #348, .F. );
#356=DIRECTION ( 'NONE',  ( -0.0000000000000000000, -1.000000000000000000, -0.0000000000000000000 ) );
#357=AXIS2_PLACEMENT_3D ( 'NONE', #414, #6, #16 );
#358=ADVANCED_FACE ( 'NONE', ( #806 ), #422, .F. );
#359=FACE_OUTER_BOUND ( 'NONE', #662, .T. );
#360=CYLINDRICAL_SURFACE ( 'NONE', #766, 0.05000000000000002400 );
#361=CARTESIAN_POINT ( 'NONE',  ( -1.000000000000000000, 1.000000000000000000, 0.5749999999999994000 ) );
#362=AXIS2_PLACEMENT_3D ( 'NONE', #319, #143, #66 );
#363=PRESENTATION_LAYER_ASSIGNMENT (  '', '', ( #245 ) );
#364=ADVANCED_FACE ( 'NONE', ( #93 ), #149, .T. );
#365=EDGE_CURVE ( 'NONE', #324, #797, #280, .T. );
#366=CARTESIAN_POINT ( 'NONE',  ( 0.0000000000000000000, 1.000000000000000000, 0.0000000000000000000 ) );
#367=ORIENTED_EDGE ( 'NONE', *, *, #225, .T. );
#368=EDGE_LOOP ( 'NONE', ( #262, #339, #659, #218 ) );
#369=ADVANCED_FACE ( 'NONE', ( #655 ), #522, .T. );
#370=LINE ( 'NONE', #187, #544 );
#371=CARTESIAN_POINT ( 'NONE',  ( 1.000000000000000000, 1.000000000000000000, 0.6249999999999995600 ) );
#372=LINE ( 'NONE', #334, #196 );
#373=CIRCLE ( 'NONE', #526, 0.05000000000000002400 );
#374=ORIENTED_EDGE ( 'NONE', *, *, #618, .T. );
#375=ORIENTED_EDGE ( 'NONE', *, *, #805, .F. );
#376=EDGE_LOOP ( 'NONE', ( #928, #763, #312, #927 ) );
#377=ORIENTED_EDGE ( 'NONE', *, *, #487, .T. );
#378=CARTESIAN_POINT ( 'NONE',  ( -0.5000000000000002200, 0.05000000000000002400, -0.6250000000000002200 ) );
#379=CARTESIAN_POINT ( 'NONE',  ( -0.5000000000000001100, 0.05000000000000002400, 0.5749999999999996200 ) );
#380=LINE ( 'NONE', #604, #383 );
#381=AXIS2_PLACEMENT_3D ( 'NONE', #285, #661, #91 );
#382=AXIS2_PLACEMENT_3D ( 'NONE', #389, #234, #66 );
#383=VECTOR ( 'NONE', #143, 1000.000000000000000 );
#384=EDGE_CURVE ( 'NONE', #601, #35, #736, .T. );
#385=DIRECTION ( 'NONE',  ( 0.0000000000000000000, -1.000000000000000000, -0.0000000000000000000 ) );
#386=SPHERICAL_SURFACE ( 'NONE', #511, 0.05000000000000000300 );
#387=ORIENTED_EDGE ( 'NONE', *, *, #273, .T. );
#388=ORIENTED_EDGE ( 'NONE', *, *, #787, .F. );
#389=CARTESIAN_POINT ( 'NONE',  ( -0.5000000000000000000, 0.05000000000000002400, 0.5749999999999995100 ) );
#390=AXIS2_PLACEMENT_3D ( 'NONE', #562, #79, #33 );
#391=ORIENTED_EDGE ( 'NONE', *, *, #190, .T. );
#392=ORIENTED_EDGE ( 'NONE', *, *, #465, .T. );
#393=EDGE_CURVE ( 'NONE', #896, #127, #404, .T. );
#394=AXIS2_PLACEMENT_3D ( 'NONE', #310, #2, #91 );
#395=CARTESIAN_POINT ( 'NONE',  ( -0.9499999999999999600, 0.9499999999999999600, 0.6249999999999995600 ) );
#396=CIRCLE ( 'NONE', #828, 0.05000000000000002400 );
#397=EDGE_CURVE ( 'NONE', #38, #157, #67, .T. );
#398=ORIENTED_EDGE ( 'NONE', *, *, #303, .F. );
#399=ORIENTED_EDGE ( 'NONE', *, *, #298, .F. );
#400=ORIENTED_EDGE ( 'NONE', *, *, #489, .T. );
#401=CARTESIAN_POINT ( 'NONE',  ( -0.5000000000000002200, 1.000000000000000000, -0.5750000000000001800 ) );
#402=AXIS2_PLACEMENT_3D ( 'NONE', #450, #6, #33 );
#403=ORIENTED_EDGE ( 'NONE', *, *, #489, .F. );
#404=CIRCLE ( 'NONE', #228, 0.05000000000000002400 );
#405=AXIS2_PLACEMENT_3D ( 'NONE', #319, #2, #33 );
#406=EDGE_LOOP ( 'NONE', ( #491, #585, #534, #684 ) );
#407=CARTESIAN_POINT ( 'NONE',  ( 500000.0000000000600, 0.9499999999999999600, -0.6083333333767014800 ) );
#408=DIRECTION ( 'NONE',  ( -1.734723475976807300E-016, -0.0000000000000000000, -1.000000000000000000 ) );
#409=CARTESIAN_POINT ( 'NONE',  ( 500000.0000000000600, 0.05000000000000002400, -0.6083333333767014800 ) );
#410=ORIENTED_EDGE ( 'NONE', *, *, #606, .T. );
#411=EDGE_CURVE ( 'NONE', #316, #5, #321, .T. );
#412=VERTEX_POINT ( 'NONE', #640 );
#413=FACE_OUTER_BOUND ( 'NONE', #261, .T. );
#414=CARTESIAN_POINT ( 'NONE',  ( 0.9499999999999999600, 0.05000000000000000300, 0.5749999999999995100 ) );
#415=CIRCLE ( 'NONE', #722, 0.05000000000000002400 );
#416=EDGE_LOOP ( 'NONE', ( #315, #694, #286, #299 ) );
#417=PLANE ( 'NONE',  #482 );
#418=VERTEX_POINT ( 'NONE', #103 );
#419=CARTESIAN_POINT ( 'NONE',  ( -0.5000000000000002200, 0.9499999999999999600, -0.5750000000000001800 ) );
#420=ADVANCED_FACE ( 'NONE', ( #619 ), #708, .F. );
#421=CARTESIAN_POINT ( 'NONE',  ( -1.000000000000000200, 1.000000000000000000, -0.6250000000000002200 ) );
#422=PLANE ( 'NONE',  #580 );
#423=AXIS2_PLACEMENT_3D ( 'NONE', #242, #66, #16 );
#424=ADVANCED_FACE ( 'NONE', ( #546 ), #872, .T. );
#425=CIRCLE ( 'NONE', #164, 0.03333333333333334700 );
#426=AXIS2_PLACEMENT_3D ( 'NONE', #59, #433, #91 );
#427=CIRCLE ( 'NONE', #574, 0.05000000000000002400 );
#428=PRESENTATION_LAYER_ASSIGNMENT (  '', '', ( #110 ) );
#429=ORIENTED_EDGE ( 'NONE', *, *, #669, .F. );
#430=CARTESIAN_POINT ( 'NONE',  ( 0.0000000000000000000, 0.9499999999999999600, 0.5749999999999995100 ) );
#431=ADVANCED_FACE ( 'NONE', ( #825 ), #295, .T. );
#432=EDGE_CURVE ( 'NONE', #543, #291, #728, .T. );
#433=DIRECTION ( 'NONE',  ( -0.0000000000000000000, -0.0000000000000000000, 1.000000000000000000 ) );
#434=ORIENTED_EDGE ( 'NONE', *, *, #311, .T. );
#435=CARTESIAN_POINT ( 'NONE',  ( -0.5000000000000001100, 0.05000000000000002400, -0.5750000000000000700 ) );
#436=ORIENTED_EDGE ( 'NONE', *, *, #869, .T. );
#437=EDGE_LOOP ( 'NONE', ( #966, #915, #664, #636 ) );
#438=ORIENTED_EDGE ( 'NONE', *, *, #432, .F. );
#439=LINE ( 'NONE', #272, #102 );
#440=CARTESIAN_POINT ( 'NONE',  ( 0.9500000000000001800, 0.05000000000000002400, -0.6250000000000002200 ) );
#441=FACE_OUTER_BOUND ( 'NONE', #98, .T. );
#442=ORIENTED_EDGE ( 'NONE', *, *, #545, .F. );
#443=EDGE_CURVE ( 'NONE', #625, #247, #814, .T. );
#444=VERTEX_POINT ( 'NONE', #510 );
#445=ORIENTED_EDGE ( 'NONE', *, *, #171, .T. );
#446=EDGE_CURVE ( 'NONE', #48, #60, #892, .T. );
#447=DIRECTION ( 'NONE',  ( 1.734723475976807300E-016, -0.0000000000000000000, 1.000000000000000000 ) );
#448=MANIFOLD_SOLID_BREP ( 'Fillet1', #123 );
#449=ORIENTED_EDGE ( 'NONE', *, *, #171, .F. );
#450=CARTESIAN_POINT ( 'NONE',  ( -0.9500000000000001800, 1.000000000000000000, -0.5750000000000001800 ) );
#451=ORIENTED_EDGE ( 'NONE', *, *, #680, .T. );
#452=AXIS2_PLACEMENT_3D ( 'NONE', #552, #6, #558 );
#453=AXIS2_PLACEMENT_3D ( 'NONE', #32, #56, #151 );
#454=FACE_OUTER_BOUND ( 'NONE', #645, .T. );
#455=LINE ( 'NONE', #204, #264 );
#456=FACE_OUTER_BOUND ( 'NONE', #946, .T. );
#457=CARTESIAN_POINT ( 'NONE',  ( 1.000000000000000000, 1.000000000000000000, 0.5749999999999994000 ) );
#458=CLOSED_SHELL ( 'NONE', ( #958, #519, #753, #195, #894, #148, #369, #587, #671, #923, #40, #350, #275, #649, #783, #837, #572, #431 ) );
#459=EDGE_CURVE ( 'NONE', #418, #466, #952, .T. );
#460=MECHANICAL_DESIGN_GEOMETRIC_PRESENTATION_REPRESENTATION (  '', ( #737 ), #240 );
#461=CYLINDRICAL_SURFACE ( 'NONE', #943, 0.03333333333333334700 );
#462=VECTOR ( 'NONE', #260, 1000.000000000000000 );
#463=AXIS2_PLACEMENT_3D ( 'NONE', #569, #2, #91 );
#464=AXIS2_PLACEMENT_3D ( 'NONE', #111, #143, #66 );
#465=EDGE_CURVE ( 'NONE', #144, #69, #344, .T. );
#466=VERTEX_POINT ( 'NONE', #593 );
#467=ORIENTED_EDGE ( 'NONE', *, *, #303, .T. );
#468=ORIENTED_EDGE ( 'NONE', *, *, #644, .F. );
#469=EDGE_LOOP ( 'NONE', ( #13, #838, #230 ) );
#470=ADVANCED_FACE ( 'NONE', ( #641 ), #251, .T. );
#471=ORIENTED_EDGE ( 'NONE', *, *, #84, .T. );
#472=ORIENTED_EDGE ( 'NONE', *, *, #483, .T. );
#473=CIRCLE ( 'NONE', #551, 0.03333333333333345800 );
#474=CIRCLE ( 'NONE', #464, 0.05000000000000002400 );
#475=CARTESIAN_POINT ( 'NONE',  ( 0.4999999999881765700, 0.01666666666666666600, -0.5749999999999999600 ) );
#476=VECTOR ( 'NONE', #79, 1000.000000000000000 );
#477=CARTESIAN_POINT ( 'NONE',  ( -0.9499999999999999600, 0.05000000000000002400, 0.6249999999999995600 ) );
#478=AXIS2_PLACEMENT_3D ( 'NONE', #871, #234, #66 );
#479=FACE_OUTER_BOUND ( 'NONE', #406, .T. );
#480=ORIENTED_EDGE ( 'NONE', *, *, #779, .F. );
#481=CARTESIAN_POINT ( 'NONE',  ( -1.000000000000000000, 0.05000000000000002400, 0.6249999999999995600 ) );
#482=AXIS2_PLACEMENT_3D ( 'NONE', #366, #2, #66 );
#483=EDGE_CURVE ( 'NONE', #5, #674, #594, .T. );
#484=CARTESIAN_POINT ( 'NONE',  ( 1.000000000000000000, 0.05000000000000002400, 0.5749999999999995100 ) );
#485=CARTESIAN_POINT ( 'NONE',  ( 0.5000000000000002200, 0.05000000000000002400, -0.5750000000000001800 ) );
#486=LINE ( 'NONE', #555, #9 );
#487=EDGE_CURVE ( 'NONE', #60, #733, #780, .T. );
#488=VERTEX_POINT ( 'NONE', #187 );
#489=EDGE_CURVE ( 'NONE', #291, #167, #162, .T. );
#490=FILL_AREA_STYLE ('',( #250 ) );
#491=ORIENTED_EDGE ( 'NONE', *, *, #446, .F. );
#492=EDGE_CURVE ( 'NONE', #752, #488, #173, .T. );
#493=ORIENTED_EDGE ( 'NONE', *, *, #898, .T. );
#494=ADVANCED_FACE ( 'NONE', ( #55 ), #268, .T. );
#495=ORIENTED_EDGE ( 'NONE', *, *, #92, .T. );
#496=ORIENTED_EDGE ( 'NONE', *, *, #595, .F. );
#497=VECTOR ( 'NONE', #408, 1000.000000000000000 );
#498=AXIS2_PLACEMENT_3D ( 'NONE', #713, #56, #66 );
#499=FACE_OUTER_BOUND ( 'NONE', #168, .T. );
#500=CARTESIAN_POINT ( 'NONE',  ( -1.000000000000000200, 0.9499999999999999600, -0.6250000000000002200 ) );
#501=ORIENTED_EDGE ( 'NONE', *, *, #54, .F. );
#502=EDGE_CURVE ( 'NONE', #290, #543, #795, .T. );
#503=ORIENTED_EDGE ( 'NONE', *, *, #492, .T. );
#504=EDGE_CURVE ( 'NONE', #586, #629, #734, .T. );
#505=ORIENTED_EDGE ( 'NONE', *, *, #882, .T. );
#506=CARTESIAN_POINT ( 'NONE',  ( 1.000000000000000000, 0.9499999999999999600, 0.5749999999999995100 ) );
#507=CARTESIAN_POINT ( 'NONE',  ( 0.9500000000000000700, 0.0000000000000000000, 1.647987302177967200E-016 ) );
#508=EDGE_CURVE ( 'NONE', #290, #523, #209, .T. );
#509=ORIENTED_EDGE ( 'NONE', *, *, #393, .T. );
#510=CARTESIAN_POINT ( 'NONE',  ( 0.5000000000000000000, 0.05000000000000002400, 0.6249999999999995600 ) );
#511=AXIS2_PLACEMENT_3D ( 'NONE', #120, #2, #91 );
#512=FACE_OUTER_BOUND ( 'NONE', #575, .T. );
#513=VECTOR ( 'NONE', #178, 1000.000000000000000 );
#514=VECTOR ( 'NONE', #2, 1000.000000000000000 );
#515=ORIENTED_EDGE ( 'NONE', *, *, #553, .F. );
#516=EDGE_CURVE ( 'NONE', #38, #687, #667, .T. );
#517=ORIENTED_EDGE ( 'NONE', *, *, #850, .T. );
#518=ORIENTED_EDGE ( 'NONE', *, *, #483, .F. );
#519=ADVANCED_FACE ( 'NONE', ( #43 ), #276, .F. );
#520=DIRECTION ( 'NONE',  ( -0.0000000000000000000, 0.0000000000000000000, -1.000000000000000000 ) );
#521=ORIENTED_EDGE ( 'NONE', *, *, #583, .F. );
#522=CYLINDRICAL_SURFACE ( 'NONE', #271, 0.05000000000000002400 );
#523=VERTEX_POINT ( 'NONE', #738 );
#524=CARTESIAN_POINT ( 'NONE',  ( -0.9500000000000001800, 1.000000000000000000, -0.6250000000000002200 ) );
#525=VERTEX_POINT ( 'NONE', #602 );
#526=AXIS2_PLACEMENT_3D ( 'NONE', #72, #33, #16 );
#527=CARTESIAN_POINT ( 'NONE',  ( -1.000000000000000200, 0.9499999999999999600, -0.5750000000000001800 ) );
#528=AXIS2_PLACEMENT_3D ( 'NONE', #117, #6, #33 );
#529=CYLINDRICAL_SURFACE ( 'NONE', #564, 0.05000000000000002400 );
#530=LINE ( 'NONE', #741, #142 );
#531=FACE_OUTER_BOUND ( 'NONE', #52, .T. );
#532=SURFACE_SIDE_STYLE ('',( #63 ) );
#533=ORIENTED_EDGE ( 'NONE', *, *, #212, .T. );
#534=ORIENTED_EDGE ( 'NONE', *, *, #459, .T. );
#535=AXIS2_PLACEMENT_3D ( 'NONE', #310, #16, #66 );
#536=ORIENTED_EDGE ( 'NONE', *, *, #36, .T. );
#537=ORIENTED_EDGE ( 'NONE', *, *, #850, .F. );
#538=ORIENTED_EDGE ( 'NONE', *, *, #170, .F. );
#539=EDGE_CURVE ( 'NONE', #730, #733, #847, .T. );
#540=PRESENTATION_STYLE_ASSIGNMENT (( #169 ) );
#541=CYLINDRICAL_SURFACE ( 'NONE', #887, 0.05000000000000002400 );
#542=CARTESIAN_POINT ( 'NONE',  ( -0.5000000000000002200, 0.0000000000000000000, -0.5750000000000001800 ) );
#543=VERTEX_POINT ( 'NONE', #19 );
#544=VECTOR ( 'NONE', #66, 1000.000000000000000 );
#545=EDGE_CURVE ( 'NONE', #167, #157, #265, .T. );
#546=FACE_OUTER_BOUND ( 'NONE', #925, .T. );
#547=PLANE ( 'NONE',  #776 );
#548=EDGE_LOOP ( 'NONE', ( #442, #403, #438, #682 ) );
#549=ORIENTED_EDGE ( 'NONE', *, *, #393, .F. );
#550=CARTESIAN_POINT ( 'NONE',  ( -1.000000000000000000, 0.9499999999999999600, 0.5749999999999995100 ) );
#551=AXIS2_PLACEMENT_3D ( 'NONE', #7, #56, #33 );
#552=CARTESIAN_POINT ( 'NONE',  ( 500000.0000000000600, 0.9833333333333335000, -0.5750000000433681500 ) );
#553=EDGE_CURVE ( 'NONE', #939, #5, #372, .T. );
#554=VERTEX_POINT ( 'NONE', #527 );
#555=CARTESIAN_POINT ( 'NONE',  ( 1.000000000000000000, 0.9499999999999999600, 0.6249999999999995600 ) );
#556=ORIENTED_EDGE ( 'NONE', *, *, #70, .T. );
#557=EDGE_CURVE ( 'NONE', #733, #724, #439, .T. );
#558=DIRECTION ( 'NONE',  ( 0.0000000000000000000, -0.0000000000000000000, -1.000000000000000000 ) );
#559=CIRCLE ( 'NONE', #590, 0.05000000000000002400 );
#560=FACE_OUTER_BOUND ( 'NONE', #243, .T. );
#561=VERTEX_POINT ( 'NONE', #673 );
#562=CARTESIAN_POINT ( 'NONE',  ( 0.9499999999999999600, 0.05000000000000002400, 0.5749999999999995100 ) );
#563=CARTESIAN_POINT ( 'NONE',  ( -0.5000000000000002200, 0.9499999999999999600, -0.6250000000000002200 ) );
#564=AXIS2_PLACEMENT_3D ( 'NONE', #283, #91, #66 );
#565=APPLICATION_PROTOCOL_DEFINITION ( 'draft international standard', 'automotive_design', 1998, #183 );
#566=ORIENTED_EDGE ( 'NONE', *, *, #680, .F. );
#567=ORIENTED_EDGE ( 'NONE', *, *, #365, .F. );
#568=ORIENTED_EDGE ( 'NONE', *, *, #311, .F. );
#569=CARTESIAN_POINT ( 'NONE',  ( -0.9500000000000001800, 0.05000000000000000300, -0.5750000000000001800 ) );
#570=ORIENTED_EDGE ( 'NONE', *, *, #329, .T. );
#571=PLANE ( 'NONE',  #821 );
#572=ADVANCED_FACE ( 'NONE', ( #26 ), #675, .T. );
#573=CARTESIAN_POINT ( 'NONE',  ( 0.9499999999999999600, 0.9499999999999999600, 0.6249999999999995600 ) );
#574=AXIS2_PLACEMENT_3D ( 'NONE', #419, #234, #66 );
#575=EDGE_LOOP ( 'NONE', ( #718, #631, #839, #567 ) );
#576=CARTESIAN_POINT ( 'NONE',  ( 0.0000000000000000000, 0.0000000000000000000, 0.5749999999999995100 ) );
#577=FACE_OUTER_BOUND ( 'NONE', #214, .T. );
#578=ADVANCED_FACE ( 'NONE', ( #454 ), #933, .T. );
#579=CARTESIAN_POINT ( 'NONE',  ( 0.5000000000000000000, 1.000000000000000000, 0.5749999999999995100 ) );
#580=AXIS2_PLACEMENT_3D ( 'NONE', #767, #15, #99 );
#581=CIRCLE ( 'NONE', #478, 0.05000000000000002400 );
#582=SPHERICAL_SURFACE ( 'NONE', #357, 0.05000000000000000300 );
#583=EDGE_CURVE ( 'NONE', #324, #647, #823, .T. );
#584=ORIENTED_EDGE ( 'NONE', *, *, #212, .F. );
#585=ORIENTED_EDGE ( 'NONE', *, *, #225, .F. );
#586=VERTEX_POINT ( 'NONE', #875 );
#587=ADVANCED_FACE ( 'NONE', ( #750 ), #715, .T. );
#588=ORIENTED_EDGE ( 'NONE', *, *, #508, .T. );
#589=ORIENTED_EDGE ( 'NONE', *, *, #287, .T. );
#590=AXIS2_PLACEMENT_3D ( 'NONE', #325, #56, #66 );
#591=CYLINDRICAL_SURFACE ( 'NONE', #58, 0.05000000000000002400 );
#592=PLANE ( 'NONE',  #71 );
#593=CARTESIAN_POINT ( 'NONE',  ( 0.5000000000000002200, 0.0000000000000000000, -0.5750000000000001800 ) );
#594=LINE ( 'NONE', #361, #476 );
#595=EDGE_CURVE ( 'NONE', #724, #136, #654, .T. );
#596=COLOUR_RGB ( '',0.2509803921568627400, 0.2509803921568627400, 0.2509803921568627400 );
#597=VERTEX_POINT ( 'NONE', #140 );
#598=CARTESIAN_POINT ( 'NONE',  ( -0.5000000000000001100, 0.9499999999999999600, -0.6083333333333333900 ) );
#599=EDGE_CURVE ( 'NONE', #48, #724, #962, .T. );
#600=ORIENTED_EDGE ( 'NONE', *, *, #84, .F. );
#601=VERTEX_POINT ( 'NONE', #61 );
#602=CARTESIAN_POINT ( 'NONE',  ( 0.4999999999881765700, 0.05000000000000002400, 0.6083333333333330600 ) );
#603=ORIENTED_EDGE ( 'NONE', *, *, #658, .F. );
#604=CARTESIAN_POINT ( 'NONE',  ( -1.000000000000000000, 0.9499999999999999600, 0.6249999999999995600 ) );
#605=LINE ( 'NONE', #907, #462 );
#606=EDGE_CURVE ( 'NONE', #113, #323, #607, .T. );
#607=LINE ( 'NONE', #121, #264 );
#608=LINE ( 'NONE', #960, #514 );
#609=FACE_OUTER_BOUND ( 'NONE', #739, .T. );
#610=EDGE_CURVE ( 'NONE', #60, #466, #233, .T. );
#611=ORIENTED_EDGE ( 'NONE', *, *, #353, .T. );
#612=EDGE_LOOP ( 'NONE', ( #696, #947, #935, #867 ) );
#613=ORIENTED_EDGE ( 'NONE', *, *, #145, .F. );
#614=AXIS2_PLACEMENT_3D ( 'NONE', #707, #56, #33 );
#615=EDGE_LOOP ( 'NONE', ( #31, #749, #333, #472 ) );
#616=AXIS2_PLACEMENT_3D ( 'NONE', #860, #15, #33 );
#617=LINE ( 'NONE', #782, #264 );
#618=EDGE_CURVE ( 'NONE', #488, #412, #370, .T. );
#619=FACE_OUTER_BOUND ( 'NONE', #615, .T. );
#620=LINE ( 'NONE', #782, #184 );
#621=EDGE_LOOP ( 'NONE', ( #391, #135, #809, #191 ) );
#622=ORIENTED_EDGE ( 'NONE', *, *, #215, .T. );
#623=ORIENTED_EDGE ( 'NONE', *, *, #932, .F. );
#624=CARTESIAN_POINT ( 'NONE',  ( 0.9500000000000000700, 0.9499999999999999600, 1.647987302177967200E-016 ) );
#625=VERTEX_POINT ( 'NONE', #950 );
#626=SPHERICAL_SURFACE ( 'NONE', #632, 0.05000000000000000300 );
#627=LINE ( 'NONE', #407, #142 );
#628=DIRECTION ( 'NONE',  ( 0.0000000000000000000, 2.168404344971007700E-015, 1.000000000000000000 ) );
#629=VERTEX_POINT ( 'NONE', #318 );
#630=STYLED_ITEM ( 'NONE', ( #540 ), #448 );
#631=ORIENTED_EDGE ( 'NONE', *, *, #835, .T. );
#632=AXIS2_PLACEMENT_3D ( 'NONE', #111, #6, #16 );
#633=CARTESIAN_POINT ( 'NONE',  ( 0.9499999999999999600, 0.05000000000000002400, 0.6249999999999995600 ) );
#634=EDGE_CURVE ( 'NONE', #629, #938, #870, .T. );
#635=VERTEX_POINT ( 'NONE', #563 );
#636=ORIENTED_EDGE ( 'NONE', *, *, #432, .T. );
#637=DIRECTION ( 'NONE',  ( 1.000000000000000000, -0.0000000000000000000, 0.0000000000000000000 ) );
#638=ORIENTED_EDGE ( 'NONE', *, *, #748, .T. );
#639=LINE ( 'NONE', #11, #23 );
#640=CARTESIAN_POINT ( 'NONE',  ( -0.5000000000000001100, 0.9833333333333335000, 0.5749999999999994000 ) );
#641=FACE_OUTER_BOUND ( 'NONE', #297, .T. );
#642=EDGE_LOOP ( 'NONE', ( #451, #533, #179, #536, #930, #731, #306, #336 ) );
#643=ORIENTED_EDGE ( 'NONE', *, *, #945, .F. );
#644=EDGE_CURVE ( 'NONE', #601, #525, #692, .T. );
#645=EDGE_LOOP ( 'NONE', ( #720, #956, #495, #206 ) );
#646=ORIENTED_EDGE ( 'NONE', *, *, #384, .T. );
#647=VERTEX_POINT ( 'NONE', #475 );
#648=EDGE_LOOP ( 'NONE', ( #51, #785, #377, #774 ) );
#649=ADVANCED_FACE ( 'NONE', ( #220 ), #330, .T. );
#650=FACE_OUTER_BOUND ( 'NONE', #548, .T. );
#651=DIRECTION ( 'NONE',  ( -1.000000000000000000, 0.0000000000000000000, -1.734723475976807300E-016 ) );
#652=FACE_OUTER_BOUND ( 'NONE', #300, .T. );
#653=MECHANICAL_DESIGN_GEOMETRIC_PRESENTATION_REPRESENTATION (  '', ( #110 ), #931 );
#654=LINE ( 'NONE', #457, #476 );
#655=FACE_OUTER_BOUND ( 'NONE', #791, .T. );
#656=ADVANCED_FACE ( 'NONE', ( #844 ), #690, .F. );
#657=CIRCLE ( 'NONE', #885, 0.05000000000000002400 );
#658=EDGE_CURVE ( 'NONE', #136, #290, #278, .T. );
#659=ORIENTED_EDGE ( 'NONE', *, *, #539, .F. );
#660=ORIENTED_EDGE ( 'NONE', *, *, #861, .T. );
#661=DIRECTION ( 'NONE',  ( -0.0000000000000000000, 0.0000000000000000000, 1.000000000000000000 ) );
#662=EDGE_LOOP ( 'NONE', ( #201, #165, #467, #897 ) );
#663=ADVANCED_FACE ( 'NONE', ( #182 ), #591, .T. );
#664=ORIENTED_EDGE ( 'NONE', *, *, #502, .T. );
#665=ORIENTED_EDGE ( 'NONE', *, *, #545, .T. );
#666=AXIS2_PLACEMENT_3D ( 'NONE', #691, #56, #628 );
#667=LINE ( 'NONE', #32, #221 );
#668=DIRECTION ( 'NONE',  ( -1.000000000000000000, 0.0000000000000000000, 8.673617379884036700E-017 ) );
#669=EDGE_CURVE ( 'NONE', #167, #22, #951, .T. );
#670=VERTEX_POINT ( 'NONE', #75 );
#671=ADVANCED_FACE ( 'NONE', ( #652 ), #263, .T. );
#672=VERTEX_POINT ( 'NONE', #401 );
#673=CARTESIAN_POINT ( 'NONE',  ( 0.4999999999881765700, 0.9833333333333335000, 0.5749999999999994000 ) );
#674=VERTEX_POINT ( 'NONE', #550 );
#675=SPHERICAL_SURFACE ( 'NONE', #126, 0.05000000000000000300 );
#676=AXIS2_PLACEMENT_3D ( 'NONE', #96, #91, #33 );
#677=ORIENTED_EDGE ( 'NONE', *, *, #215, .F. );
#678=AXIS2_PLACEMENT_3D ( 'NONE', #59, #2, #66 );
#679=ORIENTED_EDGE ( 'NONE', *, *, #27, .F. );
#680=EDGE_CURVE ( 'NONE', #938, #254, #343, .T. );
#681=LINE ( 'NONE', #576, #513 );
#682=ORIENTED_EDGE ( 'NONE', *, *, #963, .F. );
#683=FACE_OUTER_BOUND ( 'NONE', #729, .T. );
#684=ORIENTED_EDGE ( 'NONE', *, *, #610, .F. );
#685=PRODUCT_DEFINITION ( 'UNKNOWN', '', #819, #146 );
#686=ORIENTED_EDGE ( 'NONE', *, *, #232, .F. );
#687=VERTEX_POINT ( 'NONE', #919 );
#688=DIRECTION ( 'NONE',  ( -0.0000000000000000000, 1.000000000000000000, 0.0000000000000000000 ) );
#689=ORIENTED_EDGE ( 'NONE', *, *, #861, .F. );
#690=PLANE ( 'NONE',  #833 );
#691=CARTESIAN_POINT ( 'NONE',  ( 0.5000000000000000000, 0.9499999999999999600, 0.5749999999999995100 ) );
#692=LINE ( 'NONE', #745, #264 );
#693=CYLINDRICAL_SURFACE ( 'NONE', #756, 0.03333333333333334700 );
#694=ORIENTED_EDGE ( 'NONE', *, *, #963, .T. );
#695=AXIS2_PLACEMENT_3D ( 'NONE', #352, #829, #249 );
#696=ORIENTED_EDGE ( 'NONE', *, *, #236, .T. );
#697=CARTESIAN_POINT ( 'NONE',  ( 0.4999999999881765700, 0.01666666666666667300, 0.5749999999999995100 ) );
#698=VERTEX_POINT ( 'NONE', #854 );
#699=CIRCLE ( 'NONE', #223, 0.05000000000000002400 );
#700=FACE_OUTER_BOUND ( 'NONE', #642, .T. );
#701=CARTESIAN_POINT ( 'NONE',  ( 1.000000000000000200, 0.9499999999999999600, -0.5750000000000001800 ) );
#702=CYLINDRICAL_SURFACE ( 'NONE', #34, 0.04999999999999991300 );
#703=PRESENTATION_STYLE_ASSIGNMENT (( #717 ) );
#704=MECHANICAL_DESIGN_GEOMETRIC_PRESENTATION_REPRESENTATION (  '', ( #630 ), #746 );
#705=VERTEX_POINT ( 'NONE', #711 );
#706=CARTESIAN_POINT ( 'NONE',  ( 0.5000000000000000000, 0.9499999999999999600, 0.6249999999999995600 ) );
#707=CARTESIAN_POINT ( 'NONE',  ( 0.4999999999881765700, 0.05000000000000002400, -0.5750000000000000700 ) );
#708=PLANE ( 'NONE',  #824 );
#709=EDGE_LOOP ( 'NONE', ( #521, #124, #471, #623 ) );
#710=ORIENTED_EDGE ( 'NONE', *, *, #10, .T. );
#711=CARTESIAN_POINT ( 'NONE',  ( 0.4999999999881765700, 0.9499999999999999600, -0.6083333333333333900 ) );
#712=CARTESIAN_POINT ( 'NONE',  ( -0.9500000000000001800, 0.9499999999999999600, -0.6250000000000002200 ) );
#713=CARTESIAN_POINT ( 'NONE',  ( 0.5000000000000002200, 0.9499999999999999600, -0.5750000000000001800 ) );
#714=ADVANCED_FACE ( 'NONE', ( #293 ), #541, .T. );
#715=CYLINDRICAL_SURFACE ( 'NONE', #340, 0.05000000000000002400 );
#716=LINE ( 'NONE', #11, #264 );
#717=SURFACE_STYLE_USAGE ( .BOTH. , #24 );
#718=ORIENTED_EDGE ( 'NONE', *, *, #161, .F. );
#719=ORIENTED_EDGE ( 'NONE', *, *, #152, .T. );
#720=ORIENTED_EDGE ( 'NONE', *, *, #27, .T. );
#721=CARTESIAN_POINT ( 'NONE',  ( 0.0000000000000000000, 0.0000000000000000000, 0.0000000000000000000 ) );
#722=AXIS2_PLACEMENT_3D ( 'NONE', #294, #16, #66 );
#723=CARTESIAN_POINT ( 'NONE',  ( -0.5000000000000001100, 0.01666666666666666600, 0.5749999999999995100 ) );
#724=VERTEX_POINT ( 'NONE', #484 );
#725=CIRCLE ( 'NONE', #793, 0.05000000000000002400 );
#726=ADVANCED_FACE ( 'NONE', ( #78 ), #592, .F. );
#727=CARTESIAN_POINT ( 'NONE',  ( -0.5000000000000000000, 1.000000000000000000, 0.6249999999999995600 ) );
#728=LINE ( 'NONE', #121, #102 );
#729=EDGE_LOOP ( 'NONE', ( #689, #517, #374, #322 ) );
#730=VERTEX_POINT ( 'NONE', #440 );
#731=ORIENTED_EDGE ( 'NONE', *, *, #337, .T. );
#732=ADVANCED_FACE ( 'NONE', ( #891 ), #735, .F. );
#733=VERTEX_POINT ( 'NONE', #283 );
#734=LINE ( 'NONE', #727, #28 );
#735=PLANE ( 'NONE',  #327 );
#736=LINE ( 'NONE', #840, #142 );
#737=STYLED_ITEM ( 'NONE', ( #703 ), #4 );
#738=CARTESIAN_POINT ( 'NONE',  ( 0.9500000000000001800, 0.9499999999999999600, -0.6250000000000002200 ) );
#739=EDGE_LOOP ( 'NONE', ( #759, #509, #786 ) );
#740=AXIS2_PLACEMENT_3D ( 'NONE', #96, #16, #33 );
#741=CARTESIAN_POINT ( 'NONE',  ( 500000.0000000000600, 0.05000000000000002400, 0.6083333332899649700 ) );
#742=EDGE_CURVE ( 'NONE', #412, #35, #841, .T. );
#743=VECTOR ( 'NONE', #688, 1000.000000000000000 );
#744=CARTESIAN_POINT ( 'NONE',  ( 500000.0000000000600, 0.05000000000000002400, 0.5749999999566315400 ) );
#745=CARTESIAN_POINT ( 'NONE',  ( 0.4999999999881765700, 0.9499999999999999600, 0.6083333333333330600 ) );
#746=( GEOMETRIC_REPRESENTATION_CONTEXT ( 3 ) GLOBAL_UNCERTAINTY_ASSIGNED_CONTEXT ( ( #141 ) ) GLOBAL_UNIT_ASSIGNED_CONTEXT ( ( #257, #64, #14 ) ) REPRESENTATION_CONTEXT ( 'NONE', 'WORKASPACE' ) );
#747=ORIENTED_EDGE ( 'NONE', *, *, #274, .F. );
#748=EDGE_CURVE ( 'NONE', #113, #291, #474, .T. );
#749=ORIENTED_EDGE ( 'NONE', *, *, #826, .T. );
#750=FACE_OUTER_BOUND ( 'NONE', #313, .T. );
#751=AXIS2_PLACEMENT_3D ( 'NONE', #901, #260, #241 );
#752=VERTEX_POINT ( 'NONE', #598 );
#753=ADVANCED_FACE ( 'NONE', ( #131 ), #42, .F. );
#754=ORIENTED_EDGE ( 'NONE', *, *, #610, .T. );
#755=DIRECTION ( 'NONE',  ( 8.673617379884036700E-017, -0.0000000000000000000, 1.000000000000000000 ) );
#756=AXIS2_PLACEMENT_3D ( 'NONE', #817, #3, #66 );
#757=DIRECTION ( 'NONE',  ( 1.000000000000000000, 0.0000000000000000000, 1.734723475976811800E-016 ) );
#758=CIRCLE ( 'NONE', #535, 0.05000000000000002400 );
#759=ORIENTED_EDGE ( 'NONE', *, *, #129, .T. );
#760=EDGE_CURVE ( 'NONE', #674, #127, #725, .T. );
#761=ORIENTED_EDGE ( 'NONE', *, *, #145, .T. );
#762=CARTESIAN_POINT ( 'NONE',  ( -0.5000000000000000000, 0.0000000000000000000, 0.5749999999999994000 ) );
#763=ORIENTED_EDGE ( 'NONE', *, *, #906, .F. );
#764=ORIENTED_EDGE ( 'NONE', *, *, #606, .F. );
#765=ORIENTED_EDGE ( 'NONE', *, *, #779, .T. );
#766=AXIS2_PLACEMENT_3D ( 'NONE', #156, #16, #66 );
#767=CARTESIAN_POINT ( 'NONE',  ( -0.5000000000000001100, 0.9499999999999999600, -0.5750000000000000700 ) );
#768=CIRCLE ( 'NONE', #205, 0.05000000000000002400 );
#769=CARTESIAN_POINT ( 'NONE',  ( -0.5000000000000000000, 1.000000000000000000, 0.5749999999999995100 ) );
#770=PLANE ( 'NONE',  #695 );
#771=ORIENTED_EDGE ( 'NONE', *, *, #504, .F. );
#772=ADVANCED_FACE ( 'NONE', ( #115 ), #41, .F. );
#773=ORIENTED_EDGE ( 'NONE', *, *, #342, .T. );
#774=ORIENTED_EDGE ( 'NONE', *, *, #557, .T. );
#775=PRODUCT_CONTEXT ( 'NONE', #183, 'mechanical' );
#776=AXIS2_PLACEMENT_3D ( 'NONE', #895, #755, #15 );
#777=AXIS2_PLACEMENT_3D ( 'NONE', #485, #56, #66 );
#778=ORIENTED_EDGE ( 'NONE', *, *, #898, .F. );
#779=EDGE_CURVE ( 'NONE', #48, #323, #699, .T. );
#780=CIRCLE ( 'NONE', #381, 0.05000000000000002400 );
#781=FACE_OUTER_BOUND ( 'NONE', #159, .T. );
#782=CARTESIAN_POINT ( 'NONE',  ( -1.000000000000000200, 1.000000000000000000, -0.5750000000000001800 ) );
#783=ADVANCED_FACE ( 'NONE', ( #577 ), #529, .T. );
#784=LINE ( 'NONE', #134, #476 );
#785=ORIENTED_EDGE ( 'NONE', *, *, #446, .T. );
#786=ORIENTED_EDGE ( 'NONE', *, *, #760, .F. );
#787=EDGE_CURVE ( 'NONE', #523, #38, #858, .T. );
#788=AXIS2_PLACEMENT_3D ( 'NONE', #120, #349, #66 );
#789=ORIENTED_EDGE ( 'NONE', *, *, #924, .F. );
#790=CARTESIAN_POINT ( 'NONE',  ( 500000.0000000000600, 0.9499999999999999600, 0.5749999999566315400 ) );
#791=EDGE_LOOP ( 'NONE', ( #86, #97, #638, #400 ) );
#792=AXIS2_PLACEMENT_3D ( 'NONE', #366, #2, #29 );
#793=AXIS2_PLACEMENT_3D ( 'NONE', #120, #520, #91 );
#794=ADVANCED_FACE ( 'NONE', ( #512 ), #461, .T. );
#795=CIRCLE ( 'NONE', #426, 0.05000000000000002400 );
#796=FACE_OUTER_BOUND ( 'NONE', #852, .T. );
#797=VERTEX_POINT ( 'NONE', #944 );
#798=VERTEX_POINT ( 'NONE', #883 );
#799=AXIS2_PLACEMENT_3D ( 'NONE', #767, #15, #33 );
#800=EDGE_LOOP ( 'NONE', ( #955, #588, #186 ) );
#801=EDGE_LOOP ( 'NONE', ( #109, #106, #45, #778 ) );
#802=MANIFOLD_SOLID_BREP ( 'Mirror2', #458 );
#803=LINE ( 'NONE', #769, #81 );
#804=PRODUCT_DEFINITION_SHAPE ( 'NONE', 'NONE',  #685 );
#805=EDGE_CURVE ( 'NONE', #323, #444, #910, .T. );
#806=FACE_OUTER_BOUND ( 'NONE', #180, .T. );
#807=CYLINDRICAL_SURFACE ( 'NONE', #676, 0.05000000000000002400 );
#808=CARTESIAN_POINT ( 'NONE',  ( 0.5000000000000000000, 1.000000000000000000, 0.6249999999999995600 ) );
#809=ORIENTED_EDGE ( 'NONE', *, *, #906, .T. );
#810=AXIS2_PLACEMENT_3D ( 'NONE', #371, #33, #91 );
#811=AXIS2_PLACEMENT_3D ( 'NONE', #242, #651, #82 );
#812=ORIENTED_EDGE ( 'NONE', *, *, #74, .F. );
#813=EDGE_LOOP ( 'NONE', ( #468, #646, #1, #920 ) );
#814=CIRCLE ( 'NONE', #244, 0.03333333333333334700 );
#815=ORIENTED_EDGE ( 'NONE', *, *, #599, .T. );
#816=EDGE_LOOP ( 'NONE', ( #764, #399, #305, #375 ) );
#817=CARTESIAN_POINT ( 'NONE',  ( 500000.0000000000600, 0.05000000000000002400, -0.5750000000433681500 ) );
#818=EDGE_CURVE ( 'NONE', #586, #896, #380, .T. );
#819=PRODUCT_DEFINITION_FORMATION_WITH_SPECIFIED_SOURCE ( 'ANY', '', #216, .NOT_KNOWN. );
#820=ORIENTED_EDGE ( 'NONE', *, *, #539, .T. );
#821=AXIS2_PLACEMENT_3D ( 'NONE', #101, #33, #178 );
#822=ORIENTED_EDGE ( 'NONE', *, *, #742, .F. );
#823=LINE ( 'NONE', #202, #8 );
#824=AXIS2_PLACEMENT_3D ( 'NONE', #421, #911, #260 );
#825=FACE_OUTER_BOUND ( 'NONE', #368, .T. );
#826=EDGE_CURVE ( 'NONE', #554, #939, #617, .T. );
#827=VERTEX_POINT ( 'NONE', #378 );
#828=AXIS2_PLACEMENT_3D ( 'NONE', #111, #356, #66 );
#829=DIRECTION ( 'NONE',  ( -1.000000000000000000, 0.0000000000000000000, 1.734723475976807300E-016 ) );
#830=CARTESIAN_POINT ( 'NONE',  ( -0.9500000000000001800, 0.05000000000000002400, -0.6250000000000002200 ) );
#831=AXIS2_PLACEMENT_3D ( 'NONE', #790, #3, #66 );
#832=CIRCLE ( 'NONE', #788, 0.05000000000000002400 );
#833=AXIS2_PLACEMENT_3D ( 'NONE', #421, #66, #953 );
#834=ORIENTED_EDGE ( 'NONE', *, *, #104, .F. );
#835=EDGE_CURVE ( 'NONE', #525, #670, #530, .T. );
#836=ORIENTED_EDGE ( 'NONE', *, *, #118, .F. );
#837=ADVANCED_FACE ( 'NONE', ( #880 ), #39, .T. );
#838=ORIENTED_EDGE ( 'NONE', *, *, #411, .T. );
#839=ORIENTED_EDGE ( 'NONE', *, *, #203, .T. );
#840=CARTESIAN_POINT ( 'NONE',  ( 500000.0000000000600, 0.9499999999999999600, 0.6083333332899650800 ) );
#841=CIRCLE ( 'NONE', #616, 0.03333333333333345800 );
#842=CARTESIAN_POINT ( 'NONE',  ( -0.5000000000000001100, 0.9499999999999999600, 0.6083333333333330600 ) );
#843=ORIENTED_EDGE ( 'NONE', *, *, #924, .T. );
#844=FACE_OUTER_BOUND ( 'NONE', #612, .T. );
#845=CARTESIAN_POINT ( 'NONE',  ( 0.9499999999999999600, 0.0000000000000000000, 0.5749999999999995100 ) );
#846=ADVANCED_FACE ( 'NONE', ( #116 ), #207, .T. );
#847=CIRCLE ( 'NONE', #929, 0.05000000000000002400 );
#848=CYLINDRICAL_SURFACE ( 'NONE', #751, 0.04999999999999991300 );
#849=CIRCLE ( 'NONE', #914, 0.05000000000000002400 );
#850=EDGE_CURVE ( 'NONE', #798, #488, #292, .T. );
#851=ORIENTED_EDGE ( 'NONE', *, *, #557, .F. );
#852=EDGE_LOOP ( 'NONE', ( #505, #660, #556, #20, #237, #226, #611, #436 ) );
#853=AXIS2_PLACEMENT_3D ( 'NONE', #72, #2, #91 );
#854=CARTESIAN_POINT ( 'NONE',  ( -0.5000000000000000000, 1.000000000000000000, 0.5749999999999994000 ) );
#855=ORIENTED_EDGE ( 'NONE', *, *, #443, .F. );
#856=ORIENTED_EDGE ( 'NONE', *, *, #118, .T. );
#857=AXIS2_PLACEMENT_3D ( 'NONE', #440, #151, #16 );
#858=LINE ( 'NONE', #50, #383 );
#859=LINE ( 'NONE', #347, #743 );
#860=CARTESIAN_POINT ( 'NONE',  ( -0.5000000000000001100, 0.9499999999999999600, 0.5749999999999996200 ) );
#861=EDGE_CURVE ( 'NONE', #798, #561, #160, .T. );
#862=ORIENTED_EDGE ( 'NONE', *, *, #888, .F. );
#863=CIRCLE ( 'NONE', #362, 0.05000000000000002400 );
#864=LINE ( 'NONE', #409, #142 );
#865=ADVANCED_FACE ( 'NONE', ( #700 ), #770, .F. );
#866=AXIS2_PLACEMENT_3D ( 'NONE', #908, #56, #33 );
#867=ORIENTED_EDGE ( 'NONE', *, *, #54, .T. );
#868=EDGE_LOOP ( 'NONE', ( #719, #515, #449, #643 ) );
#869=EDGE_CURVE ( 'NONE', #76, #705, #859, .T. );
#870=CIRCLE ( 'NONE', #382, 0.05000000000000002400 );
#871=CARTESIAN_POINT ( 'NONE',  ( -0.5000000000000002200, 0.05000000000000002400, -0.5750000000000001800 ) );
#872=CYLINDRICAL_SURFACE ( 'NONE', #528, 0.05000000000000002400 );
#873=LINE ( 'NONE', #352, #497 );
#874=ORIENTED_EDGE ( 'NONE', *, *, #222, .T. );
#875=CARTESIAN_POINT ( 'NONE',  ( -0.5000000000000000000, 0.9499999999999999600, 0.6249999999999995600 ) );
#876=PRESENTATION_LAYER_ASSIGNMENT (  '', '', ( #630 ) );
#877=AXIS2_PLACEMENT_3D ( 'NONE', #562, #66, #16 );
#878=CARTESIAN_POINT ( 'NONE',  ( 500000.0000000000600, 0.9499999999999999600, -0.5750000000433681500 ) );
#879=ORIENTED_EDGE ( 'NONE', *, *, #129, .F. );
#880=FACE_OUTER_BOUND ( 'NONE', #800, .T. );
#881=ORIENTED_EDGE ( 'NONE', *, *, #968, .F. );
#882=EDGE_CURVE ( 'NONE', #705, #798, #473, .T. );
#883=CARTESIAN_POINT ( 'NONE',  ( 0.4999999999881765700, 0.9833333333333335000, -0.5750000000000000700 ) );
#884=FACE_OUTER_BOUND ( 'NONE', #437, .T. );
#885=AXIS2_PLACEMENT_3D ( 'NONE', #213, #46, #91 );
#886=EDGE_LOOP ( 'NONE', ( #942, #49, #95, #812 ) );
#887=AXIS2_PLACEMENT_3D ( 'NONE', #430, #16, #66 );
#888=EDGE_CURVE ( 'NONE', #22, #444, #277, .T. );
#889=EDGE_LOOP ( 'NONE', ( #259, #622, #566, #493 ) );
#890=EDGE_LOOP ( 'NONE', ( #836, #820, #256 ) );
#891=FACE_OUTER_BOUND ( 'NONE', #709, .T. );
#892=LINE ( 'NONE', #507, #132 );
#893=CIRCLE ( 'NONE', #390, 0.05000000000000002400 );
#894=ADVANCED_FACE ( 'NONE', ( #650 ), #417, .T. );
#895=CARTESIAN_POINT ( 'NONE',  ( 500000.0000000000600, 0.05000000000000003100, -0.6083333333767014800 ) );
#896=VERTEX_POINT ( 'NONE', #395 );
#897=ORIENTED_EDGE ( 'NONE', *, *, #329, .F. );
#898=EDGE_CURVE ( 'NONE', #938, #959, #681, .T. );
#899=ORIENTED_EDGE ( 'NONE', *, *, #337, .F. );
#900=AXIS2_PLACEMENT_3D ( 'NONE', #302, #56, #33 );
#901=CARTESIAN_POINT ( 'NONE',  ( -0.9500000000000000700, 0.9499999999999999600, 1.647987302177967200E-016 ) );
#902=ORIENTED_EDGE ( 'NONE', *, *, #912, .F. );
#903=AXIS2_PLACEMENT_3D ( 'NONE', #484, #16, #33 );
#904=SPHERICAL_SURFACE ( 'NONE', #853, 0.05000000000000000300 );
#905=VECTOR ( 'NONE', #33, 1000.000000000000000 );
#906=EDGE_CURVE ( 'NONE', #144, #127, #231, .T. );
#907=CARTESIAN_POINT ( 'NONE',  ( -0.9500000000000000700, 0.0000000000000000000, 1.647987302177967200E-016 ) );
#908=CARTESIAN_POINT ( 'NONE',  ( 0.4999999999881765700, 0.9499999999999999600, 0.5749999999999996200 ) );
#909=ORIENTED_EDGE ( 'NONE', *, *, #459, .F. );
#910=LINE ( 'NONE', #137, #184 );
#911=DIRECTION ( 'NONE',  ( 1.000000000000000000, 0.0000000000000000000, -1.734723475976807300E-016 ) );
#912=EDGE_CURVE ( 'NONE', #35, #670, #307, .T. );
#913=CIRCLE ( 'NONE', #155, 0.05000000000000002400 );
#914=AXIS2_PLACEMENT_3D ( 'NONE', #111, #66, #16 );
#915=ORIENTED_EDGE ( 'NONE', *, *, #658, .T. );
#916=CARTESIAN_POINT ( 'NONE',  ( 500000.0000000000600, 0.01666666666666666600, -0.5750000000433680400 ) );
#917=EDGE_LOOP ( 'NONE', ( #899, #881, #549, #153 ) );
#918=AXIS2_PLACEMENT_3D ( 'NONE', #72, #16, #66 );
#919=CARTESIAN_POINT ( 'NONE',  ( 0.5000000000000002200, 0.05000000000000002400, -0.6250000000000002200 ) );
#920=ORIENTED_EDGE ( 'NONE', *, *, #835, .F. );
#921=LINE ( 'NONE', #481, #81 );
#922=ADVANCED_BREP_SHAPE_REPRESENTATION ( 'LQM21PNR47MGHL', ( #448, #802, #4, #354 ), #90 );
#923=ADVANCED_FACE ( 'NONE', ( #87 ), #626, .T. );
#924=EDGE_CURVE ( 'NONE', #466, #687, #193, .T. );
#925=EDGE_LOOP ( 'NONE', ( #269, #686, #879, #518 ) );
#926=AXIS2_PLACEMENT_3D ( 'NONE', #878, #3, #66 );
#927=ORIENTED_EDGE ( 'NONE', *, *, #62, .F. );
#928=ORIENTED_EDGE ( 'NONE', *, *, #760, .T. );
#929=AXIS2_PLACEMENT_3D ( 'NONE', #294, #385, #33 );
#930=ORIENTED_EDGE ( 'NONE', *, *, #190, .F. );
#931=( GEOMETRIC_REPRESENTATION_CONTEXT ( 3 ) GLOBAL_UNCERTAINTY_ASSIGNED_CONTEXT ( ( #141 ) ) GLOBAL_UNIT_ASSIGNED_CONTEXT ( ( #257, #64, #14 ) ) REPRESENTATION_CONTEXT ( 'NONE', 'WORKASPACE' ) );
#932=EDGE_CURVE ( 'NONE', #647, #625, #949, .T. );
#933=CYLINDRICAL_SURFACE ( 'NONE', #402, 0.05000000000000002400 );
#934=LINE ( 'NONE', #524, #476 );
#935=ORIENTED_EDGE ( 'NONE', *, *, #217, .T. );
#936=EDGE_LOOP ( 'NONE', ( #613, #227, #199 ) );
#937=ORIENTED_EDGE ( 'NONE', *, *, #516, .T. );
#938=VERTEX_POINT ( 'NONE', #762 );
#939=VERTEX_POINT ( 'NONE', #156 );
#940=MECHANICAL_DESIGN_GEOMETRIC_PRESENTATION_REPRESENTATION (  '', ( #245 ), #279 );
#941=FACE_OUTER_BOUND ( 'NONE', #376, .T. );
#942=ORIENTED_EDGE ( 'NONE', *, *, #353, .F. );
#943=AXIS2_PLACEMENT_3D ( 'NONE', #744, #3, #66 );
#944=CARTESIAN_POINT ( 'NONE',  ( -0.5000000000000001100, 0.01666666666666667300, 0.5749999999999995100 ) );
#945=EDGE_CURVE ( 'NONE', #959, #597, #605, .T. );
#946=EDGE_LOOP ( 'NONE', ( #17, #570, #503, #537 ) );
#947=ORIENTED_EDGE ( 'NONE', *, *, #348, .T. );
#948=ORIENTED_EDGE ( 'NONE', *, *, #125, .T. );
#949=LINE ( 'NONE', #916, #142 );
#950=CARTESIAN_POINT ( 'NONE',  ( -0.5000000000000001100, 0.01666666666666666600, -0.5749999999999999600 ) );
#951=CIRCLE ( 'NONE', #666, 0.05000000000000002400 );
#952=LINE ( 'NONE', #351, #132 );
#953=DIRECTION ( 'NONE',  ( 1.000000000000000000, 0.0000000000000000000, -0.0000000000000000000 ) );
#954=CYLINDRICAL_SURFACE ( 'NONE', #65, 0.05000000000000002400 );
#955=ORIENTED_EDGE ( 'NONE', *, *, #502, .F. );
#956=ORIENTED_EDGE ( 'NONE', *, *, #217, .F. );
#957=CARTESIAN_POINT ( 'NONE',  ( 1.000000000000000200, 0.9499999999999999600, -0.6250000000000002200 ) );
#958=ADVANCED_FACE ( 'NONE', ( #413 ), #21, .F. );
#959=VERTEX_POINT ( 'NONE', #172 );
#960=CARTESIAN_POINT ( 'NONE',  ( -0.5000000000000001100, 0.05000000000000003100, -0.6083333333333333900 ) );
#961=CARTESIAN_POINT ( 'NONE',  ( 0.4999999999881765700, 0.9833333333333335000, -0.5750000001301042200 ) );
#962=CIRCLE ( 'NONE', #877, 0.05000000000000002400 );
#963=EDGE_CURVE ( 'NONE', #157, #543, #639, .T. );
#964=LINE ( 'NONE', #334, #184 );
#965=CIRCLE ( 'NONE', #866, 0.03333333333333345800 );
#966=ORIENTED_EDGE ( 'NONE', *, *, #122, .F. );
#967=ORIENTED_EDGE ( 'NONE', *, *, #818, .T. );
#968=EDGE_CURVE ( 'NONE', #127, #698, #803, .T. );
ENDSEC;
END-ISO-10303-21;
